/* XPM */
static char *a_1[] = {
/* columns rows colors chars-per-pixel */
"50 42 91 1 ",
"  c #F51500",
". c #F51B00",
"X c #F62301",
"o c #F72C01",
"O c #F73201",
"+ c #F83502",
"@ c #F83B02",
"# c #F94502",
"$ c #F94B03",
"% c #FA5503",
"& c #FA5B03",
"* c #FA5808",
"= c #FB6404",
"- c #FC6B04",
"; c #FC7405",
": c #FD7C05",
"> c #FB661A",
", c #FB691D",
"< c #FC7517",
"1 c #FC7C15",
"2 c #FC761B",
"3 c #FB6C22",
"4 c #FE8406",
"5 c #FE8D06",
"6 c #FF9507",
"7 c #FD8314",
"8 c #FE8912",
"9 c #FD861C",
"0 c #FD881F",
"q c #FF9A12",
"w c #FF9E1C",
"e c #FD8520",
"r c #FD8C20",
"t c #FC852D",
"y c #FE9022",
"u c #FE9E2B",
"i c #FB823F",
"p c #FFA223",
"a c #FFA52B",
"s c #FFA734",
"d c #FFA934",
"f c #FEA03E",
"g c #FFAC3A",
"h c #FC8D4D",
"j c #FC9044",
"k c #FC904D",
"l c #FC8E50",
"z c #FC9351",
"x c #FD9950",
"c c #FC995E",
"v c #FDA14E",
"b c #FEA94C",
"n c #FFB145",
"m c #FFB44B",
"M c #FEA753",
"N c #FFB752",
"B c #FFB955",
"V c #FFBB5D",
"C c #FC9D63",
"Z c #FDA56D",
"A c #FFBD61",
"S c #FDA771",
"D c #FDAA72",
"F c #FDAE7A",
"G c #FFC066",
"H c #FFC36C",
"J c #FFC571",
"K c #FFC47B",
"L c #FFCA7C",
"P c #FDBD8E",
"I c #FFCD83",
"U c #FEC28C",
"Y c #FEC98D",
"T c #FFD18B",
"R c #FEC89C",
"E c #FFD491",
"W c #FFD799",
"Q c #FFD99D",
"! c #FFDDA5",
"~ c #FFDFA9",
"^ c #FEDAB9",
"/ c #FFE0AC",
"( c #FFE3B4",
") c #FFE6BA",
"_ c #FFE8BE",
"` c #FFE5C3",
"' c #FFEBC4",
"] c #FFEDCB",
"[ c #FFEFD1",
"{ c #FFF3D6",
"} c None",
/* pixels */
"}}}}}}}}}}}}}}}}}}}}}}%&6666666}}}}}}}}}}}}}}}}}}}",
"}}}}}}}}}}}}}}}}}}}%%%=56)))))T66}}}}}}}}}}}}}}}}}",
"}}}}}}}}}}}}}}}666654;=wQ{{{{{'QW6}}}}}}}}}}}}}}}}",
"}}}}}}}}}}}}}6dIIIIIn:=p{{{{{{{{{Iw}}}}}}}}}}}}}}}",
"}}}}}}}}}}}}nGI{{{{{Wf:p{{{{{{{{{{w-}}}}}}}}}}}}}}",
"}}}}}}}}}}6dE{{{{{{{{Qsr{{{{{{{{{{B1=}}}}}}}}}}}}}",
"}}}}}}}}}6pW{{{{{{{{{{R3{{{{{{{{{{{B1&%}}}}}}}}}}}",
"}}}}}}}}66~{{{{{{{{{{{R,]{{{{{{{{{{{N;%%%&&}}}}}}}",
"}}}}}}}}%5!{{{{{{{{{{{R%%{{{{{{{{{{{B;%%&6666}}}}}",
"}}}}}}}}%6~{{{{{{{{{{I8%%{{{{{{{{{{{N;-566_''G6}}}",
"}}}}}}}%46aW{{{{{{{Hdr-4%{{{{{{{{{{{N65a!~{{{_J6}}",
"}}}}}}}&666dvhhkm{{!TYUL4h`{{{{{{{{Hp6dQ{{{{{{I6}}",
"}}}}}}5;6664=%>SJ{{{{{{]J;V){{{'HHH0;4N{{{{{{{/A}}",
"}}}}}dBBBBw:=,S{{{{{{{{{{BqQ{{{_BBB1=tI{{{{{{{{Q6}",
"}}}dgH{{{{Vg0x{{{{{{{{{{{{m/{{{{{{{V2Z{{{{{{{{{/d}",
"}}wT{{{{{{{{LA{{{{{{{{{{{{`{{{{{{{{{kZ{{{{{{{{{{_6",
"}6!{{{{{{{{{{{{{{{{{{{{{{{pQ{{{{{{{{NH{{{{{{{{{{)6",
"}6Q{{{{{{{{{Zz{{{{{{{{{{{{3R{{{{{{{{NJ{{{{{{{{{{)6",
"6!]{{{{{{{{{Zl{{{{{{{{{{{3*,P{{{{{{{x7H{{{{{{{{{)6",
"6({{{{{{{{{{Z>C{{{{{{{{`n4*;uT{{{{{G2&x{{{{{{{{{^@",
"6){{{{{{{{{{Z%>cc]{{{~AN;6&-;tccCcVw4=3F{{{{{{{(M ",
"6){{{{{{{{{Ri%%%%DFKLb:;%6&%%%%%%%;564;eLL{{{{(V4.",
"-I'{{{{{{{{l%%%%%-=464=%%4&%&-=--=&;566666EWWWV64 ",
" 4Q{{{{{{{_j&%%%=566664=%%%&466666=&:666666666664 ",
" 4W{{{{{{]d6;&%&66666665%%%46666666=:666666666664 ",
"} ;I{{{]66666:%&666666666%5666666666666666666664$ ",
"} $7uwww666664%&666666666%56666666666:;666666664$ ",
"}}X$=;666666:&%&666666666%56666666666;&-666666:%X}",
"}} @%&-;666:=#+&-6666665-%5666666666:$@&;66664=# }",
"}}}o#%%%;;:$#$++&;56665;%%;5666666&5&O#%%;;:;=#O}}",
"}}}}o#%%%&%@+@+.%%::::;%%%%;56666:X%OO%%%%%%%$O}}}",
"}}}}}X$$%%%%@. .#%%%%%&=====;4554#.  o$#$%%$#O}}}}",
"}}}}}} .%$%$%@   %%%&&-66666;%&%%       .$%X }}}}}",
"}}}}}}}}         $%%;666666666:%%          }}}}}}}",
"}}}}}}}}}}}      %%:666666666665%      .}}}}}}}}}}",
"}}}}}}}}}}}}}}   %:66666666666664#.   }}}}}}}}}}}}",
"}}}}}}}}}}}}}}}  :6666666666666664.  }}}}}}}}}}}}}",
"}}}}}}}}}}}}}}}.+66666666666666666@.}}}}}}}}}}}}}}",
"}}}}}}}}}}}}}}}.;66666666666666666;o}}}}}}}}}}}}}}",
"}}}}}}}}}}}}}}}#6666666666666666666$o}}}}}}}}}}}}}",
"}}}}}}}}}}}}}}@666666666666666666666$X}}}}}}}}}}}}",
"}}}}}}}}}}}  #66666666666666666666666%  }}}}}}}}}}"
};
