/* XPM */
static char *a_5[] = {
/* columns rows colors chars-per-pixel */
"50 46 241 2 ",
"   c #7D4A3F",
".  c #7C593F",
"X  c #7D593F",
"o  c #7D5A3F",
"O  c #7F5B3E",
"+  c #5F4C4C",
"@  c #604D4B",
"#  c #614D4B",
"$  c #624D4B",
"%  c #634E4A",
"&  c #624E4B",
"*  c #654F49",
"=  c #664F49",
"-  c #644E4A",
";  c #604C4C",
":  c #604D4C",
">  c #604D4D",
",  c #614E4D",
"<  c #624F4E",
"1  c #684B48",
"2  c #694B48",
"3  c #744A43",
"4  c #6A5147",
"5  c #6F5345",
"6  c #6C5246",
"7  c #6E5346",
"8  c #675048",
"9  c #63504E",
"0  c #64514F",
"q  c #685048",
"w  c #695048",
"e  c #735543",
"r  c #755642",
"t  c #755643",
"y  c #765642",
"u  c #765742",
"i  c #775742",
"p  c #715444",
"a  c #725544",
"s  c #735544",
"d  c #785741",
"f  c #795841",
"g  c #7C5940",
"h  c #655250",
"j  c #665350",
"k  c #675451",
"l  c #685551",
"z  c #695652",
"x  c #6A5752",
"c  c #6A5753",
"v  c #6B5853",
"b  c #6C5954",
"n  c #6D5A54",
"m  c #6E5B55",
"M  c #6F5C56",
"N  c #705D56",
"B  c #715E57",
"V  c #736058",
"C  c #73605B",
"Z  c #756259",
"A  c #76635A",
"S  c #77645A",
"D  c #77645B",
"F  c #78635B",
"G  c #78655B",
"H  c #7A675C",
"J  c #7A675D",
"K  c #7C695D",
"L  c #7C695E",
"P  c #7D6A5E",
"I  c #7E6B5F",
"U  c #7F6C5F",
"Y  c #83493D",
"T  c #875E3B",
"R  c #805B3E",
"E  c #815C3D",
"W  c #835C3C",
"Q  c #835D3C",
"!  c #825C3D",
"~  c #835C3D",
"^  c #895F3A",
"/  c #A7462D",
"(  c #AE462A",
")  c #8F6237",
"_  c #8A6039",
"`  c #8D6138",
"'  c #8C6039",
"]  c #8C6139",
"[  c #946435",
"{  c #956535",
"}  c #966534",
"|  c #976534",
" . c #986633",
".. c #996733",
"X. c #9B6732",
"o. c #9A6733",
"O. c #9D6831",
"+. c #9E6931",
"@. c #9F6931",
"#. c #95673B",
"$. c #95683C",
"%. c #A66C2D",
"&. c #A76D2D",
"*. c #AB6F2B",
"=. c #AC6F2B",
"-. c #AA6E2C",
";. c #AD702A",
":. c #AF702A",
">. c #B47327",
",. c #B77426",
"<. c #B97525",
"1. c #BA7525",
"2. c #BB7624",
"3. c #B87526",
"4. c #BC7724",
"5. c #B17129",
"6. c #B17228",
"7. c #A06A30",
"8. c #F3400D",
"9. c #F4480C",
"0. c #F4490C",
"q. c #F75C0B",
"w. c #F75D0B",
"e. c #C67B1F",
"r. c #C77B1F",
"t. c #CB7D1D",
"y. c #C87C1F",
"u. c #CC7E1D",
"i. c #CD7E1D",
"p. c #CE7F1C",
"a. c #CF7F1C",
"s. c #F8630B",
"d. c #FA7409",
"f. c #C27921",
"g. c #C37921",
"h. c #C37A21",
"j. c #C07822",
"k. c #C17922",
"l. c #C47A21",
"z. c #C67B20",
"x. c #806D60",
"c. c #816E60",
"v. c #826F61",
"b. c #837062",
"n. c #867363",
"m. c #867364",
"M. c #8A7766",
"N. c #8E7B68",
"B. c #907D6A",
"V. c #DA8417",
"C. c #DE8615",
"Z. c #DC8516",
"A. c #D0801B",
"S. c #D1801B",
"D. c #D2811A",
"F. c #D3811A",
"G. c #D2801B",
"H. c #D58219",
"J. c #D88318",
"K. c #D98318",
"L. c #EC8C0F",
"P. c #EE8D0E",
"I. c #EF8E0E",
"U. c #FD8408",
"Y. c #F08E0D",
"T. c #F28F0D",
"R. c #FE9507",
"E. c #FF9507",
"W. c #F5910B",
"Q. c #F4900C",
"!. c #FA9309",
"~. c #F8920A",
"^. c #FC9408",
"/. c #FD9408",
"(. c #FF9609",
"). c #FF970C",
"_. c #E18714",
"`. c #E28813",
"'. c #E78A11",
"]. c #E58912",
"[. c #E48913",
"{. c #E68A12",
"}. c #E28814",
"|. c #E98B11",
" X c #EA8B10",
".X c #EB8C10",
"XX c #FF9A12",
"oX c #FF9B14",
"OX c #FF9B15",
"+X c #FF9C17",
"@X c #FF9E1B",
"#X c #FFA020",
"$X c #FFA120",
"%X c #FFA224",
"&X c #FFA325",
"*X c #FFA932",
"=X c #FFAC39",
"-X c #FFAC3A",
";X c #94816C",
":X c #95826D",
">X c #99866F",
",X c #9B8871",
"<X c #9F8C73",
"1X c #A08D74",
"2X c #A18E74",
"3X c #A28F75",
"4X c #A39075",
"5X c #A59276",
"6X c #A69377",
"7X c #A79478",
"8X c #A89578",
"9X c #A99679",
"0X c #AA9779",
"qX c #AB987A",
"wX c #AC997B",
"eX c #AE9B7C",
"rX c #AF9C7C",
"tX c #B09D7D",
"yX c #B19E7E",
"uX c #B4A17F",
"iX c #FFB956",
"pX c #FFBB5B",
"aX c #FFBE60",
"sX c #FFBF62",
"dX c #FFC979",
"fX c #B6A381",
"gX c #B7A481",
"hX c #B8A582",
"jX c #FFD18B",
"kX c #FFD697",
"lX c #FFD99D",
"zX c #FFDBA0",
"xX c #FFDCA3",
"cX c #FFDEA8",
"vX c #FFDFAB",
"bX c #FFE7BC",
"nX c #FFE9C0",
"mX c #FFECC6",
"MX c #FFF3D5",
"NX c #FFF3D6",
"BX c None",
/* pixels */
"BXBXBXBXBXBXBXBXBXBXBXBXBXBXBXBXBXBXBXBXBX} E.E.3.w BXBXBXBXBXBXBXBXBXBXBXBXBXBXBXBXBXBXBXBXBXBXBXBX",
"BXBXBXBXBXBXBXBXBXBXBXBXBXBXE.E.^.p + % #.$X$X$XoXE.;.= + + 5 s C F $X#XBXBXBXBXBXBXBXBXBXBXBXBXBXBX",
"BXBXBXBXBXBXBXBXBXBXBXBXBXE.E.E.E.W.. $.iXNXNXmXaXE.E.*.q r {.E.xXMXNXbX&XE.BXBXBXBXBXBXBXBXBXBXBXBX",
"BXBXBXBXBXBXBXBXBXBXBXBXE.E.*X-X(.E.E.%XxXxXxXsXE.E.E.E.) J.E.E.E.zXcXNXvXE.K.E BXBXBXBXBXBXBXBXBXBX",
"BXBXBXBXBXBXBXBXBXBXBXBXI.=XnXlX).E.E.E.E.E.E.E.E.E.E.E.6.[.E.E.E.E.OXkXdXE.E.g.+ BXBXBXBXBXBXBXBXBX",
"BXBXBXBXBXBXBXBXBXBXBX+ H.vXNX@XE.E.E.E.E.E.E.E.E.E.E.E.E.E.E.E.E.E.E.E.E.E.L.>.o._ BXBXBXBXBXBXBXBX",
"BXBXBXBXBXBXBXBXBXBXBX .'.vXjXXXE.E.E.E.E.E.E.E.E.E.E.E.a.P.E.E.E.E.E.E.E.E.}.z.E.D.] BXBXBXBXBXBXBX",
"BXBXBXBXBXBXBXBXBXl.;.].E.pX+XE.E.E.E.E.L.y.E.E.E.E.S.5.d O.Y.E.E.^.5.4.E.E.E.E.E.E.&.BXBXBXBXBXBXBX",
"BXBXBXBXBXBXBXBXE.E.E.E.E.E.E.E.E.E.E.E.J.t e.E.E.A.o + + + ..&.~.%.8 f.E.E.E.E.E.E.J.) BXBXBXBXBXBX",
"BXBXBXBXBXBXBX2.E.E.E.E.,..XE.E.E.E.E.E.J.+ r O.O.. U :X:X:Xz +  .- r.E.E.E.E.E.E.E.E.V.' BXBXBXBXBX",
"BXBXBXBXBXBX[ `.E.E.E.E.K.@.I.E.E.E.E.E.J.+ + + + + N 4XhXhX1Xk + * E.E.E.E.E.E.E.E.E.E.Z.T BXBXBXBX",
"BXBXBXBXBX+ +.E.E.E.E.E.E.R W Q.E.E.E.|.O + A 1X1XI + m S 8XhXv + * E.E.E.E.E.E.u.h.E.E.E._.R BXBXBX",
"BXBXBXBXBX+ +.E.E.E.E.E.E.R + X !.E.P.f + + j B B l + + + n B , + * E.E.E.E.E.E.1.;.E.E.E.E.Q BXBXBX",
"BXBXBXBX+ + +.E.E.E.E.E.o.- + + t y e + + + + + + + + + + + + + + ; ~ E.E.E.E.t.6 4 k.E.E.E.Q + BXBX",
"BXBXBXBX+ + - :.E.E.E.X.& + + + + + + + + + + + n.yXyXyXyXV + + '.T.].6 6 6 6 8 + + = 6 i.E.Q + BXBX",
"BXBXBX+ + + + @ $ $ $ ; + < 0Xk + + + + + > c.fXgXhXhXfXH + + '.E.E.E.].- + + + + + + + # p.! + + BX",
"BXBXBX+ + + + + + + + + j 7XhXk + + + + , x.hXhXuXrXrXK + + +  XE.E.E.E.C.+ + + + + + + + + + + + BX",
"BXBX+ + + + + + + + + + 1XhXhXk + + + + B 0X0X0Xm.+ + + + + + F./.E.E.E.C.+ + + + + + + + + + + + BX",
"BXBX+ + + + + + + + + + 1XhX7Xj + + + + + + + + + + + + + + + + G.R.E.!.k.+ + + + + + + + + + + + BX",
"BXBX+ + + + + + + + + + N.<Xz + + + + + + + + + + + + + + + + + + a.S.j.+ + 7 ` ` ` ` p + + + + + BX",
"BX+ + + + + t | | | | | 7 + + + + + + + + + + + + + B I I k + + + + + + + 7 3.E.E.E.E.j.a + + + + BX",
"BX+ + + + r z.E.E.E.E.E.<.7.w + + + + + + + + + + + I qXhXB.b.0 + + + + + ^ E.E.E.E.E.E.{ + + + + BX",
"BX+ + + + { E.E.E.E.E.E.E.E.i + + + + + + + + + + + + P qXhXhXv + + + + + r u.E.E.E.E.G.g + + + + BX",
"BX+ + + + { E.E.E.E.E.E.E.E.i + + + + + + + + + + + + + L wXhX;X9 + + + z v.i -.-.-.-.o + + + + BXBX",
"BX+ + + + r z.E.E.E.E.E.E.E.i + + + + + b ;X;XI + + + + + J eXhXj + + k ,X1X+ + + + + + + + + + BXBX",
"BXBX+ + + + t | u.E.E.E.E.=.8 + + + k >X1XhX4XB + + + + + + G tXj + + b hX1X+ + + + + + + + + BXBXBX",
"BXBX+ + + + + + u ` ` ` ` q + + + 0 3XhXhX5XM + + + + + + + + Z , + h 3XhX1X+ + + + + + + + + BXBXBX",
"BXBX+ + + + + + + + + + + + + + + j hXhX7Xn + + + + + + + + + + + + k hXhX1X+ + + + + + + + BXBXBXBX",
"BXBXBX+ + + + + + + + + + + + + + > D 0Xc + + + + + + + + + + + + + k hX8Xx + + + + + + + + BXBXBXBX",
"BXBXBX+ + + + + + + + + + + + + + + > j + + + + + + + + + + + + + + k hX6X+ + + + + + + + BXBXBXBXBX",
"BXBXBXBX+ + + + + + + + + + + + + + , > + + + + + > , , : + + + + + k 0X< + + + + + + + + BXBXBXBXBX",
"BXBXBXBXBX+ + + + + + + + + + + + h yX2X+ + + + + M.yXyXG + + + + + + + + + + + + + + + BXBXBXBXBXBX",
"BXBXBXBXBXBX+ + + + + + + + + + + + + + + + + 1 3 3 1 + + + + + + + + + + + + + + + + BXBXBXBXBXBXBX",
"BXBXBXBXBXBXBX+ + + + + + + + + + + + + + 1   ( 9.9.(   1 + + + + + + + + + + + + + BXBXBXBXBXBXBXBX",
"BXBXBXBXBXBXBXBX+ + + + + + + + + + + + 2 / 8.0.d.d.0.8./ 2 + + + + + + + + + + + BXBXBXBXBXBXBXBXBX",
"BXBXBXBXBXBXBXBXBXBX+ + + + + + + + + + Y 8.8.s.E.E.s.8.8.Y + + + + + + + + + + BXBXBXBXBXBXBXBXBXBX",
"BXBXBXBXBXBXBXBXBXBXBXBX+ + + + + + + BXBXBXBXq.U.U.q.BXBXBXBX+ + + + + + + BXBXBXBXBXBXBXBXBXBXBXBX",
"BXBXBXBXBXBXBXBXBXBXBXBXBXBX+ + + + BXBXBXBXBXBXw.w.BXBXBXBXBXBX+ + + + BXBXBXBXBXBXBXBXBXBXBXBXBXBX",
"BXBXBXBXBXBXBXBXBXBXBXBXBXBXBXBXBXBXBXBXBXBXBXBXBXBXBXBXBXBXBXBXBXBXBXBXBXBXBXBXBXBXBXBXBXBXBXBXBXBX",
"BXBXBXBXBXBXBXBXBXBXBXBXBXBXBXBXBXBXBXBXBXBXBXBXBXBXBXBXBXBXBXBXBXBXBXBXBXBXBXBXBXBXBXBXBXBXBXBXBXBX",
"BXBXBXBXBXBXBXBXBXBXBXBXBXBXBXBXBXBXBXBXBXBXBXBXBXBXBXBXBXBXBXBXBXBXBXBXBXBXBXBXBXBXBXBXBXBXBXBXBXBX",
"BXBXBXBXBXBXBXBXBXBXBXBXBXBXBXBXBXBXBXBXBXBXBXBXBXBXBXBXBXBXBXBXBXBXBXBXBXBXBXBXBXBXBXBXBXBXBXBXBXBX",
"BXBXBXBXBXBXBXBXBXBXBXBXBXBXBXBXBXBXBXBXBXBXBXBXBXBXBXBXBXBXBXBXBXBXBXBXBXBXBXBXBXBXBXBXBXBXBXBXBXBX",
"BXBXBXBXBXBXBXBXBXBXBXBXBXBXBXBXBXBXBXBXBXBXBXBXBXBXBXBXBXBXBXBXBXBXBXBXBXBXBXBXBXBXBXBXBXBXBXBXBXBX",
"BXBXBXBXBXBXBXBXBXBXBXBXBXBXBXBXBXBXBXBXBXBXBXBXBXBXBXBXBXBXBXBXBXBXBXBXBXBXBXBXBXBXBXBXBXBXBXBXBXBX",
"BXBXBXBXBXBXBXBXBXBXBXBXBXBXBXBXBXBXBXBXBXBXBXBXBXBXBXBXBXBXBXBXBXBXBXBXBXBXBXBXBXBXBXBXBXBXBXBXBXBX"
};
