/* XPM */
static char *a_8[] = {
/* columns rows colors chars-per-pixel */
"50 37 2 1 ",
"  c #5F4C4C",
". c None",
/* pixels */
"................................     .............",
"...............................        ...........",
".............    ...............        ..........",
"...........        ................      .........",
"..........       .....................    ........",
".........      .........................  ........",
"........     ......   ............................",
"........    .....     ..   .........   ...........",
"........   .....    .....    ........   ..........",
"......... .....   ..........  ........   .........",
"..............   .......................  ...   ..",
".... .........  ......................... ....   .",
"...   ................................... .....   ",
"..   ..........................................   ",
"..   ...........................................  ",
"..  ............................................  ",
"..............................    .............. .",
"...............................   ................",
"..................................................",
".. ............................... ...............",
".   ..............................  ..............",
".    .............................. ..............",
"    .............. ...............................",
"   ..... ........  ...............................",
"   ..... ........  ...............................",
". ......  .................................... ...",
"........  ....................................  ..",
"........  ..................   ....   ........  ..",
"......... ...................  .....   .......  ..",
"..... ...  ..........................  ......   ..",
"..... .... ..................................   ..",
"..... .......................................  ...",
".....  .....................................   ...",
"......  ...................................   ....",
"................  ................ ...............",
".................  .............. ................",
".................................................."
};
