/* XPM */
static char *a_2[] = {
/* columns rows colors chars-per-pixel */
"50 48 237 2 ",
"   c #F51500",
".  c #F61C00",
"X  c #F61D00",
"o  c #F61E00",
"O  c #F61F00",
"+  c #F62000",
"@  c #F62001",
"#  c #F62101",
"$  c #F62201",
"%  c #F62301",
"&  c #F62401",
"*  c #F62501",
"=  c #F62601",
"-  c #F62701",
";  c #F62801",
":  c #F72801",
">  c #F72901",
",  c #F72A01",
"<  c #F72B01",
"1  c #F72C01",
"2  c #F72D01",
"3  c #F72E01",
"4  c #F73001",
"5  c #F73101",
"6  c #F73201",
"7  c #F73401",
"8  c #F73501",
"9  c #F73402",
"0  c #F83702",
"q  c #F83802",
"w  c #F83902",
"e  c #F83A02",
"r  c #F83B02",
"t  c #F83C02",
"y  c #F83D02",
"u  c #F83E02",
"i  c #F83F02",
"p  c #F84002",
"a  c #F94503",
"s  c #F94602",
"d  c #F94A02",
"f  c #F94B03",
"g  c #F94C03",
"h  c #F94D03",
"j  c #F94F03",
"k  c #FA4F03",
"l  c #FA5003",
"z  c #FA5103",
"x  c #FA5203",
"c  c #FA5503",
"v  c #FA5603",
"b  c #FA5703",
"n  c #FA5803",
"m  c #FA5903",
"M  c #FA5A03",
"N  c #FA5B03",
"B  c #FB5C03",
"V  c #FA5906",
"C  c #FB5C04",
"Z  c #FB5D04",
"A  c #FB5E04",
"S  c #FB5F04",
"D  c #FA5B0A",
"F  c #FB6004",
"G  c #FB6104",
"H  c #FB6204",
"J  c #FB6304",
"K  c #FB6404",
"L  c #FB6504",
"P  c #FB6604",
"I  c #FB6704",
"U  c #FB6804",
"Y  c #FC6804",
"T  c #FC6904",
"R  c #FC6A04",
"E  c #FC6B04",
"W  c #FC6C04",
"Q  c #FC6D05",
"!  c #FC6E05",
"~  c #FC6F05",
"^  c #FB6C0D",
"/  c #FC7005",
"(  c #FC7105",
")  c #FC7205",
"_  c #FC7305",
"`  c #FC7405",
"'  c #FD7505",
"]  c #FD7605",
"[  c #FD7805",
"{  c #FD7905",
"}  c #FD7A05",
"|  c #FD7B05",
" . c #FD7C05",
".. c #FD7D05",
"X. c #FD7D06",
"o. c #FD7E06",
"O. c #FD8106",
"+. c #FE8406",
"@. c #FE8606",
"#. c #FE8706",
"$. c #FE8806",
"%. c #FE8A06",
"&. c #FE8B06",
"*. c #FE8C06",
"=. c #FE8D06",
"-. c #FE8D07",
";. c #FE8E07",
":. c #FF8F07",
">. c #FE860E",
",. c #FF9007",
"<. c #FF9107",
"1. c #FF9207",
"2. c #FF9307",
"3. c #FF9407",
"4. c #FF9507",
"5. c #FF970B",
"6. c #FF990F",
"7. c #FF9910",
"8. c #FD8A23",
"9. c #FD8A24",
"0. c #FD912B",
"q. c #FD942E",
"w. c #FE9933",
"e. c #FFA325",
"r. c #FFA62C",
"t. c #FFA62D",
"y. c #FFA72E",
"u. c #FFA934",
"i. c #FFAC39",
"p. c #FFAC3A",
"a. c #FFAA3C",
"s. c #FFAD3C",
"d. c #FFAD3D",
"f. c #FFAE3D",
"g. c #FC8843",
"h. c #FC8E43",
"j. c #FD9040",
"k. c #FD9C50",
"l. c #FEA542",
"z. c #FFAF40",
"x. c #FFAF4A",
"c. c #FFB246",
"v. c #FFB247",
"b. c #FFB34A",
"n. c #FFB44A",
"m. c #FFB44B",
"M. c #FFB24E",
"N. c #FFB44C",
"B. c #FFB252",
"V. c #FFB650",
"C. c #FFB752",
"Z. c #FFB355",
"A. c #FFB855",
"S. c #FFB956",
"D. c #FFBA58",
"F. c #FFBB5D",
"G. c #FFBC5D",
"H. c #FFBC5E",
"J. c #FFBD5F",
"K. c #FC9D64",
"L. c #FCA168",
"P. c #FCA46D",
"I. c #FDAD69",
"U. c #FDAE6D",
"Y. c #FEB365",
"T. c #FFBE61",
"R. c #FFBE62",
"E. c #FFBF63",
"W. c #FEB369",
"Q. c #FEB56E",
"!. c #FEB76E",
"~. c #FDAC75",
"^. c #FFC065",
"/. c #FFC066",
"(. c #FFC269",
"). c #FFC26A",
"_. c #FFC36D",
"`. c #FFC46F",
"'. c #FFC571",
"]. c #FFC672",
"[. c #FFC673",
"{. c #FFC575",
"}. c #FFC877",
"|. c #FFC87C",
" X c #FFCA7C",
".X c #FFCC80",
"XX c #FFCD82",
"oX c #FFCD83",
"OX c #FFD28D",
"+X c #FFD28E",
"@X c #FFCF94",
"#X c #FFD390",
"$X c #FFD493",
"%X c #FFD094",
"&X c #FFD594",
"*X c #FFD696",
"=X c #FFD697",
"-X c #FFD89A",
";X c #FFD99D",
":X c #FFDAA0",
">X c #FFDBA0",
",X c #FFDCA2",
"<X c #FFDDA5",
"1X c #FFDFA9",
"2X c #FFDFAB",
"3X c #FEDFBC",
"4X c #FFE0AC",
"5X c #FFE1AF",
"6X c #FFE3B2",
"7X c #FFE3B4",
"8X c #FFE4B4",
"9X c #FFE4B5",
"0X c #FFE5B6",
"qX c #FFE5B7",
"wX c #FFE6BA",
"eX c #FFE7BB",
"rX c #FEE2BF",
"tX c #FFE7BC",
"yX c #FFE8BE",
"uX c #FEE1C4",
"iX c #FEE2C4",
"pX c #FFE9C0",
"aX c #FFE9C1",
"sX c #FFEAC3",
"dX c #FFE9C4",
"fX c #FFEBC4",
"gX c #FFECC7",
"hX c #FFEDC9",
"jX c #FFEFCD",
"kX c #FFEFCE",
"lX c #FFF0CF",
"zX c #FFF0D0",
"xX c #FFF1D1",
"cX c #FFF1D2",
"vX c #FFF2D4",
"bX c #FFF3D6",
"nX c None",
/* pixels */
"nXnXnXnXnXnXnXnXnXnXnXnXnXnXnXnXnXnXnXnXnXnXnXnX4.4.4.4.4.4.4.nXnXnXnXnXnXnXnXnXnXnXnXnXnXnXnXnXnXnX",
"nXnXnXnXnXnXnXnXnXnXnXnXnXnXnXnXnXnXnXnXnX4.4.4.4.jXjXjXjXjXjXp.4.nXnXnXnXnXnXnXnXnXnXnXnXnXnXnXnXnX",
"nXnXnXnXnXnXnXnXnXnXnXnXnXnXnXnX4.4.4.4.4.4.4.6.fXbXbXbXbXbXbXhXfXb.4.nXnXnXnXnXnXnXnXnXnXnXnXnXnXnX",
"nXnXnXnXnXnXnXnXnXnXnXnXnXnX4.V.eXeXeXeX;X4.4.7.bXbXbXbXbXbXbXbXbXfXeXD.nXnXnXnXnXnXnXnXnXnXnXnXnXnX",
"nXnXnXnXnXnXnXnXnXnXnXnXnXH.6XpXbXbXbXbXzX;X4.7.bXbXbXbXbXbXbXbXbXbXbXG.4.nXnXnXnXnXnXnXnXnXnXnXnXnX",
"nXnXnXnXnXnXnXnXnXnXnXnXR.yXbXbXbXbXbXbXbXtX4.7.bXbXbXbXbXbXbXbXbXbXbXtXk.nXnXnXnXnXnXnXnXnXnXnXnXnX",
"nXnXnXnXnXnXnXnXnXnXnX^.eXbXbXbXbXbXbXbXbXtX<.^ bXbXbXbXbXbXbXbXbXbXbXbXK.c c / nXnXnXnXnXnXnXnXnXnX",
"nXnXnXnXnXnXnXnXnXnX4.}.bXbXbXbXbXbXbXbXbXtX,.V c.bXbXbXbXbXbXbXbXbXbXbXK.c T l._.4.nXnXnXnXnXnXnXnX",
"nXnXnXnXnXnXnXnXnXnXE.9XbXbXbXbXbXbXbXbXrXg.T v E bXbXbXbXbXbXbXbXbXbXbXK.c h.4XeX+X'.nXnXnXnXnXnXnX",
"nXnXnXnXnXnXnXnXnX4..XbXbXbXbXbXbXbXbXtXx. .{ c c D.xXbXbXbXbXbXbXbXbXbXK.Y Y.bXbXbX-X4.nXnXnXnXnXnX",
"nXnXnXnXnXnXnXnXnX4.s.>XbXbXbXbX5XoXbXsX X X|.~.{ ( F.T.gXbXbXbXbXbXbXbXK.j.<XbXbXbXtX(.nXnXnXnXnXnX",
"nXnXnXnXnXnXnXnX4.4.4.d.).W.L.I._.#XbXbXbXbXbXcX[.] 3.4.H.).pXbXbXbXbX=Xw.Q.bXbXbXbXbX,X4.nXnXnXnXnX",
"nXnXnXnXnXnXnX4.4.4.4.+.] I H 0.+XbXbXbXbXbXbXbXbX).5.4.4.4.G.[.[.[.[.u.4.`.bXbXbXbXbXeXJ.nXnXnXnXnX",
"nXnXnXnXnXnXS.T.T.T.t.O.J c / A.bXbXbXbXbXbXbXbXbXbX7.4.4.C.T.T.T.e.+.{ $.`.bXbXbXbXbXbX2X4.nXnXnXnX",
"nXnXnXnXC.D.qXbXbXbXOXD.q.! o.A.bXbXbXbXbXbXbXbXbXbX7.o.M.aXbXbXbXXX9.S R !.bXbXbXbXbXbX2X4.nXnXnXnX",
"nXnXnXN.pXbXbXbXbXbXbXbX$Xy.4.A.bXbXbXbXbXbXbXbXbXbX7.N 3XbXbXbXbXbXXX8.S P.bXbXbXbXbXbXwXn.nXnXnXnX",
"nXnX4.tXbXbXbXbXbXbXbXbXbX&Xr.A.bXbXbXbXbXbXbXbXbXbX>.m 3XbXbXbXbXbXbXG...U.bXbXbXbXbXbXbX7X4.nXnXnX",
"nXnXa.sXbXbXbXbXbXbXbXbXbXbX.Xz.6XbXbXbXbXbXbXbXbX:XD c 3XbXbXbXbXbXbXG.4.`.bXbXbXbXbXbXbX7X<.nXnXnX",
"nX  uXbXbXbXbXbXbXbXbXbXbXbX.X4.f.0XbXbXbXbXbXvX1X#.b H @XlXbXbXbXbXwXm.4.D.yXbXbXbXbXbXbX7X$.4 nXnX",
"nX  uXbXbXbXbXbXbXbXbXbXbXbX.X<.;.i.6X6X6X6X6X2X4.F F <.4.*X6X6X6X6Xv.4.:.%.Z.aXbXbXbXbXlX*X4.%.  nX",
"nX= iXbXbXbXbXbXbXbXbXbXbXbX.XX.R 4.4.4.4.4.4.4.4.4.4.4.;.=.=.2.4.4.4.,.~ c ~ B.eXfXbXlX*X4.4.*.= nX",
"  ,.8XvXbXbXbXbXbXbXbXbXbXkX{.{ Y <.4.4.4.4.4.4.4.4.4.,.B M N @.4.4.4._ N N n Q 1.c.dX%X<.4.4.4.,.  ",
"  ,.4.8XjXvXbXbXbXbXbXxXjX].} c c I 1.1.2.4.4.4.4.4.1.M b &.4.4.4.4.4.4.4.4.{ b W 1.O.n L 4.4.4.,.  ",
"  ,.4.4.4.2XbXbXbXbXbX/.4.4.} c c c c c F 4.4.4.4.4.n c -.4.4.4.4.4.4.4.4.4.4.} c c U 4.4.4.4.4.,.  ",
"  x ,.4.4.4.4.4.4.4.4.4.4.[ c Q 4.4.4.4.%.Z 4.4.4.c c ,.4.4.4.4.4.4.4.4.4.4.4.} c R 4.4.4.4.4.4.,.  ",
"  x ,.4.4.4.4.4.4.4.4.4.] b ~ 2.4.4.4.4.4.2.4.4.4.c c ,.4.4.4.4.4.4.4.4.4.4.4.} W 2.4.4.4.4.4.4.,.  ",
"  x M ;.4.4.4.4.4.4.4.' n / 1.4.4.4.4.4.4.4.,.N N c -.4.4.4.4.4.4.4.4.4.4.4.} n Q 4.4.4.4.4.4.,.n   ",
"nXX l B *.4.4.4.4.k s m c ) 4.4.4.4.4.4.4.4.3.%.c c 1.4.4.4.4.4.4.4.4.4.4.4.A 8 Q 4.4.4.4.4.4.,.x   ",
"nX  l c A F $.4.4.a e c c ) 4.4.4.4.4.4.4.4.4.1.c c 1.4.4.4.4.4.4.4.4.4.4.} u 4 Q 4.4.4.4.4.;.S x   ",
"nXnX% j c c S J J 6 X u c ) 4.4.4.4.4.4.4.4.<.H c c H <.4.4.4.4.4.4.4.4.4.C . 4 M ` 4.4.4.=.G z % nX",
"nXnXnX* h c c c c 2   q c ) 4.4.4.4.4.4.4.4.,.c c c c K :.4.4.4.4.4.4.4.| y   4 c N P P P J c l   nX",
"nXnXnXnX- : d c 0 .   + i A | 4.4.4.4.4.4.:.I c c c c c P Y *.4.4.4.{ Y s O   X w c c c c c k ; nXnX",
"nXnXnXnXnXnX> < .       @ u A | 4.4.4.*.E Y c c c c c c c c I E E E Z y O       X w c c g < , nXnXnX",
"nXnXnXnXnXnXnXnX          @ u A ! ! ! T c c n  . . .b c c c c c c c y O           X 3 3 1 nXnXnXnXnX",
"nXnXnXnXnXnXnXnXnXnXnX      # u c c c c N { | 4.4.4.} { M c c c r 5 O           nXnXnXnXnXnXnXnXnXnX",
"nXnXnXnXnXnXnXnXnXnXnXnXnX    @ 7 y c B | 4.4.4.4.4.4.4.} N c t o     nXnXnXnXnXnXnXnXnXnXnXnXnXnXnX",
"nXnXnXnXnXnXnXnXnXnXnXnXnXnX      O u H 4.4.4.4.4.4.4.4.4.F y X     nXnXnXnXnXnXnXnXnXnXnXnXnXnXnXnX",
"nXnXnXnXnXnXnXnXnXnXnXnXnXnXnXnX    * H 4.4.4.4.4.4.4.4.4.F $   nXnXnXnXnXnXnXnXnXnXnXnXnXnXnXnXnXnX",
"nXnXnXnXnXnXnXnXnXnXnXnXnXnXnXnXnXnX% j 4.4.4.4.4.4.4.4.4.f # nXnXnXnXnXnXnXnXnXnXnXnXnXnXnXnXnXnXnX",
"nXnXnXnXnXnXnXnXnXnXnXnXnXnXnXnXnXnXnX4 4.4.4.4.4.4.4.4.4., nXnXnXnXnXnXnXnXnXnXnXnXnXnXnXnXnXnXnXnX",
"nXnXnXnXnXnXnXnXnXnXnXnXnXnXnXnXnXnXnX4 4.4.4.4.4.4.4.4.4., nXnXnXnXnXnXnXnXnXnXnXnXnXnXnXnXnXnXnXnX",
"nXnXnXnXnXnXnXnXnXnXnXnXnXnXnXnXnXnXnX4 4.4.4.4.4.4.4.4.4., nXnXnXnXnXnXnXnXnXnXnXnXnXnXnXnXnXnXnXnX",
"nXnXnXnXnXnXnXnXnXnXnXnXnXnXnXnXnXnXnX4 4.4.4.4.4.4.4.4.4., nXnXnXnXnXnXnXnXnXnXnXnXnXnXnXnXnXnXnXnX",
"nXnXnXnXnXnXnXnXnXnXnXnXnXnXnXnXnXnXnXq 4.4.4.4.4.4.4.4.4.9 nXnXnXnXnXnXnXnXnXnXnXnXnXnXnXnXnXnXnXnX",
"nXnXnXnXnXnXnXnXnXnXnXnXnXnXnXnXnXnX- T 4.4.4.4.4.4.4.4.4.I & nXnXnXnXnXnXnXnXnXnXnXnXnXnXnXnXnXnXnX",
"nXnXnXnXnXnXnXnXnXnXnXnXnXnXnXnXnXnXy 4.4.4.4.4.4.4.4.4.4.4.q nXnXnXnXnXnXnXnXnXnXnXnXnXnXnXnXnXnXnX",
"nXnXnXnXnXnXnXnXnXnXnXnXnXnXnXnXnXu 4.4.4.4.4.4.4.4.4.4.4.4.4.w nXnXnXnXnXnXnXnXnXnXnXnXnXnXnXnXnXnX",
"nXnXnXnXnXnXnXnXnXnXnXnXnXnXnX  p 4.4.4.4.4.4.4.4.4.4.4.4.4.4.4.e   nXnXnXnXnXnXnXnXnXnXnXnXnXnXnXnX"
};
