/* XPM */
static char *a_4[] = {
/* columns rows colors chars-per-pixel */
"48 50 237 2 ",
"   c #7D5A3F",
".  c #5F4C4C",
"X  c #6D4D45",
"o  c #604C4B",
"O  c #614D4B",
"+  c #624E4B",
"@  c #664F49",
"#  c #644E4A",
"$  c #784D40",
"%  c #6A5147",
"&  c #6D5346",
"*  c #6E5346",
"=  c #6F5445",
"-  c #685048",
";  c #695048",
":  c #735543",
">  c #854E3A",
",  c #804E3C",
"<  c #855E3B",
"1  c #875E3B",
"2  c #815B3D",
"3  c #885F3A",
"4  c #8A5F3A",
"5  c #AD5127",
"6  c #8F6237",
"7  c #8B6039",
"8  c #8A603A",
"9  c #8C6138",
"0  c #8D6138",
"q  c #916336",
"w  c #906337",
"e  c #926336",
"r  c #936436",
"t  c #946435",
"y  c #976634",
"u  c #996633",
"i  c #996733",
"p  c #9A6732",
"a  c #9B6832",
"s  c #9C6831",
"d  c #9D6831",
"f  c #9C6832",
"g  c #AA6E2B",
"h  c #AF7129",
"j  c #AD702A",
"k  c #B47327",
"l  c #B57327",
"z  c #B67426",
"x  c #B77426",
"c  c #B97525",
"v  c #BA7525",
"b  c #B87526",
"n  c #BD7724",
"m  c #B07129",
"M  c #A16A30",
"N  c #C2521E",
"B  c #ED5409",
"V  c #F75504",
"C  c #FA5503",
"Z  c #F95504",
"A  c #FA5903",
"S  c #FA5A03",
"D  c #FA5B03",
"F  c #FB5D03",
"G  c #FB5D04",
"H  c #C97C1E",
"J  c #C97D1E",
"K  c #CD7E1C",
"L  c #CC7E1D",
"P  c #CD7E1D",
"I  c #CE7F1C",
"U  c #CF7F1C",
"Y  c #FB6104",
"T  c #FB6204",
"R  c #FB6304",
"E  c #FB6404",
"W  c #FB6504",
"Q  c #FB6604",
"!  c #FC6904",
"~  c #FC6B04",
"^  c #FC6C04",
"/  c #FC6D04",
"(  c #FC6E05",
")  c #FC6F05",
"_  c #FC7105",
"`  c #FC7205",
"'  c #FC7305",
"]  c #FC7405",
"[  c #FC7505",
"{  c #FD7505",
"}  c #FD7605",
"|  c #FD7705",
" . c #FD7805",
".. c #FD7A05",
"X. c #FD7B05",
"o. c #FD7C05",
"O. c #FD7D06",
"+. c #FD7E06",
"@. c #FD7F06",
"#. c #C27921",
"$. c #C07822",
"%. c #C47A20",
"&. c #C57A20",
"*. c #C57B20",
"=. c #C67B20",
"-. c #DB8516",
";. c #DE8615",
":. c #DF8715",
">. c #DC8516",
",. c #D1801B",
"<. c #D3811A",
"1. c #D58219",
"2. c #ED8D0F",
"3. c #EF8D0E",
"4. c #FD8006",
"5. c #FD8106",
"6. c #FE8206",
"7. c #FE8406",
"8. c #FE8506",
"9. c #FE8906",
"0. c #FE8A06",
"q. c #FE8B06",
"w. c #FE8C06",
"e. c #FE8D06",
"r. c #FE8D07",
"t. c #FF8F07",
"y. c #F08E0D",
"u. c #F28F0C",
"i. c #F08E0E",
"p. c #FF9007",
"a. c #FF9107",
"s. c #FF9207",
"d. c #FF9307",
"f. c #FE9407",
"g. c #FF9507",
"h. c #F5900B",
"j. c #F6910B",
"k. c #F3900C",
"l. c #F99209",
"z. c #FA9209",
"x. c #FB9309",
"c. c #F8920A",
"v. c #FC9308",
"b. c #FD9408",
"n. c #FF9609",
"m. c #FF980E",
"M. c #E08714",
"N. c #E18714",
"B. c #E38813",
"V. c #E78A11",
"C. c #E68912",
"Z. c #E68A12",
"A. c #E28814",
"S. c #E98B10",
"D. c #E88A11",
"F. c #E98B11",
"G. c #EA8B10",
"H. c #FD841B",
"J. c #FD841D",
"K. c #FF9911",
"L. c #FF9A12",
"P. c #FF9B14",
"I. c #FF9B15",
"U. c #FF9D18",
"Y. c #FF9D19",
"T. c #FF9E1A",
"R. c #FF9F1E",
"E. c #FFA01E",
"W. c #FF9D23",
"Q. c #FE9C30",
"!. c #FFA223",
"~. c #FFA024",
"^. c #FFA224",
"/. c #FFA326",
"(. c #FFA427",
"). c #FFA429",
"_. c #FFA52B",
"`. c #FFA62D",
"'. c #FFA934",
"]. c #FFAA36",
"[. c #FFAF3F",
"{. c #FEA140",
"}. c #FFAF40",
"|. c #FEAB4C",
" X c #FFB043",
".X c #FFB54D",
"XX c #FFB64F",
"oX c #FFB752",
"OX c #FFBA59",
"+X c #FFBD5E",
"@X c #FFC065",
"#X c #FFC167",
"$X c #FFC168",
"%X c #FFC26A",
"&X c #FFC46F",
"*X c #FFC570",
"=X c #FFC572",
"-X c #FEC076",
";X c #FFC774",
":X c #FFC775",
">X c #FFCA7C",
",X c #FFCA7D",
"<X c #FFCD83",
"1X c #FFCE84",
"2X c #FFCF87",
"3X c #FFD089",
"4X c #FFD18B",
"5X c #FFD18C",
"6X c #FFD390",
"7X c #FFD798",
"8X c #FFD89A",
"9X c #FFD89B",
"0X c #FFD99D",
"qX c #FFD99E",
"wX c #FFDCA3",
"eX c #FFDEA7",
"rX c #FFE1AE",
"tX c #FFE2B0",
"yX c #FFE2B1",
"uX c #FFE3B3",
"iX c #FFE4B6",
"pX c #FFE7BB",
"aX c #FFE8BD",
"sX c #FFE8BF",
"dX c #FFE9C0",
"fX c #FFEAC3",
"gX c #FFEDC8",
"hX c #FFEDC9",
"jX c #FFEDCA",
"kX c #FFEFCD",
"lX c #FFEFCE",
"zX c #FFF0D0",
"xX c #FFF1D1",
"cX c #FFF1D2",
"vX c #FFF3D5",
"bX c #FFF3D6",
"nX c None",
/* pixels */
"nXnXnXnXnXnXnXnXnXnXnXnXnXnXnXnXnXY.T.U.g.g.g.g.g.g.nXnXnXnXnXnXnXnXnXnXnXnXnXnXnXnXnXnXnXnXnXnX",
"nXnXnXnXnXnXnXnXnXnXnXnXnXnXnX).`.uXbXhX`.!.g.g.g.g.g./.`.`.`.`.`.(.nXnXnXnXnXnXnXnXnXnXnXnXnXnX",
"nXnXnXnXnXnXnXnXnXnXnXnXnXnX'.8XbXbXbXbXbXrX_.g.g.g.g.uXbXbXbXbXbX5X[._.nXnXnXnXnXnXnXnXnXnXnXnX",
"nXnXnXnXnXnXnXnXnXnXnXg.g.g.*XbXbXbXbXbXbXbX5Xg.g.g.g.;XzXbXbXbXbXbXbX,X).nXnXnXnXnXnXnXnXnXnXnX",
"nXnXnXnXnXnXnXnXnX$XOXg.g.9.{.yXbXbXbXbXbXaXXXg.g.g.g.g.&X<XbXbXbXbXbXbX].W nXnXnXnXnXnXnXnXnXnX",
"nXnXnXnXnXnXnX#XgXbXjX+X0.Q } }.@XsXbXkX@X|.` ` 8.g.X.` ' L.@X2XbXbXbX3XH.A | g.g.nXnXnXnXnXnXnX",
"nXnXnXnXnXnXg.wXbXbXbXeX4.C Y ^ 9. XoX.Xg.t.) C T ^ D | +.g.g.R.oXoXoXJ...+.m.4X4X%XnXnXnXnXnXnX",
"nXnXnXnXnXnX:XgXbXbXbXeX4.C / 7.p.g.g.9X1Xg.t.( C C | s.g.U.qX*Xg.g.g.9.a.g.9XbXbXfX$XnXnXnXnXnX",
"nXnXnXnXnXg.6XbXbXbXdX^.4.~ t.g.g.g.0XvXzX1Xg. .C | s.g.g.E.bX7Xg.g.g.g.g.g.lXbXbXbX>XnXnXnXnXnX",
"nXnXnXnXnXg.6XbXbXbXpXg.d.s.g.g.g.g.U.cXiXI.g. .[ d.g.g.g.n.T.P.g.g.g.g.g.R ~.bXbXbX>XnXnXnXnXnX",
"nXnXnXnXnXg.<XxXbXaXg.g.g.g.g.g.g.g.g.g.g.g.g. . .g.g.g.g.g.g.g.g.g.g.g.p.F e.W.gXzX=Xg.nXnXnXnX",
"nXnXnXnXnXg.g.2XtXK.g.g.g.g.g.g.g.g.g.g.g.g.g.O.O.g.g.g.g.g.g.g.g.g.g.r.Y C C F Q.-Xg.g.nXnXnXnX",
"nXnXnXnXnXg.g.g.g.g.g.g.g.g.g.g.g.g.g.g.g.g.g.g.g.g.g.g.g.g.g.g.g.G.2.{ Q Q Q E C W q.g.K nXnXnX",
"nXnXnXnX,.g.g.g.g.g.g.p.8.g.g.g.g.g.g.g.g.g.g.g.g.g.g.U =.g.g.g.D.h 1.g.g.g.g.t.^ E _ g.$.  nXnX",
"nXnXnX. 3 :.g.g.g.g.g.r.]  . . . . . . . . .6.g.g.g.J * O z z z t j g.g.g.g.g.g.g.9.5.g.g.9 nXnX",
"nXnXnX. 3 :.g.g.g.g.g.g.w.! C C C C C |  . .6.g.g.g.J z l . . . . j g.g.g.g.g.g.g.g.g.g.g.9 . nX",
"nXnX. < M.g.g.g.g.g.g.g.g.q.! C C { +.g.g.g.g.g.g.g.g.g.f.&.m . . j g.g.g.g.g.g.g.>.*.g.$.= . nX",
"nXnX. a g.g.g.g.g.g.g.g.g.g.] C { a.g.g.g.g.g.g.g.g.g.g.g.g.j.m . j g.g.g.g.g.g.g.y.k 7 = . . . ",
"nXnX. a g.g.g.g.g.g.g.g.g.g.] [ a.g.g.g.g.g.g.g.g.g.g.g.g.g.g.U . & H g.g.g.g.g.g.g.u.d . . . . ",
"nX. . a g.g.g.g.g.g.g.g.g.g.] o.g.g.g.g.g.g.g.g.g.g.g.g.g.g.g.x.x . - * ;.g.g.g.g.g.$.@ . . . . ",
"nX. . a g.g.g.g.g.g.g.g.g.g.c.l.g.g.g.g.g.g.g.g.g.g.g.g.g.g.g.g.$.. . . % * z.g.-.; . . . . . . ",
". . . w i.g.g.g.g.g.g.g.g.g.j $.g.g.g.g.g.g.g.g.g.g.g.g.g.g.g.g.$.. . : N.g.g.g.g.<.= . . . . . ",
". . . . g g.g.g.g.g.g.g.g.g.j $.g.g.g.g.g.g.g.g.g.g.g.g.g.g.g.g.$.. . L g.g.g.g.g.g.v . . . . . ",
". . . . 6 C.g.g.g.g.g.g.g.V.q s 2.g.g.g.g.g.g.g.g.g.g.g.g.g.g.g.$.. . L g.g.g.g.g.g.v . . . . . ",
". . . . . w Z.g.g.g.g.g.g.n . . f i.g.g.g.g.g.g.g.g.g.g.g.g.g.S.t . . p 3.g.g.g.g.Z.w . . . . nX",
"nX. . . . . 6 G.g.g.g.g.B.4 . . . u h.g.g.g.g.g.g.g.g.g.g.g.2.e . . . . y k.g.g.G.6 . . . . . nX",
"nXnX. . . . . 7 i l.g.D.1 . . . . . r M g.g.g.g.g.g.g.g.b.i 0 . . . . . . e i i 7 . . . . . nXnX",
"nXnXnX. . . . . . 3 7 2 . . . . . . . + 7 7 7 7 7 7 7 7 8 . . . . . . . c <.P . . . . . . . nXnX",
"nXnXnXnX. . . . . . . . . . . . . . . . . . . . . . . . . . . . . . . b c.g.b.I . . . . . nXnXnX",
"nXnXnXnXnX. . . . . . . . . . . . . . . . . . . . . . . . . . . . . . L g.g.g.V.. . . . . nXnXnX",
"nXnXnXnXnX. . . . . . . . . . . . . . o X X X X X X X X o . . . . . . #.v.g.F.. . . . . nXnXnXnX",
"nXnXnXnXnXnX. . . . . . . . . . . . $ > C C C C C C C C > $ . . . . . . %.A.# . . . . nXnXnXnXnX",
"nXnXnXnXnXnXnX. . . . . . . . . . , B C C C C C C C C C C B , . . . . . . . . . . . nXnXnXnXnXnX",
"nXnXnXnXnXnXnXnX. . . . . . . . . 5 N Z C C G ^ ^ G C C Z N 5 . . . . . . . . . nXnXnXnXnXnXnXnX",
"nXnXnXnXnXnXnXnXnXnXnX. . . . . . . . V C F @.g.g.@.F C V . . . . . . . . . nXnXnXnXnXnXnXnXnXnX",
"nXnXnXnXnXnXnXnXnXnXnXnXnXnXnXnXnXnXnXnXnXT @.g.g.@.T nXnXnXnXnXnXnXnXnXnXnXnXnXnXnXnXnXnXnXnXnX",
"nXnXnXnXnXnXnXnXnXnXnXnXnXnXnXnXnXnXnXnXnXnX^ g.g.^ nXnXnXnXnXnXnXnXnXnXnXnXnXnXnXnXnXnXnXnXnXnX",
"nXnXnXnXnXnXnXnXnXnXnXnXnXnXnXnXnXnXnXnXnXnXY o.o.Y nXnXnXnXnXnXnXnXnXnXnXnXnXnXnXnXnXnXnXnXnXnX",
"nXnXnXnXnXnXnXnXnXnXnXnXnXnXnXnXnXnXnXnXnXnXnX` ` nXnXnXnXnXnXnXnXnXnXnXnXnXnXnXnXnXnXnXnXnXnXnX",
"nXnXnXnXnXnXnXnXnXnXnXnXnXnXnXnXnXnXnXnXnXnXnXS S nXnXnXnXnXnXnXnXnXnXnXnXnXnXnXnXnXnXnXnXnXnXnX",
"nXnXnXnXnXnXnXnXnXnXnXnXnXnXnXnXnXnXnXnXnXnXnXnXnXnXnXnXnXnXnXnXnXnXnXnXnXnXnXnXnXnXnXnXnXnXnXnX",
"nXnXnXnXnXnXnXnXnXnXnXnXnXnXnXnXnXnXnXnXnXnXnXnXnXnXnXnXnXnXnXnXnXnXnXnXnXnXnXnXnXnXnXnXnXnXnXnX",
"nXnXnXnXnXnXnXnXnXnXnXnXnXnXnXnXnXnXnXnXnXnXnXnXnXnXnXnXnXnXnXnXnXnXnXnXnXnXnXnXnXnXnXnXnXnXnXnX",
"nXnXnXnXnXnXnXnXnXnXnXnXnXnXnXnXnXnXnXnXnXnXnXnXnXnXnXnXnXnXnXnXnXnXnXnXnXnXnXnXnXnXnXnXnXnXnXnX",
"nXnXnXnXnXnXnXnXnXnXnXnXnXnXnXnXnXnXnXnXnXnXnXnXnXnXnXnXnXnXnXnXnXnXnXnXnXnXnXnXnXnXnXnXnXnXnXnX",
"nXnXnXnXnXnXnXnXnXnXnXnXnXnXnXnXnXnXnXnXnXnXnXnXnXnXnXnXnXnXnXnXnXnXnXnXnXnXnXnXnXnXnXnXnXnXnXnX",
"nXnXnXnXnXnXnXnXnXnXnXnXnXnXnXnXnXnXnXnXnXnXnXnXnXnXnXnXnXnXnXnXnXnXnXnXnXnXnXnXnXnXnXnXnXnXnXnX",
"nXnXnXnXnXnXnXnXnXnXnXnXnXnXnXnXnXnXnXnXnXnXnXnXnXnXnXnXnXnXnXnXnXnXnXnXnXnXnXnXnXnXnXnXnXnXnXnX",
"nXnXnXnXnXnXnXnXnXnXnXnXnXnXnXnXnXnXnXnXnXnXnXnXnXnXnXnXnXnXnXnXnXnXnXnXnXnXnXnXnXnXnXnXnXnXnXnX",
"nXnXnXnXnXnXnXnXnXnXnXnXnXnXnXnXnXnXnXnXnXnXnXnXnXnXnXnXnXnXnXnXnXnXnXnXnXnXnXnXnXnXnXnXnXnXnXnX"
};
