/* XPM */
static char *a_7[] = {
/* columns rows colors chars-per-pixel */
"50 38 28 1 ",
"  c #5F4C4C",
". c #6A4B47",
"X c #654B49",
"o c #664B49",
"O c #604C4B",
"+ c #634C4A",
"@ c #634C4B",
"# c #644C4A",
"$ c #694B48",
"% c #8F4837",
"& c #974734",
"* c #994733",
"= c #9C4732",
"- c #954835",
"; c #A3462F",
": c #A7462D",
"> c #AB462B",
", c #AD462B",
"< c #A14730",
"1 c #A04731",
"2 c #ED400F",
"3 c #EF400F",
"4 c #F3400D",
"5 c #E44113",
"6 c #E04215",
"7 c #EB4110",
"8 c #E84112",
"9 c None",
/* pixels */
"999999999999999999999999999999    O+++999999999999",
"999999999999   99999999999999     -34,@99999999999",
"99999999999$..#  99999999999999    *82; 9999999999",
"9999999999X>75& 999999999999999999   <= 9999999999",
"999999999o<61  999999999999999999999     999999999",
"99999999 %:   999999999999999999999999   999999999",
"99999999     99999        9999999999999  999999999",
"9999999     9999            99999   99999999999999",
"9999999    999               99999    999999999999",
"9999999   999           99    99999    99999999999",
"99999999 9999        999999999999999    999    999",
"999999999999       999999999999999999   9999    99",
"999  9999999     999999999999999999999   9999   99",
"99   9999999    99999999999999999999999  9999    9",
"9   99999999   9999999999999999999999999 99999   9",
"9   99999999  99999999999999999999999999999999   9",
"99 9999999999999999999999999999999999999999999   9",
"999999999999999999999999999      9999999999999  99",
"99999999999999999999999999999     999999999999  99",
"9   999999999999999999999999999    999999999999999",
"9    999999999999999999999999999   999999999999999",
"     9999999999999  9999999999999   99999999999999",
"    999  99999999   99999999999999  99999999999999",
"    999  9999999   9999999999999999999999999  9999",
"    999  999999   99999999999999999999999999  9999",
"9  9999   99999  999999999999999999999999999   999",
"9999999   999999999999999    999999 9999999    999",
"9999 99   99999999999999      99999  999999    999",
"9999  99  9999999999999999     9999   99999    999",
"9999  999  999999999999999999  99999  9999    9999",
"9999   99999999999999999999999999999  9999    9999",
"99999  999999999999999999999999999999 999    99999",
"99999   99999999999999999999999999999999    999999",
"999999   9999   9999999999999999999999999  9999999",
"9999999999999      99999999999999  999999999999999",
"9999999999999        99999999999   999999999999999",
"99999999999999     9999999999999  9999999999999999",
"99999999999999999999999999999999999999999999999999"
};
