/* XPM */
static char *_0007[] = {
/* columns rows colors chars-per-pixel */
"32 32 198 2 ",
"   c #000000",
".  c #010100",
"X  c #010101",
"o  c #020202",
"O  c #030303",
"+  c #040404",
"@  c #050504",
"#  c #050505",
"$  c #060506",
"%  c #060606",
"&  c #070707",
"*  c #000109",
"=  c #00000D",
"-  c #02040D",
";  c #080808",
":  c #090909",
">  c #0A0A0A",
",  c #0B0B0B",
"<  c #0D0C08",
"1  c #0D0B0C",
"2  c #0C0C0C",
"3  c #0D0C0C",
"4  c #0D0D0D",
"5  c #0F0D0E",
"6  c #0E0E0E",
"7  c #0F0F0F",
"8  c #110E0F",
"9  c #10100F",
"0  c #07091A",
"q  c #070A1E",
"w  c #0F1211",
"e  c #0F1017",
"r  c #101010",
"t  c #111111",
"y  c #121211",
"u  c #111112",
"i  c #121212",
"p  c #131313",
"a  c #101412",
"s  c #151314",
"d  c #101515",
"f  c #141414",
"g  c #151414",
"h  c #141415",
"j  c #151515",
"k  c #161515",
"l  c #171516",
"z  c #141716",
"x  c #161616",
"c  c #171616",
"v  c #171717",
"b  c #181817",
"n  c #171718",
"m  c #191718",
"M  c #171919",
"N  c #141C1D",
"B  c #181818",
"V  c #191819",
"C  c #191919",
"Z  c #1A1819",
"A  c #19191A",
"S  c #1B191A",
"D  c #1A1A1A",
"F  c #1B1B1A",
"G  c #1B1B1B",
"H  c #1C191A",
"J  c #1D1A1B",
"K  c #1C1B1B",
"L  c #1F1A1A",
"P  c #1F1A1C",
"I  c #1F1B1C",
"U  c #1C1C1C",
"Y  c #1C1C1D",
"T  c #1D1D1D",
"R  c #1D1E1D",
"E  c #1E1E1C",
"W  c #1E1E1E",
"Q  c #1F1F1F",
"!  c #221E1E",
"~  c #221E1F",
"^  c #291C1A",
"/  c #17231F",
"(  c #1C211F",
")  c #1D211F",
"_  c #20201F",
"`  c #080B20",
"'  c #00052D",
"]  c #04092D",
"[  c #17192A",
"{  c #000638",
"}  c #1F2020",
"|  c #1D2220",
" . c #1F2027",
".. c #202020",
"X. c #212120",
"o. c #202121",
"O. c #212121",
"+. c #212222",
"@. c #222222",
"#. c #232223",
"$. c #232323",
"%. c #242323",
"&. c #222725",
"*. c #242424",
"=. c #242525",
"-. c #252525",
";. c #262625",
":. c #262626",
">. c #272727",
",. c #282828",
"<. c #282829",
"1. c #292929",
"2. c #2A2A29",
"3. c #282B2B",
"4. c #2A2A2A",
"5. c #2C2C2C",
"6. c #2D2D2C",
"7. c #2D2D2D",
"8. c #2E2E2E",
"9. c #2F2F2F",
"0. c #23263D",
"q. c #2C3734",
"w. c #2D3835",
"e. c #2E3936",
"r. c #2C3D38",
"t. c #303030",
"y. c #313130",
"u. c #313131",
"i. c #323232",
"p. c #333333",
"a. c #343433",
"s. c #343434",
"d. c #363636",
"f. c #373737",
"g. c #373939",
"h. c #3B393A",
"j. c #3A3A3A",
"k. c #4F0E0E",
"l. c #5A0C0C",
"z. c #431713",
"x. c #41403D",
"c. c #000743",
"v. c #000942",
"b. c #020943",
"n. c #000944",
"m. c #030B47",
"M. c #3F3F40",
"N. c #364742",
"B. c #324F46",
"V. c #344F46",
"C. c #384A44",
"Z. c #3F544D",
"A. c #3E554E",
"S. c #424242",
"D. c #444442",
"F. c #404745",
"G. c #474747",
"H. c #494748",
"J. c #444A48",
"K. c #4C4C4C",
"L. c #4E4E4E",
"P. c #48534F",
"I. c #50504F",
"U. c #494B58",
"Y. c #4E5754",
"T. c #565656",
"R. c #585857",
"E. c #585858",
"W. c #5F5F5F",
"Q. c #45675D",
"!. c #4E6B62",
"~. c #407464",
"^. c #417968",
"/. c #477868",
"(. c #407C6A",
"). c #467E6C",
"_. c #4B7E6E",
"`. c #517E70",
"'. c #686867",
"]. c #6E6E6E",
"[. c #717170",
"{. c #98300B",
"}. c #C93D07",
"|. c #FF4D03",
" X c #FF4E02",
".X c #4D8473",
"XX c #548173",
"oX c #548475",
"OX c #558476",
"+X c #568879",
"@X c #4C917C",
"#X c #4F9781",
"$X c #559381",
"%X c #599180",
"&X c #54A58C",
"*X c #5AB69A",
"=X c #62B99F",
"-X c None",
/* pixels */
"-X-X-X-X-X-X-X-X-X-X-X-X-X-X-X  p -Xn.-X-X-X-X-X-X-X-X-X-X-X-X-X",
"-X-X-X-X-X-X-X-X-X-X-X-X-X` b F 5.- c.-X-X-X-X-X-X-X-X-X-X-X-X-X",
"-X-X-X-X-X-X-X-X-X-X-X-X{ [ a.p.8.D  .x.-X-X-X-X-X-X-X-X-X-X-X-X",
"-X-X-X-X-X-X-X-X-X-X-X-Xm.* 5.$.1.A s.'.I.-X-X-X-X-X-X-X-X-X-X-X",
"-X-X-X-X-X-X-X-X-X-X-X-X-X  D G G u.u U.M.-X-X-X-X-X-X-X-X-X-X-X",
"-X-X-X-X-X-X-X-Xf i -X-X-X# B $.U T h 0 -X-X-X-X-X-X-X-X-X-X-X-X",
"-X-X-X-X-X-X-X  @.@.-X-X  > W W G Q y _ G.L.-X-X-X-X-X-X-X-X-X-X",
"-X-X-X-X-X-X-XX x f & -X  r @.G T U g @.].E.-X-X-X-X-X-X-X-X-X-X",
"-X-X-X  & 6 -XO j Q v -X& W Q D G ..B o   -X-X-X-X-X-X-X-X-X-X-X",
"-X-X-X-X@.6 4 , G C k i p f B K U V k 4 , 2 -X-X-X-X-X-X-X-X-X-X",
"-X-X-X-X3.7 j r i x k 7 4 D p P _.OXg.#.v > -X-X-X-X-X-X-X-X-X-X",
"|.}.z.k.M ; r B U C y 4 W C Q ~ (.XXJ.d.*.> +       -X-X-X-X-X-X",
" X{.^ N o.>.C v Q x Q i 6 i G a /.P.S.4 , # ; o F C U -X-X-X-X-X",
"-X-Xl.L @.9.j W v ..8...j B 4 3 w J j.6.O.x > @ + 2 x + -X-X-X-X",
"-X-X-X! : x 7 -.t 4.8.6.Y r x o.-.Q i G $.U > : + -X-X-X-X-X-X-X",
"-X-Xd =.6 p B @.i 4.5.*.n , :.7.6.5.G V T x t # c I -X-X-X-X-X-X",
"-X  r p 4 p p D B A C r G i o.7.7.8.4.r 2 ..%.m w.C.( -X-X-X-X-X",
"-X-X; -Xo , x x f 2 r t 7 4 f -.1.:.R 4 7 4.z B.&XoXQ.R 8 -X-X-X",
"-X-X-X-X  r @.i C 4 C B :.5 / r p i v U x ..) ~.*X$X=X^.A.-X-X-X",
"-X-X-X-X# x G G r t 7 W f } ).F.H.,.@.$.c B l r.`.%X@X.XZ.s p -X",
"-X-X-X  B O.7 -X-Xr x x Z N.#X!.i.U Q Q 4 % $ +.e.q.o.| &.g -X-X",
"-X-X-X-Xx W -X-X  r ..G S V.+XY.h.j > > : ; # -X-X1 -X-X-X-X-X-X",
"-X-X-X-X-X-X-X-X  r @.G F m H C 1..., + + & o   -X-X-X-X-X-X-X-X",
"-X-X-X-X-X-X-X-Xo j $.D T Q j 4 t > 2 O   f O.W : -X-X-X-X-X-X-X",
"-X-X-X-X-X-X-X-X% D O.F W A j     2 -X-X-X    -X+ -X-X-X-X-X-X-X",
"-X-X-X-X-X-Xb.= F T Q G Q 6 @.W.K.-X-X-X-X-X-X-X-X-X-X-X-X-X-X-X",
"-X-X-X-X-X-X] ;.f.T G t.9 e t.T.L.-X-X-X-X-X-X-X-X-X-X-X-X-X-X-X",
"-X-X-X-X-X-Xq E 9.u.1.W <.0.-X-X-X-X-X-X-X-X-X-X-X-X-X-X-X-X-X-X",
"-X-X-X-X-X-X-X@ @.2.A X.R.[.y.-X-X-X-X-X-X-X-X-X-X-X-X-X-X-X-X-X",
"-X-X-X-X-X-X-X-Xx < ' -XD.-X-X-X-X-X-X-X-X-X-X-X-X-X-X-X-X-X-X-X",
"-X-X-X-X-X-X-X-X  -Xn.-X-X-X-X-X-X-X-X-X-X-X-X-X-X-X-X-X-X-X-X-X",
"-X-X-X-X-X-X-X-X. -Xv.-X-X-X-X-X-X-X-X-X-X-X-X-X-X-X-X-X-X-X-X-X"
};
