/* XPM */
static char *_0006[] = {
/* columns rows colors chars-per-pixel */
"32 32 111 2 ",
"   c black",
".  c #010101",
"X  c #020202",
"o  c #030303",
"O  c #040404",
"+  c #050505",
"@  c #040406",
"#  c #060606",
"$  c #080707",
"%  c #080808",
"&  c #090909",
"*  c #0A0A0A",
"=  c #0B0B0B",
"-  c #0C0A0B",
";  c #0C0C0C",
":  c #0D0D0D",
">  c #0F0F0F",
",  c #100E0F",
"<  c #0D1110",
"1  c #101010",
"2  c #111111",
"3  c #121112",
"4  c #111212",
"5  c #121212",
"6  c #131313",
"7  c #141414",
"8  c #151515",
"9  c #151517",
"0  c #151616",
"q  c #161616",
"w  c #171717",
"e  c #181717",
"r  c #171718",
"t  c #15161A",
"y  c #1A1718",
"u  c #181818",
"i  c #191919",
"p  c #1A1A1A",
"a  c #1B1B1B",
"s  c #181C1C",
"d  c #1C1C1C",
"f  c #1C1D1D",
"g  c #1D1D1D",
"h  c #1E1E1D",
"j  c #1D1F1E",
"k  c #1E1E1E",
"l  c #1E1F1F",
"z  c #1F1F1F",
"x  c #221B1B",
"c  c #251B1C",
"v  c #201E1F",
"b  c #1C211F",
"n  c #20201E",
"m  c #020622",
"M  c #050923",
"N  c #03082F",
"B  c #00073D",
"V  c #202020",
"C  c #212121",
"Z  c #222222",
"A  c #232323",
"S  c #242424",
"D  c #252525",
"F  c #262525",
"G  c #262626",
"H  c #272B2A",
"J  c #282828",
"K  c #292929",
"L  c #2B2B2B",
"P  c #282D2D",
"I  c #2C2C2C",
"U  c #2D2D2D",
"Y  c #2E2E2E",
"T  c #2F3130",
"R  c #313131",
"E  c #323232",
"W  c #343434",
"Q  c #373737",
"!  c #383836",
"~  c #393938",
"^  c #3A3A39",
"/  c #3A3A3A",
"(  c #3B3B3B",
")  c #531E11",
"_  c #790202",
"`  c #2C403A",
"'  c #020940",
"]  c #000944",
"[  c #385049",
"{  c #3C514A",
"}  c #404443",
"|  c #474746",
" . c #474747",
".. c #4A4949",
"X. c #505050",
"o. c #545353",
"O. c #536962",
"+. c #457666",
"@. c #51756A",
"#. c #52756A",
"$. c #53796D",
"%. c #7F7F7F",
"&. c #F94A03",
"*. c #40816D",
"=. c #4E8676",
"-. c #458974",
";. c #7F7F81",
":. c #5AB99C",
">. c #62B199",
",. c #67BBA2",
"<. c None",
/* pixels */
"<.<.<.<.<.<.<.<.<.<.<.<.O <.] <.<.<.<.<.<.<.<.<.<.<.<.<.<.<.<.<.",
"<.<.<.<.<.<.<.<.<.<.<.O K @ B <.<.<.<.<.<.<.<.<.<.<.<.<.<.<.<.<.",
"<.<.<.<.<.<.<.<.<.m r z W n t ! X.<.<.<.<.<.<.<.<.<.<.<.<.<.<.<.",
"<.<.<.<.<.<.<.<.<.N K / Y U w | ;.^ <.<.<.<.<.<.<.<.<.<.<.<.<.<.",
"<.<.<.<.<.<.<.<.<.' @ I q d R @ M <.<.<.<.<.<.<.<.<.<.<.<.<.<.<.",
"<.<.<.<.<.<.<.<.<.<.  7 C k g h 9 ~ X.<.<.<.<.<.<.<.<.<.<.<.<.<.",
"<.<.<.<.<.<.<.<.<.<.  5 A p g g #  .%.( <.<.<.<.<.<.<.<.<.<.<.<.",
"<.<.<.<.<.<.5 <.<.<.  5 A p k d i X + <.<.<.<.<.<.<.<.<.<.<.<.<.",
"<.<.<.<.<.X J z <.<.  6 Z p a V 8 ; * ; <.<.<.<.<.<.<.<.<.<.<.<.",
"<.<.<.<.<.  u 7 & <.X g g p y b v 3 g * = .   .   <.<.<.<.<.<.<.",
"<.<.<.<.<.  2 k k > 5 6 7 p H >.O...Q a O O X V C V o <.<.<.<.<.",
"<.<.  : <.X > Z 2 p : > k 1 L -.@.T % = % = O .   X <.<.<.<.<.<.",
"<.<.. D O q * 7 w 3 : z u K 4 +.} o.E S z * = # <.<.<.<.<.<.<.<.",
"<.<.<.P > 6 u d i 8 > ; 5 ; - < , 8 8 C Z 6 # $ C f 3 <.<.<.<.<.",
"<.<._ x & 3 2 D 2 G J 2 d 6 6 S G F 2 d p q F e [ #.{ j u <.<.<.",
"&.) c s G I : G 1 U Y J r ; S Y U Y J 2 * K 0 ` :.=.,.*.$.l 7 <.",
"&.) c s G I : G 1 U Y J r ; S Y U Y J 2 * K 0 ` :.=.,.*.$.l 7 <.",
"<.<._ x & 3 2 D 2 G J 2 d 6 6 S G F 2 d p q F e [ #.{ j u <.<.<.",
"<.<.<.P > 6 u d i 8 > ; 5 ; - < , 8 8 C Z 6 # $ C f 3 <.<.<.<.<.",
"<.<.. D O q * 7 w 3 : z u K 4 +.} o.E S z * = # <.<.<.<.<.<.<.<.",
"<.<.  : <.X > Z 2 p : > k 1 L -.@.T % = % = O .   X <.<.<.<.<.<.",
"<.<.<.<.<.  2 k k > 5 6 7 p H >.O...Q a O O X V C V o <.<.<.<.<.",
"<.<.<.<.<.  u 7 & <.X g g p y b v 3 g * = .   .   <.<.<.<.<.<.<.",
"<.<.<.<.<.X J z <.<.  6 Z p a V 8 ; * ; <.<.<.<.<.<.<.<.<.<.<.<.",
"<.<.<.<.<.<.5 <.<.<.  5 A p k d i X + <.<.<.<.<.<.<.<.<.<.<.<.<.",
"<.<.<.<.<.<.<.<.<.<.  5 A p g g #  .%.( <.<.<.<.<.<.<.<.<.<.<.<.",
"<.<.<.<.<.<.<.<.<.<.  7 C k g h 9 ~ X.<.<.<.<.<.<.<.<.<.<.<.<.<.",
"<.<.<.<.<.<.<.<.<.' @ I q d R @ M <.<.<.<.<.<.<.<.<.<.<.<.<.<.<.",
"<.<.<.<.<.<.<.<.<.N K / Y U w | ;.^ <.<.<.<.<.<.<.<.<.<.<.<.<.<.",
"<.<.<.<.<.<.<.<.<.m r z W n t ! X.<.<.<.<.<.<.<.<.<.<.<.<.<.<.<.",
"<.<.<.<.<.<.<.<.<.<.<.O K @ B <.<.<.<.<.<.<.<.<.<.<.<.<.<.<.<.<.",
"<.<.<.<.<.<.<.<.<.<.<.<.O <.] <.<.<.<.<.<.<.<.<.<.<.<.<.<.<.<.<."
};
