/* XPM */
static char *_0000[] = {
/* columns rows colors chars-per-pixel */
"32 32 111 2 ",
"   c black",
".  c #010101",
"X  c #020202",
"o  c #030303",
"O  c #040404",
"+  c #050505",
"@  c #040406",
"#  c #060606",
"$  c #080707",
"%  c #080808",
"&  c #090909",
"*  c #0A0A0A",
"=  c #0B0B0B",
"-  c #0C0A0B",
";  c #0C0C0C",
":  c #0D0D0D",
">  c #0F0F0F",
",  c #100E0F",
"<  c #0D1110",
"1  c #101010",
"2  c #111111",
"3  c #121112",
"4  c #111212",
"5  c #121212",
"6  c #131313",
"7  c #141414",
"8  c #151515",
"9  c #151517",
"0  c #151616",
"q  c #161616",
"w  c #171717",
"e  c #181717",
"r  c #171718",
"t  c #15161A",
"y  c #1A1718",
"u  c #181818",
"i  c #191919",
"p  c #1A1A1A",
"a  c #1B1B1B",
"s  c #181C1C",
"d  c #1C1C1C",
"f  c #1C1D1D",
"g  c #1D1D1D",
"h  c #1E1E1D",
"j  c #1D1F1E",
"k  c #1E1E1E",
"l  c #1E1F1F",
"z  c #1F1F1F",
"x  c #221B1B",
"c  c #251B1C",
"v  c #201E1F",
"b  c #1C211F",
"n  c #20201E",
"m  c #020622",
"M  c #050923",
"N  c #03082F",
"B  c #00073D",
"V  c #202020",
"C  c #212121",
"Z  c #222222",
"A  c #232323",
"S  c #242424",
"D  c #252525",
"F  c #262525",
"G  c #262626",
"H  c #272B2A",
"J  c #282828",
"K  c #292929",
"L  c #2B2B2B",
"P  c #282D2D",
"I  c #2C2C2C",
"U  c #2D2D2D",
"Y  c #2E2E2E",
"T  c #2F3130",
"R  c #313131",
"E  c #323232",
"W  c #343434",
"Q  c #373737",
"!  c #383836",
"~  c #393938",
"^  c #3A3A39",
"/  c #3A3A3A",
"(  c #3B3B3B",
")  c #531E11",
"_  c #790202",
"`  c #2C403A",
"'  c #020940",
"]  c #000944",
"[  c #385049",
"{  c #3C514A",
"}  c #404443",
"|  c #474746",
" . c #474747",
".. c #4A4949",
"X. c #505050",
"o. c #545353",
"O. c #536962",
"+. c #457666",
"@. c #51756A",
"#. c #52756A",
"$. c #53796D",
"%. c #7F7F7F",
"&. c #F94A03",
"*. c #40816D",
"=. c #4E8676",
"-. c #458974",
";. c #7F7F81",
":. c #5AB99C",
">. c #62B199",
",. c #67BBA2",
"<. c None",
/* pixels */
"<.<.<.<.<.<.<.<.<.<.<.<.<.<.<.<.<.<.<.<.<.<.<.<.<.<.<.<.<.<.<.<.",
"<.<.<.<.<.<.<.<.<.<.<.<.<.<.<.7 7 <.<.<.<.<.<.<.<.<.<.<.<.<.<.<.",
"<.<.<.<.<.<.<.<.<.<.<.<.<.<.<.l l <.<.<.<.<.<.<.<.<.<.<.<.<.<.<.",
"<.<.<.<.<.<.<.<.<.<.<.<.<.<.u $.$.u <.<.<.<.<.<.<.<.<.<.<.<.<.<.",
"<.<.<.<.<.<.<.<.<.<.<.<.<.<.j *.*.j <.<.<.<.<.<.<.<.<.<.<.<.<.<.",
"<.<.<.<.<.<.<.<.<.<.o <.<.3 { ,.,.{ 3 <.<.o <.<.<.<.<.<.<.<.<.<.",
"<.<.<.<.<.<.<.<.<.<.V X <.f #.=.=.#.f <.X V <.<.<.<.<.<.<.<.<.<.",
"<.<.<.<.<.<.<.<.<.  C   <.C [ :.:.[ C <.  C   <.<.<.<.<.<.<.<.<.",
"<.<.<.<.<.<.<.<.<.. V . # $ e ` ` e $ # . V . <.<.<.<.<.<.<.<.<.",
"<.<.<.<.<.<.<.<.<.  X O = # F 0 0 F # = O X   <.<.<.<.<.<.<.<.<.",
"<.<.<.<.<.<.<.<.<.. O = * 6 q K K q 6 * = O . <.<.<.<.<.<.<.<.<.",
"<.<.<.<.<.<.<.<.<.= O % z Z p * * p Z z % O = <.<.<.<.<.<.<.<.<.",
"<.<.<.<.<.<.( <.; * a = S C d 2 2 d C S = a * ; <.( <.<.<.<.<.<.",
"<.<.<.<.<.X.%.+ * g Q % E 8 2 J J 2 8 E % Q g * + %.X.<.<.<.<.<.",
"<.<.<.^ <.~  .X ; 3 ..T o.8 F Y Y F 8 o.T ..3 ; X  .~ <.^ <.<.<.",
"<.<.X.;.M 9 # i 8 v O.@.} , G U U G , } @.O.v 8 i # 9 M ;.X.<.<.",
"<.<.! | @ h g d V b >.-.+.< S Y Y S < +.-.>.b V d g h @ | ! <.<.",
"] B t w R g g k a y H L 4 - 6 D D 6 - 4 L H y a k g g R w t B ] ",
"<.@ n U d k p p p p p 1 K ; 6 ; ; 6 ; K 1 p p p p p k d U n @ <.",
"O K W Y q C A A Z g 7 k u 5 d r r d 5 u k 7 g Z A A C q Y W K O ",
"<.O z / I 7 5 5 6 g 6 > z ; 2 J J 2 ; z > 6 g 6 5 5 7 I / z O <.",
"<.<.r K @         X 5 : : > J Y Y J > : : 5 X         @ K r <.<.",
"<.<.m N ' <.<.<.<.<.> p 3 8 G U U G 8 3 p > <.<.<.<.<.' N m <.<.",
"<.<.<.<.<.<.<.<.<.& k 2 w i 2 1 1 2 i w 2 k & <.<.<.<.<.<.<.<.<.",
"<.<.<.<.<.<.<.<.z 7 k Z 7 d D G G D d 7 Z k 7 z <.<.<.<.<.<.<.<.",
"<.<.<.<.<.<.<.5 J u 2 > * u 2 : : 2 u * > 2 u J 5 <.<.<.<.<.<.<.",
"<.<.<.<.<.<.<.<.X     X q 6 3 I I 3 6 q X     X <.<.<.<.<.<.<.<.",
"<.<.<.<.<.<.<.<.<.<.<.<.O > & G G & > O <.<.<.<.<.<.<.<.<.<.<.<.",
"<.<.<.<.<.<.<.<.<.<.<.: F P x s s x P F : <.<.<.<.<.<.<.<.<.<.<.",
"<.<.<.<.<.<.<.<.<.<.<.  . <._ c c _ <..   <.<.<.<.<.<.<.<.<.<.<.",
"<.<.<.<.<.<.<.<.<.<.<.<.<.<.<.) ) <.<.<.<.<.<.<.<.<.<.<.<.<.<.<.",
"<.<.<.<.<.<.<.<.<.<.<.<.<.<.<.&.&.<.<.<.<.<.<.<.<.<.<.<.<.<.<.<."
};
