/* XPM */
static char *_0008[] = {
/* columns rows colors chars-per-pixel */
"32 32 198 2 ",
"   c #000000",
".  c #010100",
"X  c #010101",
"o  c #020202",
"O  c #030303",
"+  c #010104",
"@  c #000006",
"#  c #040404",
"$  c #050505",
"%  c #060606",
"&  c #070707",
"*  c #00000A",
"=  c #080808",
"-  c #090909",
";  c #0A0A0A",
":  c #0B0B0B",
">  c #0C0A0B",
",  c #0C0C0C",
"<  c #0D0D0D",
"1  c #0F0D0E",
"2  c #0E0E0E",
"3  c #0F0E0E",
"4  c #0F0F0F",
"5  c #120D0E",
"6  c #10100F",
"7  c #070910",
"8  c #070811",
"9  c #0E101E",
"0  c #101010",
"q  c #111010",
"w  c #111011",
"e  c #111111",
"r  c #121210",
"t  c #121112",
"y  c #131112",
"u  c #121212",
"i  c #131212",
"p  c #131313",
"a  c #151012",
"s  c #151413",
"d  c #111414",
"f  c #131414",
"g  c #141414",
"h  c #151415",
"j  c #151515",
"k  c #161615",
"l  c #161616",
"z  c #171717",
"x  c #191617",
"c  c #181717",
"v  c #131A17",
"b  c #15161C",
"n  c #191718",
"m  c #1A1718",
"M  c #171819",
"N  c #151D1F",
"B  c #181818",
"V  c #191919",
"C  c #1A1819",
"Z  c #1B1919",
"A  c #1B191A",
"S  c #191B1A",
"D  c #1A1A1A",
"F  c #1B1B1B",
"G  c #1C1A1B",
"H  c #1C1B1B",
"J  c #1E1A1B",
"K  c #1C1C1B",
"L  c #1D1D1B",
"P  c #191A1F",
"I  c #1C1B1C",
"U  c #191C1C",
"Y  c #1A1D1C",
"T  c #1A1D1D",
"R  c #1C1C1C",
"E  c #1C1C1D",
"W  c #1D1D1D",
"Q  c #1E1D1C",
"!  c #1E1E1D",
"~  c #1E1D1E",
"^  c #1E1E1E",
"/  c #1F1E1F",
"(  c #1F1F1F",
")  c #241919",
"_  c #201F1F",
"`  c #381515",
"'  c #3A1616",
"]  c #371916",
"[  c #1D201F",
"{  c #000421",
"}  c #010521",
"|  c #040825",
" . c #000429",
".. c #0A0E2F",
"X. c #1F1F20",
"o. c #050B31",
"O. c #050A35",
"+. c #202020",
"@. c #212121",
"#. c #222222",
"$. c #232323",
"%. c #242324",
"&. c #242424",
"*. c #252525",
"=. c #262524",
"-. c #262625",
";. c #242726",
":. c #262626",
">. c #272727",
",. c #222927",
"<. c #212A27",
"1. c #222E2A",
"2. c #252F2C",
"3. c #292928",
"4. c #292929",
"5. c #2A2A2A",
"6. c #2B2B2B",
"7. c #292D2D",
"8. c #292F2D",
"9. c #2C2C2C",
"0. c #2D2D2D",
"q. c #2F2D2E",
"w. c #2D2E2F",
"e. c #2E2E2E",
"r. c #2F2F2F",
"t. c #2A312F",
"y. c #2D3734",
"u. c #2A3A35",
"i. c #303030",
"p. c #313131",
"a. c #323232",
"s. c #343433",
"d. c #343434",
"f. c #363635",
"g. c #393939",
"h. c #383F3D",
"j. c #7B0101",
"k. c #5C2010",
"l. c #403E3F",
"z. c #34413D",
"x. c #000942",
"c. c #000944",
"v. c #000945",
"b. c #000847",
"n. c #030B47",
"m. c #000748",
"M. c #000948",
"N. c #2F3246",
"B. c #2D4C42",
"V. c #344640",
"C. c #3C4341",
"Z. c #344842",
"A. c #3C514A",
"S. c #3E564F",
"D. c #335D50",
"F. c #3C6559",
"G. c #3E665A",
"H. c #3C695B",
"J. c #454344",
"K. c #464645",
"L. c #474747",
"P. c #4A4849",
"I. c #4A4A4A",
"U. c #4C4C4B",
"Y. c #4C4C4C",
"T. c #4F4F4F",
"R. c #4A5451",
"E. c #485652",
"W. c #415952",
"Q. c #475A54",
"!. c #505050",
"~. c #565656",
"^. c #5E5E5E",
"/. c #4F7166",
"(. c #457E6C",
"). c #507C6E",
"_. c #646463",
"`. c #656565",
"'. c #737478",
"]. c #7C7C7C",
"[. c #F34904",
"{. c #FE4C03",
"}. c #FF4C03",
"|. c #FF4E02",
" X c #49816F",
".X c #458672",
"XX c #4F8877",
"oX c #538575",
"OX c #578576",
"+X c #508C7A",
"@X c #4C937D",
"#X c #5D9584",
"$X c #5A9A87",
"%X c #5FA38E",
"&X c #5FA892",
"*X c #59B096",
"=X c #5DBFA2",
"-X c None",
/* pixels */
"-X-X-X-X-X-X-X-X-X-X-X-X-X-X-X-X-X-X-X-X  -X-Xx.-X-X-X-X-X-X-X-X",
"-X-X-X-X-X-X-X-X-X-X-X-X-X-X-X-X .9 s t ^ -Xc.-X-X-X-X-X-X-X-X-X",
"-X-X-X-X-X-X-X-X-X-X-X-X-X-X-X-XO.3.i.a.Q { m.-X-X-X-X-X-X-X-X-X",
"-X-X-X-X-X-X-X-X-X-X-X-X-X-X-X-X* L p.r.-.b -X-X-X-X-X-X-X-X-X-X",
"-X-X-X-X-X-X-X-X-X-XX $.V -X-X-XX V B R @.4.Y.Y.-X-X-X-X-X-X-X-X",
"-X-X-X-X-X-X  - -X  ; ( R -X-X  , W #.^ 0.M '.U.-X-X-X-X-X-X-X-X",
"{.{.-X-X-X-Xz z -X. 0 B , -X-X# l $.F D ! 8 | -X-X-X-X-X-X-X-X-X",
"{.{.|.-X-X-X7.; t : F @.F -X  p ( / R ^ D 6 s.-X-X-X-X-X-X-X-X-X",
"-X}.[.k.' ` d < j < z u z t p W ^ D F W B ~ `.^.-X-X-X-X-X-X-X-X",
"-X-X-X] N T R p p R V l p , 2 g D A x ~ j   d.I.-X-X-X-X-X-X-X-X",
"-X-X-Xj.) #.i.+.p &.j l , B D D j 8.G._ 4 ;   -X-X-X-X-X-X-X-X-X",
"-X-X-X-XU , $.2 #.z F >.j 4 j >.J F.%XR.*.D : -X-X-X-X-X-X-X-X-X",
"-X-Xo 4.t 4 e B $.u 0.e.D j 0 t v  X/.C.g.>.; ; -X-X-X-X-X-X-X-X",
"-X-X% g & z z ( j +.r.e.:.V g 4 < <.J.l.& q % O     -X-X-X-X-X-X",
"-X-X-X-XX : 2 B B / 4.( E , l ( *.c z 9.:.g - & # 4   -X-X-X-X-X",
"-X-X-X-XO p +.j p < 2 0 F 4 *.0.9.5.D j #.@.: = # F @.-X-X-X-X-X",
"-X-X-X  e V +.g z 2 F u 2 0 ( 0.e.e.#.V ( F : - O   : ; -X-X-X-X",
"-X-X-Xi &.p g 0 u : D ^ I > y :.6.6.@., u z V $ h -X-X-X-X-X-X-X",
"-X-X-Xg +.-X-X-X4 i F e m B.1.w D u l & $./ @.Y t.D -X-X-X-X-X-X",
"-X-X-X-X-X-X-X  j W B Z z..XE.P.( F +.l &.f u.@X).W.S -X-X-X-X-X",
"-X-X-X-X-X-X  $ z @.D G +X#XQ.q.5.&.$.l ( +.H.=XXX$X2.5 -X-X-X-X",
"-X-X-X-X-X-X  0 +.~ V C [ h.I.%.; j l : $ 3 Z.oX&X*X(.V.-X-X-X-X",
"-X-X-X-Xn.@ = V #.D ~ ( V q F 6.j $ : ; = i ;.A.S.D.OXy.h -X-X-X",
"-X-X-X-X..6 :.^ ( F / D j = 2 : ; O # #   -X-X1 B a ,.n g -X-X-X",
"-X-X-X} P f.r.l +./ +.$ $.;   < -XX   V B O -X-X-X-X-X-X-X-X-X-X",
"-X-X-X-Xr $.a.e.>.k 7 X.!.].-X-X-X-X  o g ( # -X-X-X-X-X-X-X-X-X",
"-X-X-X-X  $.=.K H L.N.-XK.T.-X-X-X-X-X-X-X-X-X-X-X-X-X-X-X-X-X-X",
"-X-X-X-X-X2 + o.w.~._.-X-X-X-X-X-X-X-X-X-X-X-X-X-X-X-X-X-X-X-X-X",
"-X-X-X-XX -XM.b.-X-X-X-X-X-X-X-X-X-X-X-X-X-X-X-X-X-X-X-X-X-X-X-X",
"-X-X-X-X. -Xx.-X-X-X-X-X-X-X-X-X-X-X-X-X-X-X-X-X-X-X-X-X-X-X-X-X",
"-X-X-XX -Xv.x.-X-X-X-X-X-X-X-X-X-X-X-X-X-X-X-X-X-X-X-X-X-X-X-X-X",
"-X-XX . -Xx.-X-X-X-X-X-X-X-X-X-X-X-X-X-X-X-X-X-X-X-X-X-X-X-X-X-X"
};
