/* XPM */
static char *_0009[] = {
/* columns rows colors chars-per-pixel */
"32 32 128 2 ",
"   c black",
".  c #010101",
"X  c #020202",
"o  c #030303",
"O  c #050505",
"+  c #060606",
"@  c #070707",
"#  c #080808",
"$  c #090908",
"%  c #090909",
"&  c #0A0A0A",
"*  c #0B0B0B",
"=  c #0C0B0B",
"-  c #0D0D08",
";  c #0C0B0C",
":  c #0D0B0C",
">  c #0C0C0C",
",  c #0D0D0D",
"<  c #0E0D0E",
"1  c #0E0E0E",
"2  c #0F0F0F",
"3  c #070917",
"4  c #00041D",
"5  c #101010",
"6  c #111111",
"7  c #121111",
"8  c #131111",
"9  c #121112",
"0  c #121212",
"q  c #131213",
"w  c #131313",
"e  c #101414",
"r  c #141414",
"t  c #151414",
"y  c #151515",
"u  c #161616",
"i  c #171716",
"p  c #171717",
"a  c #141817",
"s  c #151519",
"d  c #171718",
"f  c #171719",
"g  c #14151B",
"h  c #17171A",
"j  c #181818",
"k  c #191919",
"l  c #1A1818",
"z  c #1B1819",
"x  c #1A191A",
"c  c #1A1A1A",
"v  c #1B1A1A",
"b  c #1B1B1B",
"n  c #1C191A",
"m  c #1D1B1B",
"M  c #1D1B1C",
"N  c #1B1E1D",
"B  c #1C1C1C",
"V  c #1D1D1D",
"C  c #1E1E1E",
"Z  c #1F1F1F",
"A  c #3C1915",
"S  c #060B2B",
"D  c #181E20",
"F  c #02083A",
"G  c #1F2523",
"H  c #1F2624",
"J  c #1A2924",
"K  c #202020",
"L  c #212121",
"P  c #202322",
"I  c #222222",
"U  c #232323",
"Y  c #252425",
"T  c #252525",
"R  c #262626",
"E  c #2F2525",
"W  c #282827",
"Q  c #242B29",
"!  c #272C2B",
"~  c #282828",
"^  c #292929",
"/  c #2A2A2A",
"(  c #2D2D2D",
")  c #2E2E2E",
"_  c #2F2F2F",
"`  c #29332F",
"'  c #2F3533",
"]  c #303030",
"[  c #313131",
"{  c #333331",
"}  c #343434",
"|  c #353534",
" . c #363636",
".. c #373739",
"X. c #3B3B3B",
"o. c #3E3E3E",
"O. c #700405",
"+. c #3D403F",
"@. c #000744",
"#. c #000942",
"$. c #3B3C44",
"%. c #3C534C",
"&. c #3C685A",
"*. c #3E7665",
"=. c #3E7967",
"-. c #474747",
";. c #4E4E4E",
":. c #4A5652",
">. c #445E55",
",. c #555354",
"<. c #5E5E5E",
"1. c #45635A",
"2. c #4C645C",
"3. c #4F7468",
"4. c #6D6D6D",
"5. c #787878",
"6. c #8A2B0C",
"7. c #FD4C03",
"8. c #FE4C03",
"9. c #FF4D03",
"0. c #528D7B",
"q. c #549380",
"w. c #579381",
"e. c #509480",
"r. c #599784",
"t. c #54A68D",
"y. c #6AC6AA",
"u. c None",
/* pixels */
"8.8.u.u.u.u.u.u.u.u.u.u.u.u.u.u.u.u.u.u.u.u.u.u.u.u.. u.u.#.u.u.",
"8.8.8.u.u.u.u.u.u.u.u.u.u.u.u.u.u.u.u.u.u.u.u.u.u.. u.u.#.u.u.u.",
"u.8.8.8.u.u.u.u.u.u.u.u.u.u.u.u.u.u.u.u.S s $ % o u.u.#.u.u.u.u.",
"u.u.8.8.8.u.u.u.u.. @ u.u.  c 0 u.u.u.F g { R ] - u.#.u.u.u.u.u.",
"u.u.u.8.9.7.u.u.u.K 5 u.  1 Y Z u.u.u.  i } [ W 3 @.u.u.u.u.u.u.",
"u.u.u.u.7.6.A O.E V O + # y y 1 u.u.  # c p U L h u.u.u.u.u.u.u.",
"u.u.u.u.u.A D m e > r 2 r L C & u.  % p U Z R T X.-.u.u.u.u.u.u.",
"u.u.u.u.u.O.m L U 0 r y r r u , X > p U V b Z > $.5.u.u.u.u.u.u.",
"u.u.u.u.u.E e U ] u u Z c y j 6 r C K V b C K f 4 ..u.u.u.u.u.u.",
"u.u.u.. K V > 0 u 6 R y j 6 > 1 6 r b c B B 5 7 | u.u.u.u.u.u.u.",
"u.u.u.@ 5 O r r u R r c ^ k 2 V V w m v n B u [ 4.;.u.u.u.u.u.u.",
"u.u.u.u.u.+ 2 y Z y c _ ) B , 0 R l ' q.Q y % X <. .u.u.u.u.u.u.",
"u.u.u.u.  # r r c j ^ ) ) L B 2 9 a *.r.:.j 5 O u.u.u.u.u.u.u.u.",
"u.u.u.  1 y L r y 6 k B L d 2 0 < J 1.2.+.o.b & u.u.u.u.u.u.u.u.",
"u.u.u.c Y y C u j > 2 , B 2 r I I 8 M ,.x p k * u.u.u.u.u.u.u.u.",
"u.u.u.0 Z 1 & , 6 1 V 0 2 0 I ) ( ~ u I / 2 + o . u.u.u.u.u.u.u.",
"u.u.u.u.u.u.u.X r 6 V R 9 < I ( ) ( k y U K > # . X u.u.u.u.u.u.",
"u.u.u.u.u.u.  > C r w l a J 8 ~ ( _ Z b L b % @ & K o u.u.u.u.u.",
"u.u.u.u.u.  % p K b m ' *.1.M u k Z 2 * u w + %   2 U u.u.u.u.u.",
"u.u.u.F   # p U V c v q.r.2.,.I y b * k T Y ; = u.  > X u.u.u.u.",
"u.u.S g i c U V b B n Q :.+.x / U L u T q G H ! z u.u.u.u.u.u.u.",
"u.u.s { } p Z b C B B y j o.p 2 K b w Y G &.t.3.` : u.u.u.u.u.u.",
"u.u.$ R [ U R Z K 5 u % 5 b k + > % + ; H t.e.w.%.u.u.u.u.u.u.u.",
"u.u.% ] W L T > f 7 [ X O & * o # @ % = ! 3.w.y.=.N u.u.u.u.u.u.",
"u.u.o - 3 h X.$.4 | 4.<.u.u.u.. . &   u.z ` %.=.0.>.u.u.u.u.u.u.",
"u.. u.u.@.u.-.5...u.;. .u.u.u.u.X K 2   u.: u.N >.P t u.u.u.u.u.",
". u.u.#.u.u.u.u.u.u.u.u.u.u.u.u.u.o U > u.u.u.u.u.t w u.u.u.u.u.",
"u.u.#.u.u.u.u.u.u.u.u.u.u.u.u.u.u.u.u.X u.u.u.u.u.u.u.u.u.u.u.u.",
"u.#.u.u.u.u.u.u.u.u.u.u.u.u.u.u.u.u.u.u.u.u.u.u.u.u.u.u.u.u.u.u.",
"#.u.u.u.u.u.u.u.u.u.u.u.u.u.u.u.u.u.u.u.u.u.u.u.u.u.u.u.u.u.u.u.",
"u.u.u.u.u.u.u.u.u.u.u.u.u.u.u.u.u.u.u.u.u.u.u.u.u.u.u.u.u.u.u.u.",
"u.u.u.u.u.u.u.u.u.u.u.u.u.u.u.u.u.u.u.u.u.u.u.u.u.u.u.u.u.u.u.u."
};
