/* XPM */
static char *_0013[] = {
/* columns rows colors chars-per-pixel */
"32 32 198 2 ",
"   c #000000",
".  c #010100",
"X  c #010101",
"o  c #020202",
"O  c #030303",
"+  c #040404",
"@  c #050504",
"#  c #050505",
"$  c #060506",
"%  c #060606",
"&  c #070707",
"*  c #000109",
"=  c #00000D",
"-  c #02040D",
";  c #080808",
":  c #090909",
">  c #0A0A0A",
",  c #0B0B0B",
"<  c #0D0C08",
"1  c #0D0B0C",
"2  c #0C0C0C",
"3  c #0D0C0C",
"4  c #0D0D0D",
"5  c #0F0D0E",
"6  c #0E0E0E",
"7  c #0F0F0F",
"8  c #110E0F",
"9  c #10100F",
"0  c #07091A",
"q  c #070A1E",
"w  c #0F1211",
"e  c #0F1017",
"r  c #101010",
"t  c #111111",
"y  c #121211",
"u  c #111112",
"i  c #121212",
"p  c #131313",
"a  c #101412",
"s  c #151314",
"d  c #101515",
"f  c #141414",
"g  c #151414",
"h  c #141415",
"j  c #151515",
"k  c #161515",
"l  c #171516",
"z  c #141716",
"x  c #161616",
"c  c #171616",
"v  c #171717",
"b  c #181817",
"n  c #171718",
"m  c #191718",
"M  c #171919",
"N  c #141C1D",
"B  c #181818",
"V  c #191819",
"C  c #191919",
"Z  c #1A1819",
"A  c #19191A",
"S  c #1B191A",
"D  c #1A1A1A",
"F  c #1B1B1A",
"G  c #1B1B1B",
"H  c #1C191A",
"J  c #1D1A1B",
"K  c #1C1B1B",
"L  c #1F1A1A",
"P  c #1F1A1C",
"I  c #1F1B1C",
"U  c #1C1C1C",
"Y  c #1C1C1D",
"T  c #1D1D1D",
"R  c #1D1E1D",
"E  c #1E1E1C",
"W  c #1E1E1E",
"Q  c #1F1F1F",
"!  c #221E1E",
"~  c #221E1F",
"^  c #291C1A",
"/  c #17231F",
"(  c #1C211F",
")  c #1D211F",
"_  c #20201F",
"`  c #080B20",
"'  c #00052D",
"]  c #04092D",
"[  c #17192A",
"{  c #000638",
"}  c #1F2020",
"|  c #1D2220",
" . c #1F2027",
".. c #202020",
"X. c #212120",
"o. c #202121",
"O. c #212121",
"+. c #212222",
"@. c #222222",
"#. c #232223",
"$. c #232323",
"%. c #242323",
"&. c #222725",
"*. c #242424",
"=. c #242525",
"-. c #252525",
";. c #262625",
":. c #262626",
">. c #272727",
",. c #282828",
"<. c #282829",
"1. c #292929",
"2. c #2A2A29",
"3. c #282B2B",
"4. c #2A2A2A",
"5. c #2C2C2C",
"6. c #2D2D2C",
"7. c #2D2D2D",
"8. c #2E2E2E",
"9. c #2F2F2F",
"0. c #23263D",
"q. c #2C3734",
"w. c #2D3835",
"e. c #2E3936",
"r. c #2C3D38",
"t. c #303030",
"y. c #313130",
"u. c #313131",
"i. c #323232",
"p. c #333333",
"a. c #343433",
"s. c #343434",
"d. c #363636",
"f. c #373737",
"g. c #373939",
"h. c #3B393A",
"j. c #3A3A3A",
"k. c #4F0E0E",
"l. c #5A0C0C",
"z. c #431713",
"x. c #41403D",
"c. c #000743",
"v. c #000942",
"b. c #020943",
"n. c #000944",
"m. c #030B47",
"M. c #3F3F40",
"N. c #364742",
"B. c #324F46",
"V. c #344F46",
"C. c #384A44",
"Z. c #3F544D",
"A. c #3E554E",
"S. c #424242",
"D. c #444442",
"F. c #404745",
"G. c #474747",
"H. c #494748",
"J. c #444A48",
"K. c #4C4C4C",
"L. c #4E4E4E",
"P. c #48534F",
"I. c #50504F",
"U. c #494B58",
"Y. c #4E5754",
"T. c #565656",
"R. c #585857",
"E. c #585858",
"W. c #5F5F5F",
"Q. c #45675D",
"!. c #4E6B62",
"~. c #407464",
"^. c #417968",
"/. c #477868",
"(. c #407C6A",
"). c #467E6C",
"_. c #4B7E6E",
"`. c #517E70",
"'. c #686867",
"]. c #6E6E6E",
"[. c #717170",
"{. c #98300B",
"}. c #C93D07",
"|. c #FF4D03",
" X c #FF4E02",
".X c #4D8473",
"XX c #548173",
"oX c #548475",
"OX c #558476",
"+X c #568879",
"@X c #4C917C",
"#X c #4F9781",
"$X c #559381",
"%X c #599180",
"&X c #54A58C",
"*X c #5AB69A",
"=X c #62B99F",
"-X c None",
/* pixels */
"-X-X-X-X-X-X-X-X-X-X-X-X-X-X-X-X-X-X-X X|.-X-X-X-X-X-X-X-X-X-X-X",
"-X-X-X-X-X-X-X-X-X-X-X-X-X-X-X  -X-X-X{.}.-X-X-X-X-X-X-X-X-X-X-X",
"-X-X-X-X-X-X-X-X-X-X-X-X-X-X; r d -Xl.^ z.-X-X-X-X-X-X-X-X-X-X-X",
"-X-X-X-X-X-X-X-X-X-X-X  -X-X-Xp =.! L N k.-X-X  -X-X-X-X-X-X-X-X",
"-X-X-X-X-X-X-X-X-X-Xx B #   o 4 6 : @.o.M 3.@.& -X-X-X-X-X-X-X-X",
"-X-X-X-X-X-X-X-X-X-XW O.x r , p p x 9.>.; 7 6 6 -X-X-X-X-X-X-X-X",
"-X-X-X-Xq ] b.-X-X-X-X7 G @.x p B 7 j C r j 4 -X-X-X-X-X-X-X-X-X",
"-X-X-X@ E ;.= -X-X-X-X-XG i x D @.-.W v B r , O X   -X-X-X-X-X-X",
".   x @.9.f.F % o     -Xr C f B i t v Q U i G j x @.f -X-X-X-X-X",
"-X-X< 2.u.T T D j r r r t 4 2 A 4.4...x C x C Q f @.i -X-X-X-X-X",
"v.n.' A 1.G Q O.$.@...x 7 C r C 5.8.8.Q y k k v & -X-X-X-X-X-X-X",
"-X-X-XX.W t.G F D G G x W B t r *.6...i 4 7 i -X-X-X-X-X-X-X-X-X",
"-X-XD.R.<.9 Q W T F S Z f :.7 G n Y j 6 W 4 p &     -X-Xm.{ -X-X",
"-X-X-X[.0.e 6 A Q m V.N.} 5 4 i , r B i C D f W r > #   * [ ` -X",
"-X-X-Xy.-Xt.@.j j H +X#X)./ f o.:.x 4 G Q p B Q @.W B D 5.a.b -X",
"-X-X-X-X-XT.W.  4 C Y.!.F.r -.7.7.o.3 a ~ P K D G W $.G $.p.F   ",
"-X-X-X-X-XL.K.  t 1.h.i.H.p 1.7.6.-.w /.(._.U G T G U G 1.8.5.p ",
"-X-X-X-X-X-X-X2 > ..j U ,.i :.8.5.Q J P.XXOXV ..U Q T u.A D - -X",
"-X-X-X-X-X-X-X-X2 , > Q @.v R 4.G i j.S.J.g.k B g y h u s. .c.n.",
"-X-X-X-X-X-X-X-XO + > Q $.U 4 r V G 6.4 d.#.4 o @._ 0 U.'.x.-X-X",
"-X-X-X-X-X-X-X-X  + : 4 c x 7 2 T $.O., *.v ,   ].G.-XM.I.-X-X-X",
"-X-X-X-X-X-X-X  f & ; % B ..4...x U x # > > 2 -XE.L.-X-X-X-X-X-X",
"-X-X-X-X-X-X-X  O.o # $ l ) z %.t > > ; + -X-X-X-X-X-X-X-X-X-X-X",
"-X-X-X-X-X-X-X-XW   -X+.r.~.B.m # : @ o   -X-X-X-X-X-X-X-X-X-X-X",
"-X-X-X-X-X-X-X+ : -X-Xe.`.*X&Xw.c + + F   -X-X-X-X-X-X-X-X-X-X-X",
"-X-X-X-X-X-X-X-X-X-X1 q.%X$XoXC.I -X2 C   -X-X-X-X-X-X-X-X-X-X-X",
"-X-X-X-X-X-X-X-X-X-X-Xo.@X=XQ.( -X-Xx U -X-X-X-X-X-X-X-X-X-X-X-X",
"-X-X-X-X-X-X-X-X-X-X-X| .X^.R -X-X-X+ -X-X-X-X-X-X-X-X-X-X-X-X-X",
"-X-X-X-X-X-X-X-X-X-X-X&.Z.A.8 -X-X-X-X-X-X-X-X-X-X-X-X-X-X-X-X-X",
"-X-X-X-X-X-X-X-X-X-X-Xg s -X-X-X-X-X-X-X-X-X-X-X-X-X-X-X-X-X-X-X",
"-X-X-X-X-X-X-X-X-X-X-X-Xp -X-X-X-X-X-X-X-X-X-X-X-X-X-X-X-X-X-X-X",
"-X-X-X-X-X-X-X-X-X-X-X-X-X-X-X-X-X-X-X-X-X-X-X-X-X-X-X-X-X-X-X-X"
};
