/* XPM */
static char *_0012[] = {
/* columns rows colors chars-per-pixel */
"32 32 114 2 ",
"   c #000000",
".  c #010101",
"X  c #020202",
"o  c #030303",
"O  c #040404",
"+  c #050505",
"@  c #040406",
"#  c #060606",
"$  c #080707",
"%  c #080808",
"&  c #090909",
"*  c #0A0A0A",
"=  c #0B0B0B",
"-  c #0C0A0B",
";  c #0C0C0C",
":  c #0D0D0D",
">  c #0F0F0F",
",  c #100E0F",
"<  c #0D1110",
"1  c #101010",
"2  c #111111",
"3  c #121112",
"4  c #111212",
"5  c #121212",
"6  c #131313",
"7  c #141414",
"8  c #151515",
"9  c #151517",
"0  c #151616",
"q  c #161616",
"w  c #171717",
"e  c #181717",
"r  c #171718",
"t  c #15161A",
"y  c #181718",
"u  c #1A1718",
"i  c #181818",
"p  c #191919",
"a  c #1A1A1A",
"s  c #1B1B1B",
"d  c #181C1C",
"f  c #1C1C1C",
"g  c #1C1D1D",
"h  c #1D1D1D",
"j  c #1E1E1D",
"k  c #1D1F1E",
"l  c #1E1E1E",
"z  c #1E1F1F",
"x  c #1F1F1F",
"c  c #221B1B",
"v  c #251B1C",
"b  c #201E1F",
"n  c #1C211F",
"m  c #20201E",
"M  c #020622",
"N  c #050923",
"B  c #03082F",
"V  c #00073D",
"C  c #202020",
"Z  c #212121",
"A  c #222222",
"S  c #232323",
"D  c #242424",
"F  c #252525",
"G  c #262525",
"H  c #262626",
"J  c #272B2A",
"K  c #282828",
"L  c #292929",
"P  c #2B2B2B",
"I  c #282D2D",
"U  c #2C2C2C",
"Y  c #2D2D2D",
"T  c #2E2E2E",
"R  c #2F3130",
"E  c #313131",
"W  c #323232",
"Q  c #343434",
"!  c #373737",
"~  c #383836",
"^  c #393938",
"/  c #3A3A39",
"(  c #3A3A3A",
")  c #3B3B3B",
"_  c #521E12",
"`  c #780202",
"'  c #2C403A",
"]  c #020940",
"[  c #000944",
"{  c #385049",
"}  c #3C514A",
"|  c #404443",
" . c #474746",
".. c #474747",
"X. c #484746",
"o. c #494949",
"O. c #4A4949",
"+. c #505050",
"@. c #545353",
"#. c #536962",
"$. c #457666",
"%. c #51756A",
"&. c #52756A",
"*. c #53796D",
"=. c #7F7F7F",
"-. c #F84A03",
";. c #40816D",
":. c #4F8676",
">. c #458974",
",. c #7F7F81",
"<. c #5AB99C",
"1. c #62B199",
"2. c #67BBA2",
"3. c None",
/* pixels */
"3.3.3.3.3.3.3.3.3.3.3.3.3.3.3.-.-.3.3.3.3.3.3.3.3.3.3.3.3.3.3.3.",
"3.3.3.3.3.3.3.3.3.3.3.3.3.3.3._ _ 3.3.3.3.3.3.3.3.3.3.3.3.3.3.3.",
"3.3.3.3.3.3.3.3.3.3.3.  . 3.` v v ` 3..   3.3.3.3.3.3.3.3.3.3.3.",
"3.3.3.3.3.3.3.3.3.3.3.: F I c d d c I F : 3.3.3.3.3.3.3.3.3.3.3.",
"3.3.3.3.3.3.3.3.3.3.3.3.O > & H H & > O 3.3.3.3.3.3.3.3.3.3.3.3.",
"3.3.3.3.3.3.3.3.X     X q 6 3 U U 3 6 q X     X 3.3.3.3.3.3.3.3.",
"3.3.3.3.3.3.3.5 K i 2 > * i 2 : : 2 i * > 2 i K 5 3.3.3.3.3.3.3.",
"3.3.3.3.3.3.3.3.x 7 l A 7 f F H H F f 7 A l 7 x 3.3.3.3.3.3.3.3.",
"3.3.3.3.3.3.3.3.3.& l 2 w p 2 1 1 2 p w 2 l & 3.3.3.3.3.3.3.3.3.",
"3.3.M B ] 3.3.3.3.3.> a 3 8 H Y Y H 8 3 a > 3.3.3.3.3.] B M 3.3.",
"3.3.r L @         X 5 : : > K T T K > : : 5 X         @ L r 3.3.",
"3.O x ( U 7 5 5 6 h 6 > x ; 2 K K 2 ; x > 6 h 6 5 5 7 U ( x O 3.",
"O L Q T q Z S S A h 7 l i 5 f r r f 5 i l 7 h A S S Z q T Q L O ",
"3.@ m Y f l a a a a a 1 L ; 6 ; ; 6 ; L 1 a a a a a l f Y m @ 3.",
"[ V t w E h h l s u J P 4 - 6 D D 6 - 4 P J u s l h h E w t V [ ",
"3.3.~  .@ j h f C n 1.>.$.< D T T D < $.>.1.n C f h j @ X.~ 3.3.",
"3.3.+.,.N 9 # p 8 b #.%.| , H Y Y H , | %.#.b 8 p # 9 N ,.+.3.3.",
"3.3.3./ 3.^ ..X ; 3 O.R @.8 G T T F 8 @.R o.3 ; X ..^ 3./ 3.3.3.",
"3.3.3.3.3.+.=.+ * h ! % W 8 2 K K 2 8 W % ! h * + =.+.3.3.3.3.3.",
"3.3.3.3.3.3.) 3.; * s = D Z f 2 2 f Z D = s * ; 3.) 3.3.3.3.3.3.",
"3.3.3.3.3.3.3.3.3.= O % x A a * * a A x % O = 3.3.3.3.3.3.3.3.3.",
"3.3.3.3.3.3.3.3.3.. O = * 6 q L L q 6 * = O . 3.3.3.3.3.3.3.3.3.",
"3.3.3.3.3.3.3.3.3.  X O = # G 0 0 G # = O X   3.3.3.3.3.3.3.3.3.",
"3.3.3.3.3.3.3.3.3.. C . # $ e ' ' y $ # . C . 3.3.3.3.3.3.3.3.3.",
"3.3.3.3.3.3.3.3.3.  Z   3.Z { <.<.{ Z 3.  Z   3.3.3.3.3.3.3.3.3.",
"3.3.3.3.3.3.3.3.3.3.C X 3.g &.:.:.&.g 3.X C 3.3.3.3.3.3.3.3.3.3.",
"3.3.3.3.3.3.3.3.3.3.o 3.3.3 } 2.2.} 3 3.3.o 3.3.3.3.3.3.3.3.3.3.",
"3.3.3.3.3.3.3.3.3.3.3.3.3.3.k ;.;.k 3.3.3.3.3.3.3.3.3.3.3.3.3.3.",
"3.3.3.3.3.3.3.3.3.3.3.3.3.3.i *.*.i 3.3.3.3.3.3.3.3.3.3.3.3.3.3.",
"3.3.3.3.3.3.3.3.3.3.3.3.3.3.3.z z 3.3.3.3.3.3.3.3.3.3.3.3.3.3.3.",
"3.3.3.3.3.3.3.3.3.3.3.3.3.3.3.7 7 3.3.3.3.3.3.3.3.3.3.3.3.3.3.3.",
"3.3.3.3.3.3.3.3.3.3.3.3.3.3.3.3.3.3.3.3.3.3.3.3.3.3.3.3.3.3.3.3."
};
