/* XPM */
static char *_0018[] = {
/* columns rows colors chars-per-pixel */
"32 32 116 2 ",
"   c black",
".  c #010101",
"X  c #020202",
"o  c #030303",
"O  c #040404",
"+  c #050505",
"@  c #040406",
"#  c #060606",
"$  c #080707",
"%  c #080808",
"&  c #090909",
"*  c #0A0A0A",
"=  c #0B0B0B",
"-  c #0C0A0B",
";  c #0C0C0C",
":  c #0D0D0D",
">  c #0F0F0F",
",  c #100E0F",
"<  c #0D1110",
"1  c #101010",
"2  c #111111",
"3  c #121112",
"4  c #111212",
"5  c #121212",
"6  c #131313",
"7  c #141414",
"8  c #151515",
"9  c #151517",
"0  c #151616",
"q  c #161616",
"w  c #171717",
"e  c #181717",
"r  c #171718",
"t  c #15161A",
"y  c #1A1718",
"u  c #181818",
"i  c #191919",
"p  c #1A1A1A",
"a  c #1B1B1B",
"s  c #181C1C",
"d  c #1C1C1C",
"f  c #1C1D1D",
"g  c #1D1D1D",
"h  c #1E1E1D",
"j  c #1D1F1E",
"k  c #1E1E1E",
"l  c #1E1F1F",
"z  c #1F1F1F",
"x  c #221B1B",
"c  c #251B1C",
"v  c #201E1F",
"b  c #1C211F",
"n  c #20201E",
"m  c #020622",
"M  c #050923",
"N  c #03082F",
"B  c #00073C",
"V  c #00073D",
"C  c #1C2120",
"Z  c #202020",
"A  c #212121",
"S  c #222222",
"D  c #232323",
"F  c #242424",
"G  c #252525",
"H  c #262525",
"J  c #262626",
"K  c #272B2A",
"L  c #282828",
"P  c #292929",
"I  c #2B2B2B",
"U  c #282D2D",
"Y  c #2C2C2C",
"T  c #2D2D2D",
"R  c #2E2E2E",
"E  c #2F3130",
"W  c #313131",
"Q  c #323232",
"!  c #343434",
"~  c #373737",
"^  c #383836",
"/  c #393938",
"(  c #3A3A39",
")  c #3B3A39",
"_  c #3A3A3A",
"`  c #3B3B3B",
"'  c #531E11",
"]  c #780202",
"[  c #790202",
"{  c #2C403A",
"}  c #020940",
"|  c #000944",
" . c #385049",
".. c #3C514A",
"X. c #404443",
"o. c #474746",
"O. c #474747",
"+. c #494949",
"@. c #4A4949",
"#. c #505050",
"$. c #545353",
"%. c #536962",
"&. c #457666",
"*. c #51756A",
"=. c #52756A",
"-. c #53796D",
";. c #7F7F7F",
":. c #F94A03",
">. c #40816D",
",. c #4E8676",
"<. c #458974",
"1. c #7F7F81",
"2. c #5AB99C",
"3. c #62B199",
"4. c #67BBA2",
"5. c None",
/* pixels */
"5.5.5.5.5.5.5.5.5.5.5.5.5.5.5.5.5.| 5.O 5.5.5.5.5.5.5.5.5.5.5.5.",
"5.5.5.5.5.5.5.5.5.5.5.5.5.5.5.5.5.B @ P O 5.5.5.5.5.5.5.5.5.5.5.",
"5.5.5.5.5.5.5.5.5.5.5.5.5.5.5.#.^ t n ! z r m 5.5.5.5.5.5.5.5.5.",
"5.5.5.5.5.5.5.5.5.5.5.5.5.5.) 1.o.w T R _ P N 5.5.5.5.5.5.5.5.5.",
"5.5.5.5.5.5.5.5.5.5.5.5.5.5.5.M @ W d q Y @ } 5.5.5.5.5.5.5.5.5.",
"5.5.5.5.5.5.5.5.5.5.5.5.5.#./ 9 h g k A 7   5.5.5.5.5.5.5.5.5.5.",
"5.5.5.5.5.5.5.5.5.5.5.5.` ;.O.# g g p D 5   5.5.5.5.5.5.5.5.5.5.",
"5.5.5.5.5.5.5.5.5.5.5.5.5.+ X i d k p D 5   5.5.5.5 5.5.5.5.5.5.",
"5.5.5.5.5.5.5.5.5.5.5.5.; * ; 8 Z a p S 6   5.5.z L X 5.5.5.5.5.",
"5.5.5.5.5.5.5.  .   . = * g 3 v C y p g g X 5.& 7 u   5.5.5.5.5.",
"5.5.5.5.5.o Z A Z X O O a ~ @.%.3.K p 7 6 5 > k k 2   5.5.5.5.5.",
"5.5.5.5.5.5.X   . O = % = % E *.<.I 1 k > : p 2 S > X 5.:   5.5.",
"5.5.5.5.5.5.5.5.# = * z F Q $.X.&.4 P u z : 3 w 7 * q O G . 5.5.",
"5.5.5.5.5.3 f A $ # 6 S A 8 8 , < - ; 5 ; > 8 i d u 6 > U 5.5.5.",
"5.5.5.u j ..=. .e H q p d 2 H J F 6 6 d 2 L J 2 G 2 3 & x ] 5.5.",
"5.7 l -.>.4.,.2.{ 0 P * 2 L R T R F ; r L R T 1 J : Y J s c ' :.",
"5.7 l -.>.4.,.2.{ 0 P * 2 L R T R F ; r L R T 1 J : Y J s c ' :.",
"5.5.5.u j ..=. .e H q p d 2 G J F 6 6 d 2 L J 2 G 2 3 & x [ 5.5.",
"5.5.5.5.5.3 f A $ # 6 S A 8 8 , < - ; 5 ; > 8 i d u 6 > U 5.5.5.",
"5.5.5.5.5.5.5.5.# = * z F Q $.X.&.4 P u z : 3 w 7 * q O G . 5.5.",
"5.5.5.5.5.5.X   . O = % = % E *.<.I 1 k > : p 2 S > X 5.:   5.5.",
"5.5.5.5.5.o Z A Z X O O a ~ +.%.3.K p 7 6 5 > k k 2   5.5.5.5.5.",
"5.5.5.5.5.5.5.  .   . = * g 3 v b y p g g X 5.& 7 u   5.5.5.5.5.",
"5.5.5.5.5.5.5.5.5.5.5.5.; * ; 8 Z a p S 6   5.5.z L X 5.5.5.5.5.",
"5.5.5.5.5.5.5.5.5.5.5.5.5.+ X i d k p D 5   5.5.5.5 5.5.5.5.5.5.",
"5.5.5.5.5.5.5.5.5.5.5.5.` ;.O.# g g p D 5   5.5.5.5.5.5.5.5.5.5.",
"5.5.5.5.5.5.5.5.5.5.5.5.5.#./ 9 h g k A 7   5.5.5.5.5.5.5.5.5.5.",
"5.5.5.5.5.5.5.5.5.5.5.5.5.5.5.M @ W d q Y @ } 5.5.5.5.5.5.5.5.5.",
"5.5.5.5.5.5.5.5.5.5.5.5.5.5.( 1.o.w T R _ P N 5.5.5.5.5.5.5.5.5.",
"5.5.5.5.5.5.5.5.5.5.5.5.5.5.5.#.^ t n ! z r m 5.5.5.5.5.5.5.5.5.",
"5.5.5.5.5.5.5.5.5.5.5.5.5.5.5.5.5.V @ P O 5.5.5.5.5.5.5.5.5.5.5.",
"5.5.5.5.5.5.5.5.5.5.5.5.5.5.5.5.5.| 5.O 5.5.5.5.5.5.5.5.5.5.5.5."
};
