/* XPM */
static char *_0021[] = {
/* columns rows colors chars-per-pixel */
"32 32 128 2 ",
"   c black",
".  c #010101",
"X  c #020202",
"o  c #030303",
"O  c #050505",
"+  c #060606",
"@  c #070707",
"#  c #080808",
"$  c #090908",
"%  c #090909",
"&  c #0A0A0A",
"*  c #0B0B0B",
"=  c #0C0B0B",
"-  c #0D0D08",
";  c #0C0B0C",
":  c #0D0B0C",
">  c #0C0C0C",
",  c #0D0D0D",
"<  c #0E0D0E",
"1  c #0E0E0E",
"2  c #0F0F0F",
"3  c #070917",
"4  c #00041D",
"5  c #101010",
"6  c #111111",
"7  c #121111",
"8  c #131111",
"9  c #121112",
"0  c #121212",
"q  c #131213",
"w  c #131313",
"e  c #101414",
"r  c #141414",
"t  c #151414",
"y  c #151515",
"u  c #161616",
"i  c #171716",
"p  c #171717",
"a  c #141817",
"s  c #151519",
"d  c #171718",
"f  c #171719",
"g  c #14151B",
"h  c #17171A",
"j  c #181818",
"k  c #191919",
"l  c #1A1818",
"z  c #1B1819",
"x  c #1A191A",
"c  c #1A1A1A",
"v  c #1B1A1A",
"b  c #1B1B1B",
"n  c #1C191A",
"m  c #1D1B1B",
"M  c #1D1B1C",
"N  c #1B1E1D",
"B  c #1C1C1C",
"V  c #1D1D1D",
"C  c #1E1E1E",
"Z  c #1F1F1F",
"A  c #3C1915",
"S  c #060B2B",
"D  c #181E20",
"F  c #02083A",
"G  c #1F2523",
"H  c #1F2624",
"J  c #1A2924",
"K  c #202020",
"L  c #212121",
"P  c #202322",
"I  c #222222",
"U  c #232323",
"Y  c #252425",
"T  c #252525",
"R  c #262626",
"E  c #2F2525",
"W  c #282827",
"Q  c #242B29",
"!  c #272C2B",
"~  c #282828",
"^  c #292929",
"/  c #2A2A2A",
"(  c #2D2D2D",
")  c #2E2E2E",
"_  c #2F2F2F",
"`  c #29332F",
"'  c #2F3533",
"]  c #303030",
"[  c #313131",
"{  c #333331",
"}  c #343434",
"|  c #353534",
" . c #363636",
".. c #373739",
"X. c #3B3B3B",
"o. c #3E3E3E",
"O. c #700405",
"+. c #3D403F",
"@. c #000744",
"#. c #000942",
"$. c #3B3C44",
"%. c #3C534C",
"&. c #3C685A",
"*. c #3E7665",
"=. c #3E7967",
"-. c #474747",
";. c #4E4E4E",
":. c #4A5652",
">. c #445E55",
",. c #555354",
"<. c #5E5E5E",
"1. c #45635A",
"2. c #4C645C",
"3. c #4F7468",
"4. c #6D6D6D",
"5. c #787878",
"6. c #8A2B0C",
"7. c #FD4C03",
"8. c #FE4C03",
"9. c #FF4D03",
"0. c #528D7B",
"q. c #549380",
"w. c #579381",
"e. c #509480",
"r. c #599784",
"t. c #54A68D",
"y. c #6AC6AA",
"u. c None",
/* pixels */
"u.u.u.u.u.u.u.u.u.u.u.u.u.u.u.u.u.u.u.u.u.u.u.u.u.u.u.u.u.u.u.u.",
"u.u.u.u.u.u.u.u.u.u.u.u.u.u.u.u.u.u.u.u.u.u.u.u.u.u.u.u.u.u.u.u.",
"u.u.u.u.u.u.u.u.u.u.u.u.u.u.u.u.u.u.u.u.u.u.u.u.u.u.u.u.u.u.u.#.",
"u.u.u.u.u.u.u.u.u.u.u.u.u.u.u.u.u.u.u.u.u.u.u.u.u.u.u.u.u.u.#.u.",
"u.u.u.u.u.u.u.u.u.u.u.u.X u.u.u.u.u.u.u.u.u.u.u.u.u.u.u.u.#.u.u.",
"u.u.u.u.u.w t u.u.u.u.u.> U o u.u.u.u.u.u.u.u.u.u.u.u.u.#.u.u.. ",
"u.u.u.u.u.t P >.N u.: u.  2 K X u.u.u.u. .;.u...5.-.u.@.u.u.. u.",
"u.u.u.u.u.u.>.0.=.%.` z u.  & . . u.u.u.<.4.| 4 $.X.h 3 - o u.u.",
"u.u.u.u.u.u.N =.y.w.3.! = % @ # o * & O X [ 7 f > T L W ] % u.u.",
"u.u.u.u.u.u.u.%.w.e.t.H ; + % > + k b 5 % u 5 K Z R U [ R $ u.u.",
"u.u.u.u.u.u.: ` 3.t.&.G Y w b K 2 p o.j y B B C b Z p } { s u.u.",
"u.u.u.u.u.u.u.z ! H G q T u L U / x +.:.Q n B b V U c i g S u.u.",
"u.u.u.u.X >   u.= ; Y T k * b y I ,.2.r.q.v c V U p #   F u.u.u.",
"u.u.u.u.u.U 2   % + w u * 2 Z k u M 1.*.' m b K p %   u.u.u.u.u.",
"u.u.u.u.u.o K & @ % b L b Z _ ( ~ 8 J a l w r C >   u.u.u.u.u.u.",
"u.u.u.u.u.u.X . # > K U y k ( ) ( I < 9 R V 6 r X u.u.u.u.u.u.u.",
"u.u.u.u.u.u.u.. o + 2 / I u ~ ( ) I 0 2 0 V 1 6 , & 1 Z 0 u.u.u.",
"u.u.u.u.u.u.u.u.* k p x ,.M 8 I I r 2 B , 2 > j u C y Y c u.u.u.",
"u.u.u.u.u.u.u.u.& b o.+.2.1.J < 0 2 d L B k 6 y r L y 1   u.u.u.",
"u.u.u.u.u.u.u.u.O 5 j :.r.*.a 9 2 B L ) ) ^ j c r r #   u.u.u.u.",
"u.u.u.u.u.u. .<.X % y Q q.' l R 0 , B ) _ c y Z y 2 + u.u.u.u.u.",
"u.u.u.u.u.u.;.4.[ u B n v m w V V 2 k ^ c r R u r r O 5 @ u.u.u.",
"u.u.u.u.u.u.u.| 7 5 B B c b r 6 1 > 6 j y R 6 u 0 > V K . u.u.u.",
"u.u.u.u.u.u...4 f K C b V K C r 6 j y c Z u u ] U e E u.u.u.u.u.",
"u.u.u.u.u.u.5.$.> Z b V U p > X , u r r y r 0 U L m O.u.u.u.u.u.",
"u.u.u.u.u.u.-.X.T R Z U p %   u.& C L r 2 r > e m D A u.u.u.u.u.",
"u.u.u.u.u.u.u.h L U p c #   u.u.1 y y # + O V E O.A 6.7.u.u.u.u.",
"u.u.u.u.u.u.@.3 W [ } i   u.u.u.Z Y 1   u.5 K u.u.u.7.9.8.u.u.u.",
"u.u.u.u.u.#.u.- ] R { g F u.u.u.0 c   u.u.@ . u.u.u.u.8.8.8.u.u.",
"u.u.u.u.#.u.u.o % $ s S u.u.u.u.u.u.u.u.u.u.u.u.u.u.u.u.8.8.8.u.",
"u.u.u.#.u.u.. u.u.u.u.u.u.u.u.u.u.u.u.u.u.u.u.u.u.u.u.u.u.8.8.8.",
"u.u.#.u.u.. u.u.u.u.u.u.u.u.u.u.u.u.u.u.u.u.u.u.u.u.u.u.u.u.8.8."
};
