/* XPM */
static char *_0107[] = {
/* columns rows colors chars-per-pixel */
"32 32 124 2 ",
"   c #0D0E0D",
".  c #0F110E",
"X  c #140C14",
"o  c #151415",
"O  c #181617",
"+  c #161815",
"@  c #171519",
"#  c #191518",
"$  c #1C1B1C",
"%  c #1F211E",
"&  c #1D2A1F",
"*  c #18381D",
"=  c #1D1720",
"-  c #2F0B2F",
";  c #251626",
":  c #241C25",
">  c #231528",
",  c #2B172B",
"<  c #271D28",
"1  c #2D1D2D",
"2  c #360A38",
"3  c #2E1331",
"4  c #2E1B32",
"5  c #341435",
"6  c #351D3B",
"7  c #242423",
"8  c #282727",
"9  c #232923",
"0  c #2D262C",
"q  c #2B2B2B",
"w  c #223625",
"e  c #293027",
"r  c #2B312B",
"t  c #2F2C30",
"y  c #332433",
"u  c #332B35",
"i  c #35263D",
"p  c #352A3B",
"a  c #333333",
"s  c #333934",
"d  c #3B363E",
"f  c #3C3C3C",
"g  c #0F4D16",
"h  c #1A401E",
"j  c #144C1A",
"k  c #0D5D17",
"l  c #13511A",
"z  c #145A1C",
"x  c #136B1C",
"c  c #12771D",
"v  c #254428",
"b  c #2B402E",
"n  c #255C2B",
"m  c #364037",
"M  c #355139",
"N  c #3E0940",
"B  c #351844",
"V  c #3A134D",
"C  c #440947",
"Z  c #4A194D",
"A  c #4D0F56",
"S  c #4F075B",
"D  c #4C1951",
"F  c #521C56",
"G  c #49254B",
"H  c #503B4F",
"J  c #432451",
"K  c #4F2052",
"L  c #553A54",
"P  c #470C64",
"I  c #4F0B6D",
"U  c #5C0663",
"Y  c #570B60",
"T  c #5C066B",
"R  c #520C68",
"E  c #4B1067",
"W  c #4C1168",
"Q  c #571063",
"!  c #561475",
"~  c #630F6C",
"^  c #620F74",
"/  c #74007E",
"(  c #79107F",
")  c #682075",
"_  c #404C41",
"`  c #0B8D19",
"'  c #0E991D",
"]  c #05A516",
"[  c #05A816",
"{  c #08BC1C",
"}  c #148421",
"|  c #148B21",
" . c #159323",
".. c #2B8334",
"X. c #5F0785",
"o. c #6D0385",
"O. c #600B87",
"+. c #6E058F",
"@. c #62098D",
"#. c #740181",
"$. c #770886",
"%. c #780E80",
"&. c #72038B",
"*. c #78018E",
"=. c #790B8D",
"-. c #6C0894",
";. c #6F049D",
":. c #6C0A9C",
">. c #7A0491",
",. c #7C029C",
"<. c #7F0A9F",
"1. c #7E01A2",
"2. c #7A06B2",
"3. c #80099F",
"4. c #8006A6",
"5. c #8307A9",
"6. c #8101B6",
"7. c #8301BE",
"8. c #880ABD",
"9. c #8600C5",
"0. c #8A00CE",
"q. c #8D0CCC",
"w. c #8D00D2",
"e. c None",
/* pixels */
"e.e.e.e.e.e.7 q % $ $ $ e.e.e.e.e.e.e.e.e.e.e.e.e.e.e.e.e.e.e.e.",
"e.e.e.e.e.e.8 8 7 = % $ 7 $ $ $ e.e.e.e.e.e.e.e.e.e.e.e.e.e.e.e.",
"e.e.e.e.e.e.$ $ 8 $ 7 O $ q a 8 6 D e.e.e.e.e.e.e.e.e.e.e.e.e.e.",
"e.e.e.e.e.e.e.$ 8 r 8 7 7 8 q r F &.,.3.e.e.e.e.e.e.e.e.e.e.e.e.",
"e.e.e.e.e.e.e.$ $ r a $ q O e.e.K e.e.3.e.e.e.e.e.e.e.e.e.e.e.e.",
"e.e.e.e.e.e.e.e.$ 8 a 7 r 7 e.e.e.e.e.e.e.e.e.e.e.e.e.e.e.e.e.e.",
"e.e.e.e.e.e.e.e.+ O 8 8 q 8 O e.e.e.e.e.e.e.e.e.e.e.e.e.e.e.e.e.",
"e.e.e.e.e.e.%.e.e.3 q f 7 a 7 } e.# O e.e.e.e.e.e.e.e.e.e.e.e.e.",
"e.e.e.e.e.e.=.,.4.^ e 7 O a s | [ w : $ $ e.e.e.e.e.e.e.e.e.e.e.",
"e.e.e.e.e.%.>.9.0.@.B : 7 q q h x M m a Z / / e.e.e.e.e.e.e.e.e.",
"e.e.e.e.e.e.Y -.7.9.:.i 7 7 8 : g ' ..L ) 5.5.>.e.e.e.e.e.e.e.e.",
"e.e.e.$ @ + > 6 V P ! 0 + . o 8 * ` l e.e.e.q.e.e.e.e.e.e.e.e.e.",
"e.e.$ $ 8 a q % 7 d u 0 2 C - 1 r v $ $ e.e.e.e.e.e.e.e.e.e.e.e.",
"e.e.e.$ 8 f 8 s $ + % , T ,.+.A 7 O $ 7 # + e.e.e.e.e.e.e.e.e.e.",
"e.e.e.O $ % 7 a o o o q < X.9.I o . 7 q % $ $ + O e.e.e.e.e.e.e.",
"e.e.e.e.e.5 4 : a q O u > @.9.7.T X O f f a q 7 : % e.e.e.e.e.e.",
"e.e.e.( $.&.O.P V i 0 S ,.6.7.;.U     + 7 q a f + 7 e.e.e.e.e.e.",
"e.e.e.%.1.9.w.9.2.J : N T o.R # X . O $ $ O $ $ . + $ @ O e.e.e.",
"e.e.e.%.*.1.6.E W u $ . X 5 y $ o 8 s f f q 7 $   X 7 % o e.e.e.",
"e.e.e.e.e.e.Q q $ 7 7 7 7 7 r r # 8 7 7 8 a f $ + $ 7 $   o e.e.",
"e.e.e.e.e.+ < a 7 = q 8 7 & k c $ $ + O O $ 7 $ 7 $ O O o e.e.e.",
"e.e.e.$ : % 8 s 8 8 d b j z ' { e.e.e.e.e.O O $ e.e.e.e.e.e.e.e.",
"e.# $ $ 8 a q $ a q 8  .[ n M _ L e.e.e.e.e.e.e.e.e.e.e.e.e.e.e.",
"7 7 7 r r q : a 8 $ o e.e.9 8 0 G =.8.q.e.e.e.e.e.e.e.e.e.e.e.e.",
"a 7 7 $ 7 7 8 % $ e.e.e.e.O + $ 4 / #.*.e.e.e.e.e.e.e.e.e.e.e.e.",
"7 7 $ % 7 O $ 8 8 e.e.e.e.e.e.e.e.e.e.e.e.e.e.e.e.e.e.e.e.e.e.e.",
"e.O $ $ $ % 7 s a q K e.e.e.e.e.e.e.e.e.e.e.e.e.e.e.e.e.e.e.e.e.",
"e.e.e.e.e.$ O : 7 u ~ ,.,.e.e.e.e.e.e.e.e.e.e.e.e.e.e.e.e.e.e.e.",
"e.e.e.e.e.e.e.e.e.4 Z e.,.3.e.e.e.e.e.e.e.e.e.e.e.e.e.e.e.e.e.e.",
"e.e.e.e.e.e.e.e.e.e.e.e.e.e.e.e.e.e.e.e.e.e.e.e.e.e.e.e.e.e.e.e.",
"e.e.e.e.e.e.e.e.e.e.e.e.e.e.e.e.e.e.e.e.e.e.e.e.e.e.e.e.e.e.e.e.",
"e.e.e.e.e.e.e.e.e.e.e.e.e.e.e.e.e.e.e.e.e.e.e.e.e.e.e.e.e.e.e.e."
};
