/* XPM */
static char *_0108[] = {
/* columns rows colors chars-per-pixel */
"32 32 127 2 ",
"   c #070707",
".  c #0D0D0D",
"X  c #0C100C",
"o  c #0F0F11",
"O  c #150B15",
"+  c #141514",
"@  c #171917",
"#  c #1A151A",
"$  c #1B1C1B",
"%  c #201F1F",
"&  c #172619",
"*  c #1D231D",
"=  c #1C341F",
"-  c #193D1D",
";  c #1D1522",
":  c #1E1B20",
">  c #220A23",
",  c #2C0D2D",
"<  c #231D23",
"1  c #2D142E",
"2  c #271B2A",
"3  c #2C1E2E",
"4  c #291434",
"5  c #331535",
"6  c #331D34",
"7  c #3A153C",
"8  c #371B39",
"9  c #381A3B",
"0  c #1E3520",
"q  c #242424",
"w  c #242A25",
"e  c #282A27",
"r  c #2B262C",
"t  c #272D28",
"y  c #2B2C2B",
"u  c #2D322D",
"i  c #2D3B2F",
"p  c #2F2E30",
"a  c #332334",
"s  c #312F32",
"d  c #3B273C",
"f  c #372B3D",
"g  c #3C293D",
"h  c #323232",
"j  c #343A35",
"k  c #3A3B3A",
"l  c #104F17",
"z  c #194A1E",
"x  c #115919",
"c  c #0E6217",
"v  c #14661D",
"b  c #15711F",
"n  c #14791F",
"m  c #1D5824",
"M  c #264629",
"N  c #325A37",
"B  c #355C3A",
"V  c #186320",
"C  c #1B6D24",
"Z  c #39144B",
"A  c #3D1451",
"S  c #392642",
"D  c #3B2944",
"F  c #430945",
"G  c #430D5D",
"H  c #4D0C5C",
"J  c #500C55",
"K  c #54065C",
"L  c #4F1753",
"P  c #411954",
"I  c #48155C",
"U  c #531559",
"Y  c #59155F",
"T  c #462249",
"R  c #4C204E",
"E  c #4D3B4D",
"W  c #552E59",
"Q  c #590767",
"!  c #4B1864",
"~  c #5F0671",
"^  c #5B1571",
"/  c #5B137E",
"(  c #62066E",
")  c #620574",
"_  c #670578",
"`  c #73007D",
"'  c #79107E",
"]  c #4D414C",
"[  c #068E15",
"{  c #10821C",
"}  c #069E16",
"|  c #03B916",
" . c #08B81B",
".. c #139621",
"X. c #238B2F",
"o. c #0FB621",
"O. c #590880",
"+. c #6F0883",
"@. c #62068B",
"#. c #6A0C89",
"$. c #740583",
"%. c #790C82",
"&. c #73008A",
"*. c #79038E",
"=. c #770F8D",
"-. c #7B0C8A",
";. c #660691",
":. c #740197",
">. c #790192",
",. c #7C019C",
"<. c #7F099F",
"1. c #7104A3",
"2. c #7E03A2",
"3. c #7704AA",
"4. c #7509A9",
"5. c #7B02B4",
"6. c #7E04B8",
"7. c #810F87",
"8. c #8200B4",
"9. c #870AB4",
"0. c #8500BC",
"q. c #8609B8",
"w. c #8500C3",
"e. c #890AC0",
"r. c #8800C8",
"t. c #8D00D1",
"y. c None",
/* pixels */
"y.y.y.y.y.y.y.y.y.y.$ $ e $ $ $ $ y.y.y.y.y.y.y.y.y.y.y.y.y.y.y.",
"y.y.y.y.y.y.y.y.y.y.$ q y # q $ q $ $ y.y.y.y.y.y.y.y.y.y.y.y.y.",
"y.y.y.y.y.y.y.y.y.y.y.$ e y r + e h e $ 8 y.y.y.y.y.y.y.y.y.y.y.",
"y.y.y.y.y.y.y.y.y.y.y.$ e h q e q y h g U y.y.y.y.y.y.y.y.y.y.y.",
"y.y.y.y.y.y.y.y.y.y.y.$ q h q h @ y.y R +.,.y.y.y.y.y.y.y.y.y.y.",
"y.y.y.y.y.y.y.y.%.$.y.@ $ y $ p q y.y.y.y.y.<.y.y.y.y.y.y.y.y.y.",
"y.y.y.y.y.y.y.y.-.,.,.Q r j y p $ y.y.y.y.y.y.y.y.y.y.y.y.y.y.y.",
"y.y.y.y.y.y.y.7.*.0.r.#.y q $ s r z y.y.y.y.y.y.y.y.y.y.y.y.y.y.",
"y.y.y.y.$ $ + y.H 3.r.@.Z $ q s j ..| & + y.y.y.y.y.y.y.y.y.y.y.",
"y.y.y.y.$ < e $ 3 Z O.6./ w e q t x n u q $ $ y.y.y.y.y.y.y.y.y.",
"y.y.y.y.$ e k h * q S P S * @ e e & C B j a 7 y.y.y.y.y.y.y.y.y.",
"y.y.y.y.+ $ h q k % y p r , > X q = [ o.E W $.$.y.y.y.y.y.y.y.y.",
"y.y.y.y.y.1 < * y   + @ 5 ) ) F 3 u b - y.y.9.q.>.y.y.y.y.y.y.y.",
"y.y.y.y.%.) I 4 s e + q r H 8.:.9 q q # $ y.y.y.y.y.y.y.y.y.y.y.",
"y.y.y.%.2.w.w.@.A D * 6 < G 5.3.; o + e $ y.y.y.y.y.y.y.y.y.y.y.",
"y.y.y.%.>.0.r.5.4.D 3 K :.1.r.w.~ O @ h $ $ @ y.y.y.y.y.y.y.y.y.",
"y.y.y.y.y.&.^ A ! e % F _ 8.;.@.K o + j k r $ @ + y.y.y.y.y.y.y.",
"y.y.y.y.+ 4 p $ < q # . , J 2 + O . . $ y k h e $ $ y.y.y.y.y.y.",
"$ $ @ q $ q j e $ e q q % y q + + r e $ + $ h s $ q y.y.y.y.y.y.",
"$ e q p h h y q y h y < w - M # e y k k q $ $ + + $ y.y.y.y.y.y.",
"< w e s $ e e p s i m l c } v $ % $ $ y k k $ . . $ $ @ y.y.y.y.",
"$ $ q q e y q < # V  .{ N X.y.y.y.y.# $ q p + + $ r $ + y.y.y.y.",
"$ $ q + $ * $ y.y.y.y.w y k E y.y.y.y.@ @ $ q q $ $ + . y.y.y.y.",
"y.$ $ $ y y y y.y.y.y.@ $ q T =.e.y.y.y.y.+ y.y.y.$ + + y.y.y.y.",
"y.y.y.$ e h h d y.y.y.y.y.$ 7 $.,.e.y.y.y.y.y.y.y.y.y.y.y.y.y.y.",
"y.y.y.y.# $ r Y +.y.y.y.y.y.y.y.` y.y.y.y.y.y.y.y.y.y.y.y.y.y.y.",
"y.y.y.y.y.y.3 L ,.,.y.y.y.y.y.y.y.y.y.y.y.y.y.y.y.y.y.y.y.y.y.y.",
"y.y.y.y.y.y.y.y.y.y.y.y.y.y.y.y.y.y.y.y.y.y.y.y.y.y.y.y.y.y.y.y.",
"y.y.y.y.y.y.y.y.y.y.y.y.y.y.y.y.y.y.y.y.y.y.y.y.y.y.y.y.y.y.y.y.",
"y.y.y.y.y.y.y.y.y.y.y.y.y.y.y.y.y.y.y.y.y.y.y.y.y.y.y.y.y.y.y.y.",
"y.y.y.y.y.y.y.y.y.y.y.y.y.y.y.y.y.y.y.y.y.y.y.y.y.y.y.y.y.y.y.y.",
"y.y.y.y.y.y.y.y.y.y.y.y.y.y.y.y.y.y.y.y.y.y.y.y.y.y.y.y.y.y.y.y."
};
