/* XPM */
static char *_0100[] = {
/* columns rows colors chars-per-pixel */
"32 32 144 2 ",
"   c #0A0D0A",
".  c #0C0C0C",
"X  c #0D0D0D",
"o  c #0E0E0E",
"O  c #0F0E0F",
"+  c #110E12",
"@  c #120F12",
"#  c #101010",
"$  c #111111",
"%  c #131313",
"&  c #151515",
"*  c #161616",
"=  c #161716",
"-  c #171717",
";  c #171816",
":  c #181917",
">  c #191318",
",  c #181418",
"<  c #1A1519",
"1  c #191719",
"2  c #181818",
"3  c #181918",
"4  c #191919",
"5  c #1B1A1B",
"6  c #1B1B1B",
"7  c #1C1C1C",
"8  c #1D1C1D",
"9  c #1D1D1D",
"0  c #1C1E1C",
"q  c #1C1F1D",
"w  c #1E1E1E",
"e  c #1F1F1F",
"r  c #18231A",
"t  c #26142D",
"y  c #2F0E31",
"u  c #281432",
"i  c #301332",
"p  c #202020",
"a  c #212121",
"s  c #222222",
"d  c #232323",
"f  c #252225",
"g  c #252425",
"h  c #252525",
"j  c #262626",
"k  c #272727",
"l  c #2A222A",
"z  c #282628",
"x  c #282828",
"c  c #292829",
"v  c #292929",
"b  c #292A29",
"n  c #2A282A",
"m  c #2A2A2A",
"M  c #2A2B2A",
"N  c #2B2B2B",
"B  c #2C2B2C",
"V  c #2D2A2E",
"C  c #2C2C2C",
"Z  c #2D2D2D",
"A  c #2D2F2D",
"S  c #2E2E2E",
"D  c #2F2F2F",
"F  c #302A2F",
"G  c #243B26",
"H  c #29312A",
"J  c #2A312B",
"K  c #2F302F",
"L  c #342D35",
"P  c #303030",
"I  c #313131",
"U  c #333133",
"Y  c #323232",
"T  c #333333",
"R  c #353435",
"E  c #353535",
"W  c #363536",
"Q  c #363636",
"!  c #373737",
"~  c #383537",
"^  c #3A3A3A",
"/  c #3C3C3C",
"(  c #3D3D3D",
")  c #15411A",
"_  c #0B7216",
"`  c #097815",
"'  c #1E4D24",
"]  c #2E5C33",
"[  c #375C3B",
"{  c #3C0F52",
"}  c #3D0F52",
"|  c #3E1154",
" . c #3F1C51",
".. c #410E46",
"X. c #401144",
"o. c #411C43",
"O. c #441A46",
"+. c #530759",
"@. c #530858",
"#. c #55095B",
"$. c #431755",
"%. c #441755",
"&. c #42145A",
"*. c #501F53",
"=. c #57305A",
"-. c #4D0E6B",
";. c #5D0565",
":. c #5E1265",
">. c #73017E",
",. c #790F7F",
"<. c #464145",
"1. c #10821C",
"2. c #10821D",
"3. c #04AF16",
"4. c #08BD1B",
"5. c #11A622",
"6. c #740183",
"7. c #750184",
"8. c #7B0E82",
"9. c #7A0F82",
"0. c #77008B",
"q. c #73038C",
"w. c #650792",
"e. c #770190",
"r. c #760095",
"t. c #760096",
"y. c #7A0097",
"u. c #7C0097",
"i. c #7B019C",
"p. c #7F099F",
"a. c #720CA2",
"s. c #7F00AB",
"d. c #7903AF",
"f. c #7F00B1",
"g. c #80099F",
"h. c #800D9F",
"j. c #8300B6",
"k. c #8400BD",
"l. c #8400C2",
"z. c #8500C3",
"x. c #8700C7",
"c. c #8A0BC5",
"v. c #8900C9",
"b. c None",
/* pixels */
"b.b.b.b.b.b.b.b.b.b.b.b.b.b.b.b.b.b.b.b.b.b.b.b.b.b.b.b.b.b.b.b.",
"b.b.b.b.b.b.b.b.b.b.b.b.b.b.b.b.b.b.b.b.b.b.b.b.b.b.b.b.b.b.b.b.",
"b.b.b.b.b.b.b.b.b.b.b.b.b.b.b.# # b.b.b.b.b.b.b.b.b.b.b.b.b.b.b.",
"b.b.b.b.b.b.b.b.b.b.b.b.b.b.- % % - b.b.b.b.b.b.b.b.b.b.b.b.b.b.",
"b.b.b.b.b.b.b.b.b.b.b.b.b.b.4 d d 4 b.b.b.b.b.b.b.b.b.b.b.b.b.b.",
"b.b.b.b.b.b.b.b.b.b.b.b.b.b.4 d d 4 b.b.b.b.b.b.b.b.b.b.b.b.b.b.",
"b.b.b.b.b.b.b.b.b.b.b.b.b.s p X X p s b.b.b.b.b.b.b.b.b.b.b.b.b.",
"b.b.b.b.b.b.b.b.b.b.b.b.2 e $ $ $ $ e 2 b.b.b.b.b.b.b.b.b.b.b.b.",
"b.b.b.b.b.b.b.b.b.b.b.b.2 s ^ 9 9 ^ s 2 b.b.b.b.b.b.b.b.b.b.b.b.",
"b.b.b.b.b.b.b.b.b.b.b.b.2 a ( 7 7 ( a 2 b.b.b.b.b.b.b.b.b.b.b.b.",
"b.b.b.b.b.b.b.b.7.c.b.b.2 a ( 7 7 ( a 2 b.b.c.7.b.b.b.b.b.b.b.b.",
"b.b.b.b.b.b.b.b.6.c.b.b.2 a ( 7 7 ( a 2 b.b.c.6.b.b.b.b.b.b.b.b.",
"b.b.b.b.b.b.b.b.>.h.b.b.2 s / 7 7 / s 2 b.b.h.>.b.b.b.b.b.b.b.b.",
"b.b.b.b.b.b.b.7 o.=.b.w a P N . . N P a w b.=.o.7 b.b.b.b.b.b.b.",
"b.b.b.b.b.b.b.: n <.b.q , 2   + +   2 , q b.<.n : b.b.b.b.b.b.b.",
"b.b.b.g.b.b.b.2 b [ 4.1.J 2 @ ;.;.@ 2 J 2.4.[ b 2 b.b.b.p.b.b.b.",
"b.b.b.i.b.b.b.< G ] ` ) S l u d.d.u l S ) ` ] G < b.b.b.i.b.b.b.",
"b.b.b.y.b.b.b.b.3._ r c f #.f.v.v.f.#.f c r _ 3.b.b.b.b.y.b.b.b.",
"b.b.O.:.*.b.b.b.5.' g j o +.j.w.w.j.+.o j g ' 5.b.b.b.*.:.O.b.b.",
"b.b.9 U B b.b.> H ~ z h O @.r.t t t.@.O h z ~ H > b.b.B U 9 b.b.",
"b.b.7 T C b.p a T Z v d & y ..F F ..y & d v Z T a p b.C T 7 b.b.",
"b.b.7 Y m 4 j Y k 4 0 b V K p = = p K V b 0 4 k Y j 4 m Y 7 b.b.",
"b.b.7 h a h I 6 Q D 5 &.a. .R * * R  .a.&.5 D Q 6 I h a h 7 b.b.",
"b.b.7 w $ x 6 I M A L -.l.| W X X W | l.-.L A M I 6 x $ w 7 b.b.",
"b.b.7 a x N E N 1 i q.z.v.} w ! ! w { v.z.q.i 1 N E N x a 7 b.b.",
"b.b.7 9 * C v s 3 b.u.x.k.%.p d d p $.k.x.u.b.3 s v C * 9 7 b.b.",
"b.b.7 9 h Z 6 4 b.b.0.s.e.X.5 ( ( 5 X.e.s.0.b.b.4 6 Z h 9 7 b.b.",
"b.b.7 d p e 6 b.b.b.,.9.8.b.; Z Z ; b.8.9.,.b.b.b.6 e p d 7 b.b.",
"b.b.9 I m 4 b.b.b.b.b.b.b.b.2 w w 2 b.b.b.b.b.b.b.b.4 m I 9 b.b.",
"b.b.6 a d b.b.b.b.b.b.b.b.b.b.8 8 b.b.b.b.b.b.b.b.b.b.d a 6 b.b.",
"b.b.b.b.b.b.b.b.b.b.b.b.b.b.b.b.b.b.b.b.b.b.b.b.b.b.b.b.b.b.b.b.",
"b.b.b.b.b.b.b.b.b.b.b.b.b.b.b.b.b.b.b.b.b.b.b.b.b.b.b.b.b.b.b.b."
};
