/* XPM */
static char *_0106[] = {
/* columns rows colors chars-per-pixel */
"32 32 147 2 ",
"   c #0A0D0A",
".  c #0C0C0C",
"X  c #0D0D0D",
"o  c #0E0E0E",
"O  c #0F0E0F",
"+  c #110E12",
"@  c #120F12",
"#  c #101010",
"$  c #111111",
"%  c #131313",
"&  c #151515",
"*  c #161616",
"=  c #161716",
"-  c #171717",
";  c #171816",
":  c #181917",
">  c #191318",
",  c #181418",
"<  c #1A1519",
"1  c #191719",
"2  c #181818",
"3  c #181918",
"4  c #191919",
"5  c #1B1A1B",
"6  c #1B1B1B",
"7  c #1C1C1C",
"8  c #1D1C1D",
"9  c #1D1D1D",
"0  c #1C1E1C",
"q  c #1C1F1D",
"w  c #1E1E1E",
"e  c #1F1F1F",
"r  c #18231A",
"t  c #26142D",
"y  c #2F0E31",
"u  c #281432",
"i  c #301332",
"p  c #202020",
"a  c #202021",
"s  c #212121",
"d  c #222222",
"f  c #232323",
"g  c #252225",
"h  c #252425",
"j  c #252525",
"k  c #262626",
"l  c #272727",
"z  c #2A222A",
"x  c #282628",
"c  c #282828",
"v  c #292829",
"b  c #292929",
"n  c #292A29",
"m  c #2A282A",
"M  c #2A2A2A",
"N  c #2A2B2A",
"B  c #2B2B2B",
"V  c #2C2B2C",
"C  c #2D2A2E",
"Z  c #2C2C2C",
"A  c #2D2D2D",
"S  c #2D2F2D",
"D  c #2E2E2E",
"F  c #2F2F2F",
"G  c #302A2F",
"H  c #243B26",
"J  c #29312A",
"K  c #2A312B",
"L  c #2F302F",
"P  c #342D35",
"I  c #303030",
"U  c #313131",
"Y  c #333133",
"T  c #323232",
"R  c #333333",
"E  c #353435",
"W  c #353535",
"Q  c #363536",
"!  c #363636",
"~  c #373737",
"^  c #383537",
"/  c #3A3A3A",
"(  c #3C3C3C",
")  c #3D3D3D",
"_  c #15411A",
"`  c #0B7216",
"'  c #097815",
"]  c #1E4D24",
"[  c #2E5C33",
"{  c #375C3B",
"}  c #3C0F52",
"|  c #3D0F52",
" . c #3E1154",
".. c #3F1C51",
"X. c #410E46",
"o. c #401144",
"O. c #411C43",
"+. c #441A46",
"@. c #530759",
"#. c #530858",
"$. c #55095B",
"%. c #431755",
"&. c #441755",
"*. c #421459",
"=. c #42145A",
"-. c #501F53",
";. c #57305A",
":. c #4D0E6B",
">. c #5D0565",
",. c #5E1265",
"<. c #73017E",
"1. c #790F7F",
"2. c #464145",
"3. c #10821C",
"4. c #10821D",
"5. c #04AF16",
"6. c #08BD1B",
"7. c #11A622",
"8. c #740183",
"9. c #750184",
"0. c #7B0E82",
"q. c #7A0F82",
"w. c #77008B",
"e. c #73038C",
"r. c #650792",
"t. c #770190",
"y. c #760095",
"u. c #760096",
"i. c #7A0097",
"p. c #7C0097",
"a. c #7B019C",
"s. c #7F099F",
"d. c #710CA2",
"f. c #720CA2",
"g. c #7F00AB",
"h. c #7903AF",
"j. c #7F00B1",
"k. c #80099F",
"l. c #800D9F",
"z. c #8300B6",
"x. c #8400BD",
"c. c #8400C2",
"v. c #8500C3",
"b. c #8700C7",
"n. c #8A0BC5",
"m. c #8900C9",
"M. c None",
/* pixels */
"M.M.M.M.M.M.M.M.M.M.M.M.M.M.M.M.M.M.M.M.M.M.M.M.M.M.M.M.M.M.M.M.",
"M.M.M.M.M.M.M.M.M.M.M.M.M.M.M.M.M.M.M.M.M.M.M.M.M.M.M.M.M.M.M.M.",
"M.M.6 9 7 7 7 7 7 7 7 7 9 +.M.M.M.M.M.M.M.M.M.M.M.M.M.M.M.M.M.M.",
"M.M.s U f 9 9 s w j T R Y ,.i.a.k.M.M.M.M.M.M.M.M.M.M.M.M.M.M.M.",
"M.M.f M p j * c $ s M Z V -.M.M.M.M.M.M.M.M.M.M.M.M.M.M.M.M.M.M.",
"M.M.M.4 e A Z B c j 4 M.M.M.M.M.M.M.M.M.M.M.M.M.M.M.M.M.M.M.M.M.",
"M.M.M.M.6 6 b W 6 U k p M.M.M.M.M.M.M.M.M.M.M.M.M.M.M.M.M.M.M.M.",
"M.M.M.M.M.4 d B U 6 T s > M.M.< 2 : 7 M.M.M.M.M.M.M.M.M.M.M.M.M.",
"M.M.M.M.M.M.3 1 N ! l R J 7.5.H n m O.<.8.9.M.M.M.M.M.M.M.M.M.M.",
"M.M.M.M.M.M.M.i S F 4 A ^ ] ` [ { 2.;.l.n.n.M.M.M.M.M.M.M.M.M.M.",
"M.M.M.M.1.w.p.e.P 5 0 b x h r ' 6.M.M.M.M.M.M.M.M.M.M.M.M.M.M.M.",
"M.M.M.M.q.g.b.v.:.*.n f j k v _ 3.q w M.M.M.M.M.M.M.M.M.M.M.M.M.",
"M.M.M.M.0.t.x.m.c.d.C & O o g D K , s 2 2 2 2 2 2 M.M.M.M.M.M.M.",
"M.M.M.M.M.o.&.|  ...L y #.@.$.z 2 2 I d s s s d e d M.M.M.M.M.M.",
"M.M.M.2 ; 5 a w Q E p X.y.z.j.u @   B ( ) ) ) / $ p 4 4 - M.M.M.",
"M.M.8 w A ) f ~ X * = G t r.m.h.>.+ . 7 7 7 7 9 $ X f f % # M.M.",
"M.M.8 w A ) f ~ X * = G t r.m.h.>.+ . 7 7 7 7 9 $ X f f % # M.M.",
"M.M.M.2 ; 5 a w Q E p X.u.z.j.u @   B ( ) ) ) / $ p 4 4 - M.M.M.",
"M.M.M.M.M.o.%.}  ...L y #.@.$.z 2 2 I d s s s d e d M.M.M.M.M.M.",
"M.M.M.M.0.t.x.m.c.f.C & O o g D K , s 2 2 2 2 2 2 M.M.M.M.M.M.M.",
"M.M.M.M.q.g.b.v.:.=.n f j k v _ 4.q w M.M.M.M.M.M.M.M.M.M.M.M.M.",
"M.M.M.M.1.w.p.e.P 5 0 b x h r ' 6.M.M.M.M.M.M.M.M.M.M.M.M.M.M.M.",
"M.M.M.M.M.M.M.i S F 4 A ^ ] ` [ { 2.;.l.n.n.M.M.M.M.M.M.M.M.M.M.",
"M.M.M.M.M.M.3 1 N ! l R J 7.5.H n m O.<.8.9.M.M.M.M.M.M.M.M.M.M.",
"M.M.M.M.M.4 d B U 6 T s > M.M.< 2 : 7 M.M.M.M.M.M.M.M.M.M.M.M.M.",
"M.M.M.M.6 6 b W 6 U k p M.M.M.M.M.M.M.M.M.M.M.M.M.M.M.M.M.M.M.M.",
"M.M.M.4 e A Z B c j 4 M.M.M.M.M.M.M.M.M.M.M.M.M.M.M.M.M.M.M.M.M.",
"M.M.f M p j * c $ s M Z V -.M.M.M.M.M.M.M.M.M.M.M.M.M.M.M.M.M.M.",
"M.M.s U f 9 9 s w j T R Y ,.i.a.s.M.M.M.M.M.M.M.M.M.M.M.M.M.M.M.",
"M.M.6 9 7 7 7 7 7 7 7 7 9 +.M.M.M.M.M.M.M.M.M.M.M.M.M.M.M.M.M.M.",
"M.M.M.M.M.M.M.M.M.M.M.M.M.M.M.M.M.M.M.M.M.M.M.M.M.M.M.M.M.M.M.M.",
"M.M.M.M.M.M.M.M.M.M.M.M.M.M.M.M.M.M.M.M.M.M.M.M.M.M.M.M.M.M.M.M."
};
