/* XPM */
static char *_0105[] = {
/* columns rows colors chars-per-pixel */
"32 32 126 2 ",
"   c #0D0E0D",
".  c #0F110E",
"X  c #140C14",
"o  c #151415",
"O  c #181617",
"+  c #161815",
"@  c #171519",
"#  c #191518",
"$  c #1C1B1C",
"%  c #1F211E",
"&  c #1D2A1F",
"*  c #18381D",
"=  c #1D1720",
"-  c #2F0B2F",
";  c #251626",
":  c #241C25",
">  c #231528",
",  c #2B172B",
"<  c #271D29",
"1  c #2D1D2D",
"2  c #360A38",
"3  c #2E1331",
"4  c #2E1B32",
"5  c #341435",
"6  c #351D3B",
"7  c #242423",
"8  c #282727",
"9  c #232923",
"0  c #2D262C",
"q  c #2B2B2B",
"w  c #223625",
"e  c #293027",
"r  c #2B312B",
"t  c #2F2C30",
"y  c #332433",
"u  c #332B35",
"i  c #35263D",
"p  c #352A3B",
"a  c #333333",
"s  c #333934",
"d  c #3B363E",
"f  c #3C3C3C",
"g  c #0F4D16",
"h  c #1A401E",
"j  c #144C1A",
"k  c #0D5D17",
"l  c #13511A",
"z  c #145A1C",
"x  c #136B1C",
"c  c #12771C",
"v  c #254429",
"b  c #2B402E",
"n  c #255C2B",
"m  c #364037",
"M  c #355139",
"N  c #3E0941",
"B  c #351844",
"V  c #37104A",
"C  c #3C164F",
"Z  c #440947",
"A  c #4A194D",
"S  c #4D0F56",
"D  c #4F075A",
"F  c #4C1951",
"G  c #521C56",
"H  c #49254B",
"J  c #503B4F",
"K  c #432451",
"L  c #4F2052",
"P  c #553A54",
"I  c #470D64",
"U  c #480B65",
"Y  c #4F0B6D",
"T  c #5C0663",
"R  c #570B60",
"E  c #5C066B",
"W  c #520C68",
"Q  c #4B1067",
"!  c #4C1168",
"~  c #571063",
"^  c #561475",
"/  c #630F6C",
"(  c #620F74",
")  c #74007E",
"_  c #79107F",
"`  c #682075",
"'  c #404C41",
"]  c #0B8D1A",
"[  c #0E991D",
"{  c #05A516",
"}  c #05A816",
"|  c #08BC1C",
" . c #148421",
".. c #148B21",
"X. c #159323",
"o. c #2B8334",
"O. c #5F0785",
"+. c #6D0385",
"@. c #600B87",
"#. c #6E058F",
"$. c #62098D",
"%. c #740181",
"&. c #770886",
"*. c #780E80",
"=. c #72038B",
"-. c #78018E",
";. c #790B8D",
":. c #6C0894",
">. c #6F049D",
",. c #6C0A9C",
"<. c #7A0491",
"1. c #7C029C",
"2. c #7F099F",
"3. c #7E01A2",
"4. c #7A06B2",
"5. c #800A9F",
"6. c #8006A6",
"7. c #8307A9",
"8. c #8101B6",
"9. c #8301BE",
"0. c #880ABD",
"q. c #8600C5",
"w. c #8A00CE",
"e. c #8D0CCC",
"r. c #8D00D2",
"t. c None",
/* pixels */
"t.t.t.t.t.t.t.t.t.t.t.t.t.t.t.t.t.t.t.t.t.t.t.t.t.t.t.t.t.t.t.t.",
"t.t.t.t.t.t.t.t.t.t.t.t.t.t.t.t.t.t.t.t.t.t.t.t.t.t.t.t.t.t.t.t.",
"t.t.t.t.t.t.t.t.t.t.t.t.t.t.t.t.t.t.t.t.t.t.t.t.t.t.t.t.t.t.t.t.",
"t.t.t.t.t.t.t.t.t.4 A t.2.5.t.t.t.t.t.t.t.t.t.t.t.t.t.t.t.t.t.t.",
"t.t.t.t.t.$ $ 7 7 u / 1.1.t.t.t.t.t.t.t.t.t.t.t.t.t.t.t.t.t.t.t.",
"t.$ $ $ $ $ 7 a a r F t.t.t.t.t.t.t.t.t.t.t.t.t.t.t.t.t.t.t.t.t.",
"7 7 $ $ 7 o $ 8 q t.t.t.t.t.t.t.t.t.t.t.t.t.t.t.t.t.t.t.t.t.t.t.",
"a 7 7 $ 7 7 7 7 O t.t.t.t.O O $ 4 ) %.-.t.t.t.t.t.t.t.t.t.t.t.t.",
"7 7 7 q r t % a 8 $ # t.t.9 7 t H ;.0.e.t.t.t.t.t.t.t.t.t.t.t.t.",
"t.O $ $ 8 u q $ a q 8 X.{ n M ' P t.t.t.t.t.t.t.t.t.t.t.t.t.t.t.",
"t.t.t.O % % 8 s 8 8 a s j z [ | t.t.t.t.t.+ @ O t.t.t.t.t.t.t.t.",
"t.t.t.t.t.# 7 a 7 % q 8 7 & k c $ % + O $ $ % % 7 O O O o t.t.t.",
"t.t.t.t.t.t.~ q $ 7 8 7 7 8 q r O 8 7 7 8 a f $ o $ 7 O o . t.t.",
"t.t.t.*.<.6.8.! Q u O   X 5 y $ o 7 a f f t 7 O . o 8 7 o t.t.t.",
"t.t.t.*.3.q.r.q.4.K < N T +.W @ X . O = $ O O $   + $ O O t.t.t.",
"t.t.t.*.&.#.@.I C i 8 D 1.4.q.>.R     % 7 q s f o 7 t.t.t.t.t.t.",
"t.t.t.t.t.5 4 : a q $ u > O.q.9.E X O f f a q 8 % % t.t.t.t.t.t.",
"t.t.t.O + % 7 a o . o q < O.q.Y o   7 8 7 $ O O + t.t.t.t.t.t.t.",
"t.t.t.$ 8 f q s $ + $ , E 3.=.S 7 $ $ 7 + O t.t.t.t.t.t.t.t.t.t.",
"t.t.$ $ 8 a 8 7 8 d p 0 2 Z - 0 q v $ $ t.t.t.t.t.t.t.t.t.t.t.t.",
"t.t.t.$ O + ; 6 V I ^ q o o + 8 * ] l t.t.t.e.t.t.t.t.t.t.t.t.t.",
"t.t.t.t.t.t.R :.q.q.,.i 7 8 7 : g [ o.P ` 7.6.<.t.t.t.t.t.t.t.t.",
"t.t.t.t.t.*.<.9.r.$.B : 7 q q h x M m u A %.) t.t.t.t.t.t.t.t.t.",
"t.t.t.t.t.t.;.3.3.( e % O a s ..} w 7 $ $ t.t.t.t.t.t.t.t.t.t.t.",
"t.t.t.t.t.t.*.t.t.5 q a 7 a 7  .t.O O t.t.t.t.t.t.t.t.t.t.t.t.t.",
"t.t.t.t.t.t.t.t.+ # 8 e q 8 $ t.t.t.t.t.t.t.t.t.t.t.t.t.t.t.t.t.",
"t.t.t.t.t.t.t.t.% 7 t 7 r 7 t.t.t.t.t.t.t.t.t.t.t.t.t.t.t.t.t.t.",
"t.t.t.t.t.t.t.$ $ r t 7 8 O t.t.L t.t.3.t.t.t.t.t.t.t.t.t.t.t.t.",
"t.t.t.t.t.t.t.$ 8 q q 7 % 8 q r G =.1.5.t.t.t.t.t.t.t.t.t.t.t.t.",
"t.t.t.t.t.t.$ = 8 $ 7 O % t s q i F t.t.t.t.t.t.t.t.t.t.t.t.t.t.",
"t.t.t.t.t.t.8 8 7 $ % % % $ $ O t.t.t.t.t.t.t.t.t.t.t.t.t.t.t.t.",
"t.t.t.t.t.t.7 r = $ $ $ t.t.t.t.t.t.t.t.t.t.t.t.t.t.t.t.t.t.t.t."
};
