/* XPM */
static char *_0110[] = {
/* columns rows colors chars-per-pixel */
"32 32 127 2 ",
"   c #070707",
".  c #0D0D0D",
"X  c #0C100C",
"o  c #0F0F11",
"O  c #150B15",
"+  c #141514",
"@  c #171917",
"#  c #1A151A",
"$  c #1B1C1B",
"%  c #201F1F",
"&  c #172619",
"*  c #1D231D",
"=  c #1C341F",
"-  c #193D1D",
";  c #1D1522",
":  c #1E1B20",
">  c #220A23",
",  c #2C0D2D",
"<  c #231D23",
"1  c #2D142E",
"2  c #271B2A",
"3  c #2C1E2E",
"4  c #2A1434",
"5  c #331535",
"6  c #331D34",
"7  c #3A153C",
"8  c #371B39",
"9  c #381A3B",
"0  c #1E3520",
"q  c #242424",
"w  c #242A25",
"e  c #282A27",
"r  c #2B262C",
"t  c #272D28",
"y  c #2B2C2B",
"u  c #2D322D",
"i  c #2D3B2F",
"p  c #2F2E30",
"a  c #332334",
"s  c #312F32",
"d  c #3B273C",
"f  c #372B3D",
"g  c #3C293D",
"h  c #323232",
"j  c #343A35",
"k  c #3A3B3A",
"l  c #104F17",
"z  c #194A1E",
"x  c #115919",
"c  c #0E6217",
"v  c #14661C",
"b  c #14791F",
"n  c #1D5824",
"m  c #264629",
"M  c #325A37",
"N  c #355C3A",
"B  c #186320",
"V  c #1B6D24",
"C  c #157120",
"Z  c #39144B",
"A  c #3D1451",
"S  c #392642",
"D  c #3B2944",
"F  c #430945",
"G  c #430D5D",
"H  c #4D0C5C",
"J  c #500C55",
"K  c #54065C",
"L  c #4F1753",
"P  c #411954",
"I  c #48155C",
"U  c #531559",
"Y  c #59155F",
"T  c #462249",
"R  c #4C204E",
"E  c #4D3B4D",
"W  c #552E59",
"Q  c #590767",
"!  c #4B1864",
"~  c #5F0672",
"^  c #5B1571",
"/  c #5B137E",
"(  c #62066E",
")  c #620574",
"_  c #670578",
"`  c #73007D",
"'  c #79107E",
"]  c #4D414C",
"[  c #068E15",
"{  c #10821C",
"}  c #069E16",
"|  c #03B916",
" . c #08B81B",
".. c #139621",
"X. c #238B2F",
"o. c #0FB621",
"O. c #590880",
"+. c #6F0883",
"@. c #62068B",
"#. c #6A0C89",
"$. c #740583",
"%. c #790C82",
"&. c #73008A",
"*. c #79038E",
"=. c #770F8D",
"-. c #7B0C8A",
";. c #660691",
":. c #740197",
">. c #790192",
",. c #7C019C",
"<. c #7E099F",
"1. c #7104A3",
"2. c #7E03A2",
"3. c #7704AA",
"4. c #7509A9",
"5. c #7B02B4",
"6. c #7E04B8",
"7. c #810F87",
"8. c #8200B4",
"9. c #870AB4",
"0. c #8500BC",
"q. c #8609B8",
"w. c #8500C3",
"e. c #890AC0",
"r. c #8800C8",
"t. c #8D00D1",
"y. c None",
/* pixels */
"y.y.y.y.y.y.y.y.y.y.y.y.y.y.y.y.y.y.$ $ % $ $ y.y.y.y.y.y.y.y.y.",
"y.y.y.y.y.y.y.y.y.y.y.y.y.y.y.y.y.y.$ q r # % $ y.y.y.y.y.y.y.y.",
"y.y.y.y.y.y.y.y.y.y.y.y.y.y.y.y.y.y.$ q e q q $ y.y.y.y.y.y.y.y.",
"y.y.y.y.y.y.y.y.y.y.y.y.y.y.%.%.y.y.q h y q + q $ y.y.y.y.y.y.y.",
"y.y.y.y.y.y.y.y.$ $ $ + y.%.2.>.y.+ $ p $ e $ e q $ y.y.y.y.y.y.",
"y.y.y.y.y.y.y.y.@ q e $ 4 ) 0.0.&.1 q h e y q y h $ y.y.y.y.y.y.",
"y.y.y.y.y.y.y.y.@ q k h < I w.r.^ u j s r q + y u e 6 y.y.y.y.y.",
"y.y.y.y.y.y.y.7.y.$ h q % 4 @.6.A $ q q y q y.y.d Y L y.y.y.y.y.",
"y.y.y.y.y.' -.*.J 3 q k y h A 4.! q $ r p $ y.y.y.$.,.y.y.y.y.y.",
"y.y.y.y.y.$.8.8.3.Z % $   t f D e q e h i B y.y.y.y.,.y.y.y.y.y.",
"$ $ y.y.y.y.,.r.t.O.S u + + $ 3 # $ e e n  .y.y.y.y.y.y.y.y.y.y.",
"$ q $ $ $ + Q #.@.8.P y @ q 6 K F . q < l { = # y.y.y.y.y.y.y.y.",
"q y r e q $ r t Z / S y 5 y < :._ , q w v M t $ y.y.y.y.y.y.y.y.",
"$ $ y h s p j q : t * , ) H G 1.8.J e - } X.k q $ y.y.y.y.y.y.y.",
"$ e q q q : h $ q q @ > ) 8.5.r.@.2 r m v y.E T 7 y.y.y.y.y.y.y.",
"$ $ + e p y y h s w e . F :.3.w.@.O + # # y.y.=.$.y.y.y.y.y.y.y.",
"@ q q q $ q $ y j t q q a 9 ; ~ K O + e $ y.y.e.<.` y.y.y.y.y.y.",
"y.: h y y.y.y.z ..x & = t q X O O X r y $ y.y.y.q.y.y.y.y.y.y.y.",
"y.$ e h e y.y.y.| C V [ b q # $ + . t k < @ y.y.y.y.y.y.y.y.y.y.",
"y.y.$ g R y.y.y.* i M o.- # e h j $ $ k y $ + y.y.y.y.y.y.y.y.y.",
"y.y.8 U $.y.y.y.+ q j E y.$ $ $ k r @ q k q $ y.y.y.y.y.y.y.y.y.",
"y.y.y.y.>.y.y.y.y.$ a W y.y.y.$ e k $ $ k p $ @ y.y.y.y.y.y.y.y.",
"y.y.y.y.y.9.y.y.y.@ 7 +.9.y.y.@ $ h h $ $ + $ y.y.y.y.y.y.y.y.y.",
"y.y.y.y.y.y.y.y.y.y.y.` q.y.y.y.# q h + . + q y.y.y.y.y.y.y.y.y.",
"y.y.y.y.y.y.y.y.y.y.y.y.>.y.y.y.@ $ $ @ . $ $ y.y.y.y.y.y.y.y.y.",
"y.y.y.y.y.y.y.y.y.y.y.y.y.y.y.y.y.@ q $ : e $ # y.y.y.y.y.y.y.y.",
"y.y.y.y.y.y.y.y.y.y.y.y.y.y.y.y.y.y.y.y.$ $ + + y.y.y.y.y.y.y.y.",
"y.y.y.y.y.y.y.y.y.y.y.y.y.y.y.y.y.y.y.y.$ + o + y.y.y.y.y.y.y.y.",
"y.y.y.y.y.y.y.y.y.y.y.y.y.y.y.y.y.y.y.y.y.y.y.y.y.y.y.y.y.y.y.y.",
"y.y.y.y.y.y.y.y.y.y.y.y.y.y.y.y.y.y.y.y.y.y.y.y.y.y.y.y.y.y.y.y.",
"y.y.y.y.y.y.y.y.y.y.y.y.y.y.y.y.y.y.y.y.y.y.y.y.y.y.y.y.y.y.y.y.",
"y.y.y.y.y.y.y.y.y.y.y.y.y.y.y.y.y.y.y.y.y.y.y.y.y.y.y.y.y.y.y.y."
};
