/* XPM */
static char *_0119[] = {
/* columns rows colors chars-per-pixel */
"32 32 124 2 ",
"   c #0D0E0D",
".  c #0F110E",
"X  c #140C14",
"o  c #151415",
"O  c #181617",
"+  c #161815",
"@  c #171519",
"#  c #191518",
"$  c #1C1B1C",
"%  c #1F211E",
"&  c #1D2A1F",
"*  c #18381D",
"=  c #1D1720",
"-  c #2F0B2F",
";  c #251626",
":  c #241C25",
">  c #231528",
",  c #2B172B",
"<  c #271D28",
"1  c #2D1D2D",
"2  c #360A38",
"3  c #2E1331",
"4  c #2E1B32",
"5  c #341435",
"6  c #351D3B",
"7  c #242423",
"8  c #282727",
"9  c #232923",
"0  c #2D262C",
"q  c #2B2B2B",
"w  c #223625",
"e  c #293027",
"r  c #2B312B",
"t  c #2F2C30",
"y  c #332433",
"u  c #332B35",
"i  c #35263D",
"p  c #352A3B",
"a  c #333333",
"s  c #333934",
"d  c #3B363E",
"f  c #3C3C3C",
"g  c #0F4D16",
"h  c #1A401E",
"j  c #144C1A",
"k  c #0D5D17",
"l  c #13511A",
"z  c #145A1C",
"x  c #136B1C",
"c  c #12771D",
"v  c #254428",
"b  c #2B402E",
"n  c #255C2B",
"m  c #364037",
"M  c #355139",
"N  c #3E0940",
"B  c #351844",
"V  c #3A134D",
"C  c #440947",
"Z  c #4A194D",
"A  c #4D0F56",
"S  c #4F075B",
"D  c #4C1951",
"F  c #521C56",
"G  c #49254B",
"H  c #503B4F",
"J  c #432451",
"K  c #4F2052",
"L  c #553A54",
"P  c #470C64",
"I  c #4F0B6D",
"U  c #5C0663",
"Y  c #570B60",
"T  c #5C066B",
"R  c #520C68",
"E  c #4B1067",
"W  c #4C1168",
"Q  c #571063",
"!  c #561475",
"~  c #630F6C",
"^  c #620F74",
"/  c #74007E",
"(  c #79107F",
")  c #682075",
"_  c #404C41",
"`  c #0B8D19",
"'  c #0E991D",
"]  c #05A516",
"[  c #05A816",
"{  c #08BC1C",
"}  c #148421",
"|  c #148B21",
" . c #159323",
".. c #2B8334",
"X. c #5F0785",
"o. c #6D0385",
"O. c #600B87",
"+. c #6E058F",
"@. c #62098D",
"#. c #740181",
"$. c #770886",
"%. c #780E80",
"&. c #72038B",
"*. c #78018E",
"=. c #790B8D",
"-. c #6C0894",
";. c #6F049D",
":. c #6C0A9C",
">. c #7A0491",
",. c #7C029C",
"<. c #7F0A9F",
"1. c #7E01A2",
"2. c #7A06B2",
"3. c #80099F",
"4. c #8006A6",
"5. c #8307A9",
"6. c #8101B6",
"7. c #8301BE",
"8. c #880ABD",
"9. c #8600C5",
"0. c #8A00CE",
"q. c #8D0CCC",
"w. c #8D00D2",
"e. c None",
/* pixels */
"e.e.e.e.e.e.e.e.e.e.e.e.e.e.e.e.e.e.e.e.e.e.e.e.e.e.e.e.e.e.e.e.",
"e.e.e.e.e.e.e.e.e.e.e.e.e.e.e.e.e.e.e.e.e.e.e.e.e.e.e.e.e.e.e.e.",
"e.e.e.e.e.e.e.e.e.e.e.e.e.e.e.e.e.e.e.e.e.e.e.e.e.e.e.e.e.e.e.e.",
"e.e.e.e.e.e.e.e.e.e.e.e.e.e.e.e.e.e.4.,.e.Z 1 e.e.e.e.e.e.e.e.e.",
"e.e.e.e.e.e.e.e.e.e.e.e.e.e.e.e.e.e.e.,.,.~ u 8 7 $ $ e.e.e.e.e.",
"e.e.e.e.e.e.e.e.e.e.e.e.e.e.e.e.e.e.e.e.e.K q a a 8 $ $ $ $ $ e.",
"e.e.e.e.e.e.e.e.e.e.e.e.e.e.e.e.e.e.e.e.e.e.e.q 8 $ + 7 $ $ 7 7 ",
"e.e.e.e.e.e.e.e.e.e.e.e.=.#./ 4 $ O O e.e.e.e.O $ 8 7 8 $ 7 8 q ",
"e.e.e.e.e.e.e.e.e.e.e.e.q.8.=.G q 8 & e.e.@ $ 8 a $ q q q 8 % 8 ",
"e.e.e.e.e.e.e.e.e.e.e.e.e.e.e.L _ M n ]  .8 q a $ q a q $ $ O e.",
"e.e.e.e.e.e.e.e.O O O e.e.e.e.e.{ ' z j b a q 8 s q $ 7 O e.e.e.",
"e.e.e.o O O O 7 % % % $ O O $ $ c k & : q 0 $ 7 a < O e.e.e.e.e.",
"e.e.. o O 7 O + $ f a q : % 8 O r r 8 7 8 8 7 = q Q e.e.e.e.e.e.",
"e.e.e.o % 8 o   O 7 t s f s 7 o $ y 5 X o O 0 W W 6.1.=.%.e.e.e.",
"e.e.e.O O $ O   = O O $ = O . X @ R o.U N < J 2.9.w.9.1.%.e.e.e.",
"e.e.e.e.e.e.7 + m f r 7 $   . U ;.9.2.,.S 0 p V P O.+.$.( e.e.e.",
"e.e.e.e.e.e.$ 7 8 0 s f a $ X T 7.9.X.> y O r s : 4 5 e.e.e.e.e.",
"e.e.e.e.e.e.e.O O O $ % q 7   o I 9.X.< 0 + o o a % $ + O e.e.e.",
"e.e.e.e.e.e.e.e.e.e.O O 7 $ $ 7 A +.1.T < $ + $ a q f 8 % e.e.e.",
"e.e.e.e.e.e.e.e.e.e.e.e.% $ v r 4 - C 2 0 p d 7 % q a 8 $ = e.e.",
"e.e.e.e.e.e.e.e.e.q.e.e.e.l ` * 8 + . + t ! P V 6 ; + $ $ e.e.e.",
"e.e.e.e.e.e.e.e.>.4.5.) L ..' g : 8 8 7 i :.9.7.-.Y e.e.e.e.e.e.",
"e.e.e.e.e.e.e.e.e./ #.Z u m M x * r q 8 : B O.0.9.=.%.e.e.e.e.e.",
"e.e.e.e.e.e.e.e.e.e.e.$ $ 7 w [ | s r O 7 q ^ 1.1.=.e.e.e.e.e.e.",
"e.e.e.e.e.e.e.e.e.e.e.e.e.O O e.} 8 a 8 s q 3 e.e.( e.e.e.e.e.e.",
"e.e.e.e.e.e.e.e.e.e.e.e.e.e.e.e.e.O 8 q q q O + e.e.e.e.e.e.e.e.",
"e.e.e.e.e.e.e.e.e.e.e.e.e.e.e.e.e.e.7 q 7 u 8 $ e.e.e.e.e.e.e.e.",
"e.e.e.e.e.e.e.e.e.e.e.e.3.e.e.K e.e.O 8 7 r r $ O e.e.e.e.e.e.e.",
"e.e.e.e.e.e.e.e.e.e.e.e.3.,.&.F r q q $ 7 q q 8 % e.e.e.e.e.e.e.",
"e.e.e.e.e.e.e.e.e.e.e.e.e.e.D i q a q % + 8 $ 8 = O e.e.e.e.e.e.",
"e.e.e.e.e.e.e.e.e.e.e.e.e.e.e.e.$ O $ 7 % = $ % q 8 e.e.e.e.e.e.",
"e.e.e.e.e.e.e.e.e.e.e.e.e.e.e.e.e.e.e.e.$ $ $ % q 8 e.e.e.e.e.e."
};
