/* XPM */
static char *_0112[] = {
/* columns rows colors chars-per-pixel */
"32 32 151 2 ",
"   c #0A0D0A",
".  c #0C0C0C",
"X  c #0D0D0D",
"o  c #0E0E0E",
"O  c #0F0E0F",
"+  c #110E12",
"@  c #120F12",
"#  c #101010",
"$  c #111111",
"%  c #131313",
"&  c #151515",
"*  c #161616",
"=  c #161716",
"-  c #171717",
";  c #171816",
":  c #181917",
">  c #191318",
",  c #181418",
"<  c #1A1519",
"1  c #191719",
"2  c #181818",
"3  c #181918",
"4  c #191919",
"5  c #1B1A1B",
"6  c #1B1B1B",
"7  c #1C1C1C",
"8  c #1D1C1D",
"9  c #1D1D1D",
"0  c #1C1E1C",
"q  c #1C1F1D",
"w  c #1E1E1E",
"e  c #1F1F1F",
"r  c #18231A",
"t  c #26142D",
"y  c #2F0E31",
"u  c #281432",
"i  c #301332",
"p  c #202020",
"a  c #202021",
"s  c #212121",
"d  c #222222",
"f  c #232323",
"g  c #252225",
"h  c #252425",
"j  c #252525",
"k  c #262626",
"l  c #272727",
"z  c #2A222A",
"x  c #282628",
"c  c #282828",
"v  c #292829",
"b  c #292929",
"n  c #292A29",
"m  c #2A282A",
"M  c #2A2A2A",
"N  c #2A2B2A",
"B  c #2B2B2B",
"V  c #2C2B2C",
"C  c #2D2A2E",
"Z  c #2C2C2C",
"A  c #2D2D2D",
"S  c #2D2F2D",
"D  c #2E2E2E",
"F  c #2F2F2F",
"G  c #302A2F",
"H  c #243B26",
"J  c #29312A",
"K  c #2A312B",
"L  c #2F302F",
"P  c #342D35",
"I  c #303030",
"U  c #313131",
"Y  c #333133",
"T  c #323232",
"R  c #333333",
"E  c #353435",
"W  c #353535",
"Q  c #363536",
"!  c #363636",
"~  c #373737",
"^  c #383537",
"/  c #3A3A3A",
"(  c #3C3C3C",
")  c #3D3D3D",
"_  c #15411A",
"`  c #0B7216",
"'  c #097815",
"]  c #1E4D24",
"[  c #2E5C33",
"{  c #375C3B",
"}  c #3C0F52",
"|  c #3D0F52",
" . c #3E1154",
".. c #3F1C51",
"X. c #410E46",
"o. c #401144",
"O. c #411C43",
"+. c #441A46",
"@. c #530759",
"#. c #530858",
"$. c #55095B",
"%. c #431755",
"&. c #441755",
"*. c #421459",
"=. c #42145A",
"-. c #501F53",
";. c #57305A",
":. c #4D0E6B",
">. c #5D0565",
",. c #5E1265",
"<. c #73017E",
"1. c #790E7F",
"2. c #790F7F",
"3. c #464145",
"4. c #10821C",
"5. c #10821D",
"6. c #04AF16",
"7. c #08BD1B",
"8. c #11A622",
"9. c #740183",
"0. c #750184",
"q. c #7B0E82",
"w. c #7A0F82",
"e. c #77008B",
"r. c #73038C",
"t. c #77008C",
"y. c #650792",
"u. c #770190",
"i. c #770191",
"p. c #760095",
"a. c #760096",
"s. c #7A0097",
"d. c #7C0097",
"f. c #7B019C",
"g. c #7F099F",
"h. c #710CA2",
"j. c #720CA2",
"k. c #7F00AB",
"l. c #7903AF",
"z. c #7F00B1",
"x. c #80099F",
"c. c #800D9F",
"v. c #8300B6",
"b. c #8400BD",
"n. c #8400C2",
"m. c #8400C3",
"M. c #8500C3",
"N. c #8700C7",
"B. c #8A0BC5",
"V. c #8900C9",
"C. c None",
/* pixels */
"C.C.C.C.C.C.C.C.C.C.C.C.C.C.C.C.C.C.C.C.C.C.C.C.C.C.C.C.C.C.C.C.",
"C.C.C.C.C.C.C.C.C.C.C.C.C.C.C.C.C.C.C.C.C.C.C.C.C.C.C.C.C.C.C.C.",
"C.C.6 s f C.C.C.C.C.C.C.C.C.C.8 8 C.C.C.C.C.C.C.C.C.C.f s 6 C.C.",
"C.C.9 U M 4 C.C.C.C.C.C.C.C.2 w w 2 C.C.C.C.C.C.C.C.4 M U 9 C.C.",
"C.C.7 f p e 6 C.C.C.2.w.q.C.; A A ; C.q.w.1.C.C.C.6 e p f 7 C.C.",
"C.C.7 9 j A 6 4 C.C.t.k.u.o.5 ) ) 5 o.i.k.e.C.C.4 6 A j 9 7 C.C.",
"C.C.7 9 * Z b d 3 C.d.N.b.%.a f f a &.b.N.d.C.3 d b Z * 9 7 C.C.",
"C.C.7 s c B W B 1 i r.M.V.} w ~ ~ w | V.m.r.i 1 B W B c s 7 C.C.",
"C.C.7 w $ c 6 U N S P :.n. .Q X X Q  .n.:.P S N U 6 c $ w 7 C.C.",
"C.C.7 j s j U 6 ! F 5 =.j...E * * E ..h.*.5 F ! 6 U j s j 7 C.C.",
"C.C.7 T M 4 k T l 4 0 n C L p = = p L C n 0 4 l T k 4 M T 7 C.C.",
"C.C.7 R Z C.p s R A b f & y X.G G X.y & f b A R s p C.Z R 7 C.C.",
"C.C.9 Y V C.C.> J ^ x j O #.a.t t p.#.O j x ^ J > C.C.V Y 9 C.C.",
"C.C.+.,.-.C.C.C.8.] h k o @.v.y.y.v.@.o k h ] 8.C.C.C.-.,.+.C.C.",
"C.C.C.s.C.C.C.C.6.` r v g $.z.V.V.z.$.g v r ` 6.C.C.C.C.s.C.C.C.",
"C.C.C.f.C.C.C.< H [ ' _ D z u l.l.u z D _ ' [ H < C.C.C.f.C.C.C.",
"C.C.C.g.C.C.C.2 n { 7.5.K 2 @ >.>.@ 2 K 4.7.{ n 2 C.C.C.x.C.C.C.",
"C.C.C.C.C.C.C.: m 3.C.q , 2   + +   2 , q C.3.m : C.C.C.C.C.C.C.",
"C.C.C.C.C.C.C.7 O.;.C.w s I B . . B I s w C.;.O.7 C.C.C.C.C.C.C.",
"C.C.C.C.C.C.C.C.<.c.C.C.2 d ( 7 7 ( d 2 C.C.c.<.C.C.C.C.C.C.C.C.",
"C.C.C.C.C.C.C.C.9.B.C.C.2 s ) 7 7 ) s 2 C.C.B.9.C.C.C.C.C.C.C.C.",
"C.C.C.C.C.C.C.C.0.B.C.C.2 s ) 7 7 ) s 2 C.C.B.0.C.C.C.C.C.C.C.C.",
"C.C.C.C.C.C.C.C.C.C.C.C.2 s ) 7 7 ) s 2 C.C.C.C.C.C.C.C.C.C.C.C.",
"C.C.C.C.C.C.C.C.C.C.C.C.2 d / 9 9 / d 2 C.C.C.C.C.C.C.C.C.C.C.C.",
"C.C.C.C.C.C.C.C.C.C.C.C.2 e $ $ $ $ e 2 C.C.C.C.C.C.C.C.C.C.C.C.",
"C.C.C.C.C.C.C.C.C.C.C.C.C.d p X X p d C.C.C.C.C.C.C.C.C.C.C.C.C.",
"C.C.C.C.C.C.C.C.C.C.C.C.C.C.4 f f 4 C.C.C.C.C.C.C.C.C.C.C.C.C.C.",
"C.C.C.C.C.C.C.C.C.C.C.C.C.C.4 f f 4 C.C.C.C.C.C.C.C.C.C.C.C.C.C.",
"C.C.C.C.C.C.C.C.C.C.C.C.C.C.- % % - C.C.C.C.C.C.C.C.C.C.C.C.C.C.",
"C.C.C.C.C.C.C.C.C.C.C.C.C.C.C.# # C.C.C.C.C.C.C.C.C.C.C.C.C.C.C.",
"C.C.C.C.C.C.C.C.C.C.C.C.C.C.C.C.C.C.C.C.C.C.C.C.C.C.C.C.C.C.C.C.",
"C.C.C.C.C.C.C.C.C.C.C.C.C.C.C.C.C.C.C.C.C.C.C.C.C.C.C.C.C.C.C.C."
};
