/* XPM */
static char *_0118[] = {
/* columns rows colors chars-per-pixel */
"32 32 155 2 ",
"   c #0A0D0A",
".  c #0C0C0C",
"X  c #0D0D0D",
"o  c #0E0E0E",
"O  c #0F0E0F",
"+  c #110E12",
"@  c #120F12",
"#  c #101010",
"$  c #111111",
"%  c #131313",
"&  c #151515",
"*  c #161616",
"=  c #161716",
"-  c #171717",
";  c #171816",
":  c #181917",
">  c #191318",
",  c #181418",
"<  c #1A1519",
"1  c #191719",
"2  c #181818",
"3  c #181918",
"4  c #191919",
"5  c #1B1A1B",
"6  c #1B1B1B",
"7  c #1C1C1C",
"8  c #1D1C1D",
"9  c #1D1D1D",
"0  c #1C1E1C",
"q  c #1C1F1D",
"w  c #1E1E1E",
"e  c #1F1F1F",
"r  c #18231A",
"t  c #26142D",
"y  c #2F0E31",
"u  c #281432",
"i  c #301332",
"p  c #202020",
"a  c #202021",
"s  c #212121",
"d  c #222222",
"f  c #232323",
"g  c #252225",
"h  c #252425",
"j  c #252525",
"k  c #262626",
"l  c #272727",
"z  c #2A222A",
"x  c #282628",
"c  c #282828",
"v  c #292829",
"b  c #292929",
"n  c #292A29",
"m  c #2A282A",
"M  c #2A2A2A",
"N  c #2A2B2A",
"B  c #2B2B2B",
"V  c #2C2B2C",
"C  c #2D2A2E",
"Z  c #2C2C2C",
"A  c #2D2D2D",
"S  c #2D2F2D",
"D  c #2E2E2E",
"F  c #2F2F2F",
"G  c #302A2F",
"H  c #243B26",
"J  c #29312A",
"K  c #2A312B",
"L  c #2F302F",
"P  c #342D35",
"I  c #303030",
"U  c #313131",
"Y  c #333133",
"T  c #323232",
"R  c #333333",
"E  c #353435",
"W  c #353535",
"Q  c #363536",
"!  c #363636",
"~  c #373737",
"^  c #383537",
"/  c #3A3A3A",
"(  c #3C3C3C",
")  c #3D3D3D",
"_  c #15401A",
"`  c #15411A",
"'  c #0B7216",
"]  c #097815",
"[  c #1E4C24",
"{  c #1E4D24",
"}  c #2E5C33",
"|  c #375B3B",
" . c #375C3B",
".. c #3C0F52",
"X. c #3D0F52",
"o. c #3E1154",
"O. c #3F1C51",
"+. c #410E46",
"@. c #401144",
"#. c #411C43",
"$. c #441A46",
"%. c #530759",
"&. c #540759",
"*. c #530858",
"=. c #55095B",
"-. c #431755",
";. c #441755",
":. c #421459",
">. c #43145A",
",. c #501F53",
"<. c #57305A",
"1. c #4D0E6B",
"2. c #5D0565",
"3. c #5E1265",
"4. c #73017E",
"5. c #790F7F",
"6. c #454145",
"7. c #464145",
"8. c #10821C",
"9. c #10821D",
"0. c #04AF16",
"q. c #08BC1B",
"w. c #08BD1B",
"e. c #11A522",
"r. c #11A622",
"t. c #740183",
"y. c #750184",
"u. c #7B0E82",
"i. c #7A0F82",
"p. c #77008B",
"a. c #73038C",
"s. c #77008C",
"d. c #650792",
"f. c #770190",
"g. c #760095",
"h. c #7A0097",
"j. c #7C0097",
"k. c #7B019C",
"l. c #7F099F",
"z. c #7F0D9F",
"x. c #710CA2",
"c. c #7F00AB",
"v. c #7903AF",
"b. c #7F00B1",
"n. c #80099F",
"m. c #800D9F",
"M. c #8300B6",
"N. c #8400BD",
"B. c #8400C2",
"V. c #8500C3",
"C. c #8700C7",
"Z. c #8A0BC5",
"A. c #8800C9",
"S. c #8900C9",
"D. c None",
/* pixels */
"D.D.D.D.D.D.D.D.D.D.D.D.D.D.D.D.D.D.D.D.D.D.D.D.D.D.D.D.D.D.D.D.",
"D.D.D.D.D.D.D.D.D.D.D.D.D.D.D.D.D.D.D.D.D.D.D.D.D.D.D.D.D.D.D.D.",
"D.D.D.D.D.D.D.D.D.D.D.D.D.D.D.D.D.D.$.9 7 7 7 7 7 7 7 7 9 6 D.D.",
"D.D.D.D.D.D.D.D.D.D.D.D.D.D.D.l.k.h.3.Y R T j w s 9 9 f U s D.D.",
"D.D.D.D.D.D.D.D.D.D.D.D.D.D.D.D.D.D.,.V Z M s $ c * j p M f D.D.",
"D.D.D.D.D.D.D.D.D.D.D.D.D.D.D.D.D.D.D.D.D.4 j c B Z A e 4 D.D.D.",
"D.D.D.D.D.D.D.D.D.D.D.D.D.D.D.D.D.D.D.D.p k U 6 W b 6 6 D.D.D.D.",
"D.D.D.D.D.D.D.D.D.D.D.D.D.7 : 2 < D.D.> s T 6 U B d 4 D.D.D.D.D.",
"D.D.D.D.D.D.D.D.D.D.y.t.4.#.m n H 0.e.J R l ! N 1 3 D.D.D.D.D.D.",
"D.D.D.D.D.D.D.D.D.D.Z.Z.z.<.7. .} ' [ ^ A 4 F S i D.D.D.D.D.D.D.",
"D.D.D.D.D.D.D.D.D.D.D.D.D.D.D.q.] r h x b 0 5 P a.j.s.5.D.D.D.D.",
"D.D.D.D.D.D.D.D.D.D.D.D.D.w q 9._ v k j f n >.1.V.C.c.i.D.D.D.D.",
"D.D.D.D.D.D.D.2 2 2 2 2 2 s , K D g o O & C x.B.A.N.f.u.D.D.D.D.",
"D.D.D.D.D.D.d e d s s s d I 2 2 z =.&.*.y L O.o...-.@.D.D.D.D.D.",
"D.D.D.- 4 4 p $ / ) ) ) ( B   @ u b.M.g.+.p E Q w a 5 ; 2 D.D.D.",
"D.D.# % f f X $ 9 7 7 7 7 . + 2.v.S.d.t G = * X ~ f ) A w 8 D.D.",
"D.D.# % f f X $ 9 7 7 7 7 . + 2.v.S.d.t G = * X ~ f ) A w 8 D.D.",
"D.D.D.- 4 4 p $ / ) ) ) ( B   @ u b.M.g.+.p E Q w a 5 ; 2 D.D.D.",
"D.D.D.D.D.D.d e d s s s d I 2 2 z =.%.*.y L O.o.X.;.@.D.D.D.D.D.",
"D.D.D.D.D.D.D.2 2 2 2 2 2 s , K D g o O & C x.B.S.N.f.u.D.D.D.D.",
"D.D.D.D.D.D.D.D.D.D.D.D.D.w q 8.` v k j f n :.1.V.C.c.i.D.D.D.D.",
"D.D.D.D.D.D.D.D.D.D.D.D.D.D.D.w.] r h x b 0 5 P a.j.p.5.D.D.D.D.",
"D.D.D.D.D.D.D.D.D.D.Z.Z.m.<.6.| } ' { ^ A 4 F S i D.D.D.D.D.D.D.",
"D.D.D.D.D.D.D.D.D.D.y.t.4.#.m n H 0.r.J R l ! N 1 3 D.D.D.D.D.D.",
"D.D.D.D.D.D.D.D.D.D.D.D.D.7 : 2 < D.D.> s T 6 U B d 4 D.D.D.D.D.",
"D.D.D.D.D.D.D.D.D.D.D.D.D.D.D.D.D.D.D.D.p k U 6 W b 6 6 D.D.D.D.",
"D.D.D.D.D.D.D.D.D.D.D.D.D.D.D.D.D.D.D.D.D.4 j c B Z A e 4 D.D.D.",
"D.D.D.D.D.D.D.D.D.D.D.D.D.D.D.D.D.D.,.V Z M s $ c * j p M f D.D.",
"D.D.D.D.D.D.D.D.D.D.D.D.D.D.D.n.k.h.3.Y R T j w s 9 9 f U s D.D.",
"D.D.D.D.D.D.D.D.D.D.D.D.D.D.D.D.D.D.$.9 7 7 7 7 7 7 7 7 9 6 D.D.",
"D.D.D.D.D.D.D.D.D.D.D.D.D.D.D.D.D.D.D.D.D.D.D.D.D.D.D.D.D.D.D.D.",
"D.D.D.D.D.D.D.D.D.D.D.D.D.D.D.D.D.D.D.D.D.D.D.D.D.D.D.D.D.D.D.D."
};
