/* XPM */
static char *_0115[] = {
/* columns rows colors chars-per-pixel */
"32 32 160 2 ",
"   c #070A07",
".  c #0A0A0A",
"X  c #0C0D0C",
"o  c #120D12",
"O  c #130D15",
"+  c #101010",
"@  c #121212",
"#  c #121312",
"$  c #131312",
"%  c #131313",
"&  c #141414",
"*  c #151514",
"=  c #151714",
"-  c #161616",
";  c #171717",
":  c #161816",
">  c #171A16",
",  c #191418",
"<  c #191518",
"1  c #1A171A",
"2  c #1C171F",
"3  c #181818",
"4  c #181918",
"5  c #191919",
"6  c #1A1B19",
"7  c #1A1A1A",
"8  c #1B1B1B",
"9  c #1D1B1C",
"0  c #1E1B1D",
"q  c #1C1C1C",
"w  c #1C1D1C",
"e  c #1D1C1D",
"r  c #1D1D1D",
"t  c #1E1E1E",
"y  c #1F1F1F",
"u  c #1E201E",
"i  c #1F201F",
"p  c #192E1B",
"a  c #281F27",
"s  c #2D152E",
"d  c #3B093D",
"f  c #2B1436",
"g  c #38113D",
"h  c #331938",
"j  c #321B3E",
"k  c #3A1B3B",
"l  c #1E3321",
"z  c #202020",
"x  c #212121",
"c  c #222222",
"v  c #232223",
"b  c #232323",
"n  c #202520",
"m  c #222521",
"M  c #222422",
"N  c #232423",
"B  c #252326",
"V  c #242424",
"C  c #252525",
"Z  c #262426",
"A  c #262526",
"S  c #262626",
"D  c #272727",
"F  c #282627",
"G  c #282828",
"H  c #2A292A",
"J  c #2A2A2A",
"K  c #2B2B2B",
"L  c #2D2B2D",
"P  c #2B2C2C",
"I  c #2C2C2C",
"U  c #2D2D2D",
"Y  c #2E2F2D",
"T  c #2E2E2E",
"R  c #2F2E2F",
"E  c #2F2F2F",
"W  c #2E312E",
"Q  c #2E332E",
"!  c #293E2B",
"~  c #30312F",
"^  c #312431",
"/  c #342235",
"(  c #35273C",
")  c #303030",
"_  c #313030",
"`  c #303130",
"'  c #313332",
"]  c #323232",
"[  c #323332",
"{  c #343434",
"}  c #363636",
"|  c #323A33",
" . c #3B3B3B",
".. c #3C3C3C",
"X. c #0D6817",
"o. c #0E6818",
"O. c #17641F",
"+. c #24572A",
"@. c #176420",
"#. c #177E23",
"$. c #306436",
"%. c #3F0B40",
"&. c #3B0F4F",
"*. c #3A2345",
"=. c #420847",
"-. c #420848",
";. c #461449",
":. c #4C1F4F",
">. c #57065B",
",. c #550B5E",
"<. c #422746",
"1. c #422D42",
"2. c #522055",
"3. c #4D1866",
"4. c #4D1568",
"5. c #550879",
"6. c #570F78",
"7. c #58097B",
"8. c #660B73",
"9. c #630678",
"0. c #61067C",
"q. c #6B047F",
"w. c #73007E",
"e. c #652570",
"r. c #414141",
"t. c #454645",
"y. c #088816",
"u. c #0D941C",
"i. c #06A917",
"p. c #0FB621",
"a. c #7A0C83",
"s. c #790D84",
"d. c #770288",
"f. c #72018F",
"g. c #79058C",
"h. c #660695",
"j. c #720190",
"k. c #780092",
"l. c #7B0098",
"z. c #7B009B",
"x. c #7D059E",
"c. c #7E059E",
"v. c #7E059F",
"b. c #7F0A9F",
"n. c #7F01A5",
"m. c #7504AB",
"M. c #7F00AB",
"N. c #7F04B9",
"B. c #800A9F",
"V. c #8000AE",
"C. c #8001AF",
"Z. c #8600BD",
"A. c #8600BE",
"S. c #8500C6",
"D. c #8700C6",
"F. c #8A0BC1",
"G. c #8A00CB",
"H. c #8A00CE",
"J. c #8C0BC9",
"K. c None",
/* pixels */
"K.K.K.K.K.K.K.K.K.K.K.K.q t 8 D x 7 K.K.K.K.K.K.K.K.K.K.K.K.K.K.",
"K.K.K.K.K.K.K.K.K.K.K.q t C r U x 7 K.K.K.K.K.K.K.K.K.K.K.K.K.K.",
"K.K.K.K.K.K.K.K.K.K.r C 7 4 K E x 4 K.K.K.K.K.K.K.K.K.K.K.K.K.K.",
"K.K.K.K.K.K.K.K.K.w ) E c D c { C 8 K.K.K.K.K.K.K.K.K.K.K.K.K.K.",
"K.K.K.K.K.K.K.K.k R ~ J 7 R b ] 8 = K.d.s.K.K.K.K.K.K.K.K.K.K.K.",
"K.K.K.K.K.K.K.K.8.:.K K.r I w ) A g k.M.n.a.K.K.K.K.K.K.K.K.K.K.",
"K.K.K.K.K.K.K.z.l.2.K.K.t K I } W <.C.H.V.,.K.4 q e K.K.K.K.K.K.",
"K.K.K.K.K.K.b.x.K.K.K.K., L G 7 6 j h.G.6.h 8 U S q K.K.K.K.K.K.",
"K.K.K.K.K.K.K.K.K.K.K.K.#.' _ V B 4.N.5.f u J r.U 4 K.K.K.K.K.K.",
"K.K.K.K.K.K.K.K.K.K.1 i.u.! H S m ( 3.*.Y [ G J 8 K.K.K.K.K.K.K.",
"K.K.K.K.K.K.K.K.K.3 V +.X.n F i # a P ` * % [ u h ,.a.K.K.K.K.K.",
"K.K.K.K.K.K.K.K.8 v | $.o.M N X d -.s : & * Y f 6.V.n.s.K.K.K.K.",
"K.K.K.K.K.K.K.K.;.1.t.p.y.l Z %.q.j./ S : ` *.5.G.H.M.d.K.K.K.K.",
"K.K.K.K.K.K.K.w.g.e.K.p @.Q ^ 9.Z.7.2 / s P 3.N.h.C.k.K.K.K.K.K.",
"K.K.K.K.K.K.w.v.F.K.K.0 < 9 > &.D.m.7.f.=.a ( 4.j <.g = 8 4 7 7 ",
"K.K.K.K.K.K.K.J.K.K.K.y D $ o 0.S.D.A.q.d # m B 6 W A 8 C x x x ",
"K.K.K.K.K.K.K.K.K.K.3 r ] r O >.0.&.9.%.X i S V 7 } ) ] { E U D ",
"K.K.K.K.K.K.K.K.K.3 w I  .-   O o > ^ Z N F H _ G I w b c K r 8 ",
"K.K.K.K.K.K.K.K.3 q U ..c 5 - r $ 9 Q l M n ! ' L K I R D 4 C t ",
"K.K.K.K.K.K.K.3 t T ..c 4 c  .] D < O.y.o.X.u.#., t r 7 c 7 t q ",
"K.K.K.K.K.K.K.z 7 R b 5 c ..I r y 0 p p.$.+.i.K.K.K.K.J E C q K.",
"K.K.K.K.K.K.K.x 7 + 4 b ..U w 3 K.K.K.t.| V 1 K.K.K.K ~ ) r K.K.",
"K.K.K.K.K.K.K.7 ; . + R T q 3 K.K.K.e.1.v 3 K.K.K.2.:.R w K.K.K.",
"K.K.K.K.K.K.3 b S ; 7 7 t 3 K.K.K.F.g.;.8 K.K.K.K.l.8.k K.K.K.K.",
"K.K.K.K.K.K.@ 8 b 7 x z 3 K.K.K.J.v.w.K.K.K.K.K.c.z.K.K.K.K.K.K.",
"K.K.K.K.K.K.+ @ 3 K.K.K.K.K.K.K.K.w.K.K.K.K.K.K.B.K.K.K.K.K.K.K.",
"K.K.K.K.K.K.K.K.K.K.K.K.K.K.K.K.K.K.K.K.K.K.K.K.K.K.K.K.K.K.K.K.",
"K.K.K.K.K.K.K.K.K.K.K.K.K.K.K.K.K.K.K.K.K.K.K.K.K.K.K.K.K.K.K.K.",
"K.K.K.K.K.K.K.K.K.K.K.K.K.K.K.K.K.K.K.K.K.K.K.K.K.K.K.K.K.K.K.K.",
"K.K.K.K.K.K.K.K.K.K.K.K.K.K.K.K.K.K.K.K.K.K.K.K.K.K.K.K.K.K.K.K.",
"K.K.K.K.K.K.K.K.K.K.K.K.K.K.K.K.K.K.K.K.K.K.K.K.K.K.K.K.K.K.K.K.",
"K.K.K.K.K.K.K.K.K.K.K.K.K.K.K.K.K.K.K.K.K.K.K.K.K.K.K.K.K.K.K.K."
};
