/* XPM */
static char *_0120[] = {
/* columns rows colors chars-per-pixel */
"32 32 127 2 ",
"   c #070707",
".  c #0D0D0D",
"X  c #0C100C",
"o  c #0F0F11",
"O  c #150B15",
"+  c #141514",
"@  c #171917",
"#  c #1A151A",
"$  c #1B1C1B",
"%  c #201F1F",
"&  c #172619",
"*  c #1D231D",
"=  c #1C341F",
"-  c #193D1D",
";  c #1D1522",
":  c #1E1B20",
">  c #220A23",
",  c #2C0D2D",
"<  c #231D23",
"1  c #2D142E",
"2  c #271B2A",
"3  c #2C1E2E",
"4  c #291434",
"5  c #331535",
"6  c #331D34",
"7  c #3A153C",
"8  c #371B39",
"9  c #381A3B",
"0  c #1E3520",
"q  c #242424",
"w  c #242A25",
"e  c #282A27",
"r  c #2B262C",
"t  c #272D28",
"y  c #2B2C2B",
"u  c #2D322D",
"i  c #2D3B2F",
"p  c #2F2E30",
"a  c #332334",
"s  c #312F32",
"d  c #3B273C",
"f  c #372B3D",
"g  c #3C293D",
"h  c #323232",
"j  c #343A35",
"k  c #3A3B3A",
"l  c #104F17",
"z  c #194A1E",
"x  c #115919",
"c  c #0E6217",
"v  c #14661D",
"b  c #15711F",
"n  c #14791F",
"m  c #1D5824",
"M  c #264629",
"N  c #325A37",
"B  c #355C3A",
"V  c #186320",
"C  c #1B6D24",
"Z  c #39144B",
"A  c #3D1451",
"S  c #392642",
"D  c #3B2944",
"F  c #430945",
"G  c #430D5D",
"H  c #4D0C5C",
"J  c #500C55",
"K  c #54065C",
"L  c #4F1753",
"P  c #411954",
"I  c #48155C",
"U  c #531559",
"Y  c #59155F",
"T  c #462249",
"R  c #4C204E",
"E  c #4D3B4D",
"W  c #552E59",
"Q  c #590767",
"!  c #4B1864",
"~  c #5F0672",
"^  c #5B1571",
"/  c #5B137E",
"(  c #62066E",
")  c #620574",
"_  c #670578",
"`  c #73007D",
"'  c #79107E",
"]  c #4D414C",
"[  c #068E15",
"{  c #10821C",
"}  c #069E16",
"|  c #03B916",
" . c #08B81B",
".. c #139621",
"X. c #238B2F",
"o. c #0FB621",
"O. c #590880",
"+. c #6F0883",
"@. c #62068B",
"#. c #6A0C89",
"$. c #740583",
"%. c #790C82",
"&. c #73008A",
"*. c #79038E",
"=. c #770F8D",
"-. c #7B0C8A",
";. c #660691",
":. c #740197",
">. c #790192",
",. c #7C019C",
"<. c #7F099F",
"1. c #7104A3",
"2. c #7E03A2",
"3. c #7704AA",
"4. c #7509A9",
"5. c #7B02B4",
"6. c #7E04B8",
"7. c #810F87",
"8. c #8200B4",
"9. c #870AB4",
"0. c #8500BC",
"q. c #8609B8",
"w. c #8500C3",
"e. c #890AC0",
"r. c #8800C8",
"t. c #8D00D1",
"y. c None",
/* pixels */
"y.y.y.y.y.y.y.y.y.y.y.y.y.y.y.y.y.y.y.y.y.y.y.y.y.y.y.y.y.y.y.y.",
"y.y.y.y.y.y.y.y.y.y.y.y.y.y.y.y.y.y.y.y.y.y.y.y.y.y.y.y.y.y.y.y.",
"y.y.y.y.y.y.y.y.y.y.y.y.y.y.y.y.y.y.y.y.y.y.y.y.y.y.y.y.y.y.y.y.",
"y.y.y.y.y.y.y.y.y.y.y.y.y.y.y.y.y.y.y.y.y.y.y.y.y.y.y.y.y.y.y.y.",
"y.y.y.y.y.y.y.y.y.y.y.y.y.y.y.y.y.y.y.y.y.y.y.y.y.y.y.y.y.y.y.y.",
"y.y.y.y.y.y.y.y.y.y.y.y.y.y.y.y.y.y.y.y.y.y.,.,.L 6 y.y.y.y.y.y.",
"y.y.y.y.y.y.y.y.y.y.y.y.y.y.y.` y.y.y.y.y.y.y.+.Y r $ @ y.y.y.y.",
"y.y.y.y.y.y.y.y.y.y.y.y.y.y.e.<.$.7 @ y.y.y.y.y.d h h q $ y.y.y.",
"y.y.y.y.. + @ y.y.y.@ y.y.y.y.e.=.T q $ @ y.y.y.y.y u e q $ $ y.",
"y.y.y.y.+ + < @ q $ < @ + y.y.y.y.W M u w y.y.y.y.@ : $ + < $ $ ",
"y.y.y.y.+ : e @ + + u q $ @ y.y.y.y.X.N {  .V @ q q y e q q @ q ",
"y.y.y.y.@ @ < . O $ j k y < @ q % v } c l m i s y e q < p e q q ",
"y.y.y.y.y.y.< + + @ @ q k k y e @ M - q < e h y q u h u s q q < ",
"y.y.y.y.y.y.q @ h h < @ @ r r + @ r y * q r r $ q h q $ q @ $ @ ",
"y.y.y.y.y.y.@ $ q h k e $ . . O + 2 J , . @ q q $ h 1 @ y.y.y.y.",
"y.y.y.y.y.y.y.@ @ $ e k k + . K @.;.8._ F # e ! A ^ &.y.y.y.y.y.",
"y.y.y.y.y.y.y.y.y.@ @ * h @ O ~ w.r.1.:.K 3 D 4.6.r.8.>.%.y.y.y.",
"y.y.y.y.y.y.y.y.y.y.y.$ q + + ; 3.5.G < 6 % f A O.w.0.8.' y.y.y.",
"y.y.y.y.y.y.y.y.y.y.y.$ $ q q 7 :.8.H r % @ e h 4 I ) %.y.y.y.y.",
"y.y.y.y.y.y.y.>.q.9.y.y.- C u r F ( ) 5 @ +   y q < 4 y.y.y.y.y.",
"y.y.y.y.y.y.y.y.$.$.W ] o.[ = q . > , y s y $ k q h $ + y.y.y.y.",
"y.y.y.y.y.y.y.y.y.7 a k B C & q q @ $ D P S q * h k e $ y.y.y.y.",
"y.y.y.y.y.y.y.y.y.@ @ < u n x y e q e / 6.O.Z 3 $ q < $ y.y.y.y.",
"y.y.y.y.y.y.y.y.y.y.y.@ & | ..j h q $ Z @.t.3.H y.@ @ % y.y.y.y.",
"y.y.y.y.y.y.y.y.y.y.y.y.y.y.z y p @ w t +.w.w.*.7.y.y.y.y.y.y.y.",
"y.y.y.y.y.y.y.y.y.y.y.y.y.y.y.: p p j a Q *.8.-.y.y.y.y.y.y.y.y.",
"y.y.y.y.y.y.y.y.y.<.y.y.y.y.y.q h $ y $ @ y.$.' y.y.y.y.y.y.y.y.",
"y.y.y.y.y.y.y.y.y.y.,.$.R e y.@ p q h q @ y.y.y.y.y.y.y.y.y.y.y.",
"y.y.y.y.y.y.y.y.y.y.y.U g p r q w < h r $ y.y.y.y.y.y.y.y.y.y.y.",
"y.y.y.y.y.y.y.y.y.y.y.8 $ e j q + w y y $ y.y.y.y.y.y.y.y.y.y.y.",
"y.y.y.y.y.y.y.y.y.y.y.y.y.$ % q $ w $ y q @ y.y.y.y.y.y.y.y.y.y.",
"y.y.y.y.y.y.y.y.y.y.y.y.y.y.y.$ $ % $ q % $ y.y.y.y.y.y.y.y.y.y."
};
