/* XPM */
static char *_0000[] = {
/* columns rows colors chars-per-pixel */
"8 8 13 1 ",
"  c #FF4605",
". c #FF4606",
"X c #FE4808",
"o c #FF4809",
"O c #FE5418",
"+ c #FF5418",
"@ c #FF5419",
"# c #FE6732",
"$ c #FF6833",
"% c #FE7C4E",
"& c #FE9E7C",
"* c #FF9F7D",
"= c None",
/* pixels */
"===**===",
"==%$$%==",
"=%+oo@%=",
"&#X..o$*",
"&#X .o$*",
"=%OXX+%=",
"==%##%==",
"===&&==="
};
