/* XPM */
static char *_0006[] = {
/* columns rows colors chars-per-pixel */
"8 8 14 1 ",
"  c #FF4605",
". c #FF4606",
"X c #FE4808",
"o c #FF4809",
"O c #FE5418",
"+ c #FF5418",
"@ c #FF5419",
"# c #FE6732",
"$ c #FE6733",
"% c #FF6833",
"& c #FE7C4E",
"* c #FE9E7C",
"= c #FF9F7D",
"- c None",
/* pixels */
"---**---",
"--&$$&--",
"-&OXX+&-",
"*#X .o%=",
"*#X..o%=",
"-&+oo@&-",
"--&%%&--",
"---==---"
};
