/* XPM */
static char *_0013[] = {
/* columns rows colors chars-per-pixel */
"8 8 20 1 ",
"  c #FF4605",
". c #FF4606",
"X c #FE4807",
"o c #FF4808",
"O c #FE490A",
"+ c #FF490B",
"@ c #FE581E",
"# c #FF581F",
"$ c #FE6631",
"% c #FF6732",
"& c #FE6E3B",
"* c #FE6E3C",
"= c #FE7747",
"- c #FE794B",
"; c #FF7A4B",
": c #FE9E7C",
"> c #FF9F7D",
", c #FEA282",
"< c #FFA483",
"1 c None",
/* pixels */
"1111:,11",
"11=&$-11",
"<;#XO@=1",
">%+. X&1",
"1*o..O$:",
"1=#+o@-,",
"11;%*=11",
"11<>1111"
};
