/* XPM */
static char *_0018[] = {
/* columns rows colors chars-per-pixel */
"8 8 15 1 ",
"  c #FF4605",
". c #FF4606",
"X c #FE4808",
"o c #FF4809",
"O c #FF4909",
"+ c #FE5418",
"@ c #FF5418",
"# c #FF5419",
"$ c #FE6732",
"% c #FE6733",
"& c #FF6833",
"* c #FE7C4E",
"= c #FE9E7C",
"- c #FF9F7D",
"; c None",
/* pixels */
";;;--;;;",
";;*&&*;;",
";*#oO@*;",
"-&o..X$=",
"-&O. X$=",
";*#XX+*;",
";;*%%*;;",
";;;==;;;"
};
