/* XPM */
static char *menuplay_3[] = {
/* columns rows colors chars-per-pixel */
"103 54 3 1 ",
"  c #FEFEFE",
". c white",
"X c None",
/* pixels */
"XXXXXXXXXXXXXXXXXXXXXXXXXXXXXXXXXXXXXXXXXXXXXXXXXXXXXXXXXXXXXXXXXXXXXXXXXXXXXXXXXXXXXXXXXXXXXXXXXXXXXXX",
"XXXXXXXXXXXXXXXXXXXXXXXXXXXXXXXXXXXXXXXXXXXXXXXXXXXXXXXXXXXXXXXXXXXXXXXXXXXXXXXXXXXXXXXXXXXXXXXXXXXXXXX",
"XXXXXXXXXXXXXXXXXXXXXXXXXXXXXXXXXXXXXXXXXXXXXXXXXXXXXXXXXXXXXXXXXXXXXXXXXXXXXXXXXXXXXXXXXXXXXXXXXXXXXXX",
"XXXXXXXXXXXXXXXXXXXXXXXXXXXXXXXXXXXXXXXXXXXXXXXXXXXXXXXXXXXXXXXXXXXXXXXXXXXXXXXXXXXXXXXXXXXXXXXXXXXXXXX",
"XXXXXXXXXXXXXXXXXXXXXXXXXXXXXXXXXXXXXXXXXXXXXXXXXXXXXXXXXXXXXXXXXXXXXXXXXXXXXXXXXXXXXXXXXXXXXXXXXXXXXXX",
"XXXXXXXXXXXXXXXXXXXXXXXXXXXXXXXXXXXXXXXXXXXXXXXXXXXXXXXXXXXXXXXXXXXXXXXXXXXXXXXXXXXXXXXXXXXXXXXXXXXXXXX",
"XXXXXXXXXXXXXXXXXXXXXXXXXXXXXXXXXXXXXXXXXXXXXXXXXXXXXXXXXXXXXXXXXXXXXXXXXXXXXXXXXXXXXXXXXXXXXXXXXXXXXXX",
"XXXXXXXXXXXXXXXXXXXXXXXXXXXXXXXXXXXXXXXXXXXXXXXXXXXXXXXXXXXXXXXXXXXXXXXXXXXXXXXXXXXXXXXXXXXXXXXXXXXXXXX",
"XXXXXXXXXXXXXXXXXXXXXXXXXXXXXXXXXXXXXXXXXXXXXXXXXXXXXXXXXXXXXXXXXXXXXXXXXXXXXXXXXXXXXXXXXXXXXXXXXXXXXXX",
"XXXXXXXXXXXXXXXXXXXXXXXXXXXXXXXXXXXXXXXXXXXXXXXXXXXXXXXXXXXXXXXXXXX....XXXXXXXXXXXXXXXXXXXXXXXXXXXXXXXX",
"XXXXXXXXXXXXXXXXXXXXXXXXXXXXXXXXXXXXXXXXXXXXXXXXXXXXXXXXXXXXXXXXXXX....XXXXXXXXXXXXXXXXXXXXXXXXXXXXXXXX",
"XXXXX...................... XXXXXXXXXXXXXXXXXXXXXXXXXXXXXXXXXXXXXXX....XXXXXXXXXXXXXXXXXXXXXXXXXXXXXXXX",
"XXXXX...................... XXXXXXXXXXXXXXXXXXXXXXXXXXXXXXXXXXXXXXX....XXXXXXXXXX....XXXXXXXXXXXXXXXXXX",
"XXXXX...................... XXXXXXXXXXXXXXXXXXXXXXXXXXXXXXXXXXXXXXX....XXXXXXXXXX....XXXXXXXXXXXXXXXXXX",
"XXXXX...................... XXXXXXXXXXXXXXXXXXXXXXXXXXXXXXXXXXXXXXX....XXXXXXXXXX....XXXXXXXXXXXXXXXXXX",
"XXXXX.... XXXXXXXXXXXXXXXXXXXXXXXXXXXXXXXXXXXXXXXXXXXXXXXXXXXXXXXXXXXXXXXXXXXXXXX....XXXXXXXXXXXXXXXXXX",
"XXXXX.... XXXXXXXXXXXXXXXXXXXXXXXXXXXXXXXXXXXXXXXXXXXXXXXXXXXXXXXXXXXXXXXXXXXXXXX....XXXXXXXXXXXXXXXXXX",
"XXXXX.... XXXXXXXXXXXXXXXXXXXXXXXXXXXXXXXXXXXXXXXXXXXXXXXXXXXXXXXXXXXXXXXXXXXXXXX....XXXXXXXXXXXXXXXXXX",
"XXXXX.... XXXXXXXXXXXXXXXXXXXXXXXXXXXXXXXXXXXXXXXXXXXXXXXXXXXXXXXXXXXXXXXXXXXXXXX....XXXXXXXXXXXXXXXXXX",
"XXXXX.... XXXXXXXXXXXXXXXXXXXXXXXXXXXXXXXXXXXXXXXXXXXXXXXXXXXXXXXXXXXXXXXXXXXXXXX....XXXXXXXXXXXXXXXXXX",
"XXXXX.... XXXXXXXXXXXXXXXXXXXXXXXXX ... XXXXXXXXXXXXXX ... XXXXXXXX....XXXXXX ................XXXXXXXXX",
"XXXXX.... XXXXXXXXXXXXXXXXXXXXXXXXX .... XXXXXXXXXXXX ....XXXXXXXXX....XXXXXX ................XXXXXXXXX",
"XXXXX.... XXXXXXXXXXXXXXXXXXXXXXXXXX .... XXXXXXXXXX .... XXXXXXXXX....XXXXXX ................XXXXXXXXX",
"XXXXX.... XXXXXXXXXXXXXXXXXXXXXXXXXXX ... XXXXXXXXXX.... XXXXXXXXXX....XXXXXX ................XXXXXXXXX",
"XXXXX.... XXXXXXXXXXXXXXXXXXXXXXXXXXXX ... XXXXXXXX ... XXXXXXXXXXX....XXXXXXXXXX....XXXXXXXXXXXXXXXXXX",
"XXXXX......................XXXXXXXXXXX .... XXXXXX ... XXXXXXXXXXXX....XXXXXXXXXX....XXXXXXXXXXXXXXXXXX",
"XXXXX......................XXXXXXXXXXXX .... XXXX .... XXXXXXXXXXXX....XXXXXXXXXX....XXXXXXXXXXXXXXXXXX",
"XXXXX......................XXXXXXXXXXXXX ... XXX .... XXXXXXXXXXXXX....XXXXXXXXXX....XXXXXXXXXXXXXXXXXX",
"XXXXX......................XXXXXXXXXXXXXX ... XX ... XXXXXXXXXXXXXX....XXXXXXXXXX....XXXXXXXXXXXXXXXXXX",
"XXXXX.... XXXXXXXXXXXXXXXXXXXXXXXXXXXXXXXX....  ... XXXXXXXXXXXXXXX....XXXXXXXXXX....XXXXXXXXXXXXXXXXXX",
"XXXXX.... XXXXXXXXXXXXXXXXXXXXXXXXXXXXXXXX ........ XXXXXXXXXXXXXXX....XXXXXXXXXX....XXXXXXXXXXXXXXXXXX",
"XXXXX.... XXXXXXXXXXXXXXXXXXXXXXXXXXXXXXXXX ...... XXXXXXXXXXXXXXXX....XXXXXXXXXX....XXXXXXXXXXXXXXXXXX",
"XXXXX.... XXXXXXXXXXXXXXXXXXXXXXXXXXXXXXXXXX .... XXXXXXXXXXXXXXXXX....XXXXXXXXXX....XXXXXXXXXXXXXXXXXX",
"XXXXX.... XXXXXXXXXXXXXXXXXXXXXXXXXXXXXXXXXX..... XXXXXXXXXXXXXXXXX....XXXXXXXXXX....XXXXXXXXXXXXXXXXXX",
"XXXXX.... XXXXXXXXXXXXXXXXXXXXXXXXXXXXXXXXX ...... XXXXXXXXXXXXXXXX....XXXXXXXXXX....XXXXXXXXXXXXXXXXXX",
"XXXXX.... XXXXXXXXXXXXXXXXXXXXXXXXXXXXXXXX ........XXXXXXXXXXXXXXXX....XXXXXXXXXX....XXXXXXXXXXXXXXXXXX",
"XXXXX.... XXXXXXXXXXXXXXXXXXXXXXXXXXXXXXX ....  ... XXXXXXXXXXXXXXX....XXXXXXXXXX....XXXXXXXXXXXXXXXXXX",
"XXXXX.... XXXXXXXXXXXXXXXXXXXXXXXXXXXXXXX.... XX.... XXXXXXXXXXXXXX....XXXXXXXXXX....XXXXXXXXXXXXXXXXXX",
"XXXXX.... XXXXXXXXXXXXXXXXXXXXXXXXXXXXXX ... XXX .... XXXXXXXXXXXXX....XXXXXXXXXX....XXXXXXXXXXXXXXXXXX",
"XXXXX.... XXXXXXXXXXXXXXXXXXXXXXXXXXXXX ....XXXXX ....XXXXXXXXXXXXX....XXXXXXXXXX....XXXXXXXXXXXXXXXXXX",
"XXXXX.... XXXXXXXXXXXXXXXXXXXXXXXXXXXX .... XXXXXX ... XXXXXXXXXXXX....XXXXXXXXXX....XXXXXXXXXXXXXXXXXX",
"XXXXX.... XXXXXXXXXXXXXXXXXXXXXXXXXXXX.... XXXXXXXX.... XXXXXXXXXXX....XXXXXXXXXX ... XXXXXXXXXXXXXXXXX",
"XXXXX.... XXXXXXXXXXXXXXXXXXXXXXXXXXX ... XXXXXXXXX .... XXXXXXXXXX....XXXXXXXXXX .... XXXXXXXXXXXXXXXX",
"XXXXX.......................XXXXXXXX ....XXXXXXXXXXX ....XXXXXXXXXX....XXXXXXXXXXX............XXXXXXXXX",
"XXXXX.......................XXXXXXX .... XXXXXXXXXXXX ... XXXXXXXXX....XXXXXXXXXXX ...........XXXXXXXXX",
"XXXXX.......................XXXXXXX.... XXXXXXXXXXXXXX.... XXXXXXXX....XXXXXXXXXXXX ..........XXXXXXXXX",
"XXXXX.......................XXXXXX ... XXXXXXXXXXXXXXX .... XXXXXXX....XXXXXXXXXXXXXX     ....XXXXXXXXX",
"XXXXXXXXXXXXXXXXXXXXXXXXXXXXXXXXXXXXXXXXXXXXXXXXXXXXXXXXXXXXXXXXXXXXXXXXXXXXXXXXXXXXXXXXXXXXXXXXXXXXXXX",
"XXXXXXXXXXXXXXXXXXXXXXXXXXXXXXXXXXXXXXXXXXXXXXXXXXXXXXXXXXXXXXXXXXXXXXXXXXXXXXXXXXXXXXXXXXXXXXXXXXXXXXX",
"XXXXXXXXXXXXXXXXXXXXXXXXXXXXXXXXXXXXXXXXXXXXXXXXXXXXXXXXXXXXXXXXXXXXXXXXXXXXXXXXXXXXXXXXXXXXXXXXXXXXXXX",
"XXXXXXXXXXXXXXXXXXXXXXXXXXXXXXXXXXXXXXXXXXXXXXXXXXXXXXXXXXXXXXXXXXXXXXXXXXXXXXXXXXXXXXXXXXXXXXXXXXXXXXX",
"XXXXXXXXXXXXXXXXXXXXXXXXXXXXXXXXXXXXXXXXXXXXXXXXXXXXXXXXXXXXXXXXXXXXXXXXXXXXXXXXXXXXXXXXXXXXXXXXXXXXXXX",
"XXXXXXXXXXXXXXXXXXXXXXXXXXXXXXXXXXXXXXXXXXXXXXXXXXXXXXXXXXXXXXXXXXXXXXXXXXXXXXXXXXXXXXXXXXXXXXXXXXXXXXX",
"XXXXXXXXXXXXXXXXXXXXXXXXXXXXXXXXXXXXXXXXXXXXXXXXXXXXXXXXXXXXXXXXXXXXXXXXXXXXXXXXXXXXXXXXXXXXXXXXXXXXXXX"
};
