/* XPM */
static char *menuoptions_2[] = {
/* columns rows colors chars-per-pixel */
"210 59 3 1 ",
"  c #FE0000",
". c red",
"X c None",
/* pixels */
"XXXXXXXXXXXXXXXXXXXXXXXXXXXXXXXXXXXXXXXXXXXXXXXXXXXXXXXXXXXXXXXXXXXXXXXXXXXXXXXXXXXXXXXXXXXXXXXXXXXXXXXXXXXXXXXXXXXXXXXXXXXXXXXXXXXXXXXXXXXXXXXXXXXXXXXXXXXXXXXXXXXXXXXXXXXXXXXXXXXXXXXXXXXXXXXXXXXXXXXXXXXXXXXXXX",
"XXXXXXXXXXXXXXXXXXXXXXXXXXXXXXXXXXXXXXXXXXXXXXXXXXXXXXXXXXXXXXXXXXXXXXXXXXXXXXXXXXXXXXXXXXXXXXXXXXXXXXXXXXXXXXXXXXXXXXXXXXXXXXXXXXXXXXXXXXXXXXXXXXXXXXXXXXXXXXXXXXXXXXXXXXXXXXXXXXXXXXXXXXXXXXXXXXXXXXXXXXXXXXXXXX",
"XXXXXXXXXXXXXXXXXXXXXXXXXXXXXXXXXXXXXXXXXXXXXXXXXXXXXXXXXXXXXXXXXXXXXXXXXXXXXXXXXXXXXXXXXXXXXXXXXXXXXXXXXXXXXXXXXXXXXXXXXXXXXXXXXXXXXXXXXXXXXXXXXXXXXXXXXXXXXXXXXXXXXXXXXXXXXXXXXXXXXXXXXXXXXXXXXXXXXXXXXXXXXXXXXX",
"XXXXXXXXXXXXXXXXXXXXXXXXXXXXXXXXXXXXXXXXXXXXXXXXXXXXXXXXXXXXXXXXXXXXXXXXXXXXXXXXXXXXXXXXXXXXXXXXXXXXXXXXXXXXXXXXXXXXXXXXXXXXXXXXXXXXXXXXXXXXXXXXXXXXXXXXXXXXXXXXXXXXXXXXXXXXXXXXXXXXXXXXXXXXXXXXXXXXXXXXXXXXXXXXXX",
"XXXXXXXXXXXXXXXXXXXXXXXXXXXXXXXXXXXXXXXXXXXXXXXXXXXXXXXXXXXXXXXXXXXXXXXXXXXXXXXXXXXXXXXXXXXXXXXXXXXXXXXXXXXXXXXXXXXXXXXXXXXXXXXXXXXXXXXXXXXXXXXXXXXXXXXXXXXXXXXXXXXXXXXXXXXXXXXXXXXXXXXXXXXXXXXXXXXXXXXXXXXXXXXXXX",
"XXXXXXXXXXXXXXXXXXXXXXXXXXXXXXXXXXXXXXXXXXXXXXXXXXXXXXXXXXXXXXXXXXXXXXXXXXXXXXXXXXXXXXXXXXXXXXXXXXXXXXXXXXXXXXXXXXXXXXXXXXXXXXXXXXXXXXXXXXXXXXXXXXXXXXXXXXXXXXXXXXXXXXXXXXXXXXXXXXXXXXXXXXXXXXXXXXXXXXXXXXXXXXXXXX",
"XXXXXXXXXXXXXXXXXXXXXXXXXXXXXXXXXXXXXXXXXXXXXXXXXXXXXXXXXXXXXXXXXXXXXXXXXXXXXXXXXXXXXXXXXXXXXXXXXXXXXXXXXXXXXXXXXXXXXXXXXXXXXXXXXXXXXXXXXXXXXXXXXXXXXXXXXXXXXXXXXXXXXXXXXXXXXXXXXXXXXXXXXXXXXXXXXXXXXXXXXXXXXXXXXX",
"XXXXXXXXXXXXXXXXXXXXXXXXXXXXXXXXXXXXXXXXXXXXXXXXXXXXXXXXXXXXXXXXXXXXXXXXXXXXXXXXXXXXXXXXXXXXXXXXXXXXXXXXXXXXXXXXXXXXXXXXXXXXXXXXXXXXXXXXXXXXXXXXXXXXXXXXXXXXXXXXXXXXXXXXXXXXXXXXXXXXXXXXXXXXXXXXXXXXXXXXXXXXXXXXXX",
"XXXXXXXXXXXXXXXXXXXXXXXXXXXXXXXXXXXXXXXXXXXXXXXXXXXXXXXXXXXXXXXXXXXXXXXXXXXXXXXXXXXXXXXXXXXXXXXXXXXXXXXXXXXXXXXXXXXXXXXXXXXXXXXXXXXXXXXXXXXXXXXXXXXXXXXXXXXXXXXXXXXXXXXXXXXXXXXXXXXXXXXXXXXXXXXXXXXXXXXXXXXXXXXXXX",
"XXXXXXXXXXXXXXXXXXXXXXXXXXXXXXXXXXXXXXXXXXXXXXXXXXXXXXXXXXXXXXXXXXXXXXXXXXXXXXXXXXXXXXXXXXXXXXXX....XXXXXXXXXXXXXXXXXXXXXXXXXXXXXXXXXXXXXXXXXXXXXXXXXXXXXXXXXXXXXXXXXXXXXXXXXXXXXXXXXXXXXXXXXXXXXXXXXXXXXXXXXXXXXX",
"XXXXXXXXXXXXXXX         XXXXXXXXXXXXXXXXXXXXXXXXXXXXXXXXXXXXXXXXXXXXXXXXXXXXXXXXXXXXXXXXXXXXXXXX....XXXXXXXXXXXXXXXXXXXXXXXXXXXXXXXXXXXXXXXXXXXXXXXXXXXXXXXXXXXXXXXXXXXXXXXXXXXXXXXXXXXXXXXXXXXXXXXXXXXXXXXXXXXXXX",
"XXXXXXXXXXXX  ...........  XXXXXXXXXXXXXXXXXXXXXXXXXXXXXXXXXXXXXXXXXXXXXXXXXXXXXXXXXXXXXXXXXXXXX....XXXXXXXXXXXXXXXXXXXXXXXXXXXXXXXXXXXXXXXXXXXXXXXXXXXXXXXXXXXXXXXXXXXXXXXXXXXXXXXXXXXXXXXXXXXXXXXXXXXXXXXXXXXXXX",
"XXXXXXXXXXX ................ XXXXXXXXXXXXXXXXXXXXXXXXXXXXXXXXXXXXXXXXXXXXXXX....XXXXXXXXXXXXXXXX....XXXXXXXXXXXXXXXXXXXXXXXXXXXXXXXXXXXXXXXXXXXXXXXXXXXXXXXXXXXXXXXXXXXXXXXXXXXXXXXXXXXXXXXXXXXXXXXXXXXXXXXXXXXXXX",
"XXXXXXXXX ................... XXXXXXXXXXXXXXXXXXXXXXXXXXXXXXXXXXXXXXXXXXXXXX....XXXXXXXXXXXXXXXX....XXXXXXXXXXXXXXXXXXXXXXXXXXXXXXXXXXXXXXXXXXXXXXXXXXXXXXXXXXXXXXXXXXXXXXXXXXXXXXXXXXXXXXXXXXXXXXXXXXXXXXXXXXXXXX",
"XXXXXXXX ...... XXXXXXX  ..... XXXXXXXXXXXXXXXXXXXXXXXXXXXXXXXXXXXXXXXXXXXXX....XXXXXXXXXXXXXXXX....XXXXXXXXXXXXXXXXXXXXXXXXXXXXXXXXXXXXXXXXXXXXXXXXXXXXXXXXXXXXXXXXXXXXXXXXXXXXXXXXXXXXXXXXXXXXXXXXXXXXXXXXXXXXXX",
"XXXXXXX ..... XXXXXXXXXXX ..... XXXXXXXXXXXXXXXXXXXXXXXXXXXXXXXXXXXXXXXXXXXX....XXXXXXXXXXXXXXXXXXXXXXXXXXXXXXXXXXXXXXXXXXXXXXXXXXXXXXXXXXXXXXXXXXXXXXXXXXXXXXXXXXXXXXXXXXXXXXXXXXXXXXXXXXXXXXXXXXXXXXXXXXXXXXXXXX",
"XXXXXX ..... XXXXXXXXXXXXXX .... XXXXXXXXXXXXXXXXXXXXXXXXXXXXXXXXXXXXXXXXXXX....XXXXXXXXXXXXXXXXXXXXXXXXXXXXXXXXXXXXXXXXXXXXXXXXXXXXXXXXXXXXXXXXXXXXXXXXXXXXXXXXXXXXXXXXXXXXXXXXXXXXXXXXXXXXXXXXXXXXXXXXXXXXXXXXXX",
"XXXXXX..... XXXXXXXXXXXXXXXX .... XXXXXXXXXXXXXXXXXXXXXXXXXXXXXXXXXXXXXXXXXX....XXXXXXXXXXXXXXXXXXXXXXXXXXXXXXXXXXXXXXXXXXXXXXXXXXXXXXXXXXXXXXXXXXXXXXXXXXXXXXXXXXXXXXXXXXXXXXXXXXXXXXXXXXXXXXXXXXXXXXXXXXXXXXXXXX",
"XXXXX .... XXXXXXXXXXXXXXXXX .....XXXXXXXXXXXXXXXXXXXXXXXXXXXXXXXXXXXXXXXXXX....XXXXXXXXXXXXXXXXXXXXXXXXXXXXXXXXXXXXXXXXXXXXXXXXXXXXXXXXXXXXXXXXXXXXXXXXXXXXXXXXXXXXXXXXXXXXXXXXXXXXXXXXXXXXXXXXXXXXXXXXXXXXXXXXXX",
"XXXXX.....XXXXXXXXXXXXXXXXXXX .... XXXXXXXXXXXXXXXXXX       XXXXXXXXXXXXXXXX....XXXXXXXXXXXXXXXXXXXXXXXXXXXXXXXXXXXXX       XXXXXXXXXXXXXXXXXXXXXXXXXXX      XXXXXXXXXXXXXXXXXXXX         XXXXXXXXXXXXXXXXXXXXXXXX",
"XXXX .... XXXXXXXXXXXXXXXXXXXX.... XXXXXXXXX....XXX  ........ XXXXXXXXXX ................XXXXXXX....XXXXXXXXXXXXXX ..........  XXXXXXXXXXXXXX....XXX  ........ XXXXXXXXXXXXXXXX ...........  XXXXXXXXXXXXXXXXXXXXX",
"XXXX.....XXXXXXXXXXXXXXXXXXXXX ....XXXXXXXXX....XX ........... XXXXXXXXX ................XXXXXXX....XXXXXXXXXXXXX ............. XXXXXXXXXXXXX....XX ............ XXXXXXXXXXXX ................XXXXXXXXXXXXXXXXXXXX",
"XXXX.... XXXXXXXXXXXXXXXXXXXXX .... XXXXXXXX....X ..............XXXXXXXX ................XXXXXXX....XXXXXXXXXXX ................ XXXXXXXXXXXX....X ..............XXXXXXXXXXX .................XXXXXXXXXXXXXXXXXXXX",
"XXX .... XXXXXXXXXXXXXXXXXXXXXX.... XXXXXXXX.... ... XXXXX  .... XXXXXXX ................XXXXXXX....XXXXXXXXXXX.....  XXXXX ..... XXXXXXXXXXX.... ..  XXXXXX .... XXXXXXXXXX..... XXXXXXXX  ..XXXXXXXXXXXXXXXXXXXX",
"XXX ....XXXXXXXXXXXXXXXXXXXXXXX.....XXXXXXXX...... XXXXXXXXX .... XXXXXXXXXX....XXXXXXXXXXXXXXXX....XXXXXXXXXX .... XXXXXXXXX .... XXXXXXXXXX...... XXXXXXXXX ....XXXXXXXXX ... XXXXXXXXXXXXX XXXXXXXXXXXXXXXXXXXX",
"XXX ....XXXXXXXXXXXXXXXXXXXXXXX ....XXXXXXXX......XXXXXXXXXXX ....XXXXXXXXXX....XXXXXXXXXXXXXXXX....XXXXXXXXX .... XXXXXXXXXXX ....XXXXXXXXXX..... XXXXXXXXXXX ... XXXXXXXX ... XXXXXXXXXXXXXXXXXXXXXXXXXXXXXXXXXX",
"XXX.....XXXXXXXXXXXXXXXXXXXXXXX ....XXXXXXXX..... XXXXXXXXXXXX.... XXXXXXXXX....XXXXXXXXXXXXXXXX....XXXXXXXXX ... XXXXXXXXXXXX .... XXXXXXXXX.....XXXXXXXXXXXX ... XXXXXXXX....XXXXXXXXXXXXXXXXXXXXXXXXXXXXXXXXXXX",
"XXX.....XXXXXXXXXXXXXXXXXXXXXXX ....XXXXXXXX.....XXXXXXXXXXXXX ....XXXXXXXXX....XXXXXXXXXXXXXXXX....XXXXXXXXX.... XXXXXXXXXXXXX ... XXXXXXXXX.... XXXXXXXXXXXXX....XXXXXXXX....XXXXXXXXXXXXXXXXXXXXXXXXXXXXXXXXXXX",
"XXX.....XXXXXXXXXXXXXXXXXXXXXXX .... XXXXXXX.... XXXXXXXXXXXXXX....XXXXXXXXX....XXXXXXXXXXXXXXXX....XXXXXXXX ....XXXXXXXXXXXXXX ....XXXXXXXXX....XXXXXXXXXXXXXX....XXXXXXXX ... XXXXXXXXXXXXXXXXXXXXXXXXXXXXXXXXXX",
"XXX.....XXXXXXXXXXXXXXXXXXXXXXX .... XXXXXXX.... XXXXXXXXXXXXXX.... XXXXXXXX....XXXXXXXXXXXXXXXX....XXXXXXXX ... XXXXXXXXXXXXXXX....XXXXXXXXX....XXXXXXXXXXXXXX....XXXXXXXX .... XXXXXXXXXXXXXXXXXXXXXXXXXXXXXXXXX",
"XXX.....XXXXXXXXXXXXXXXXXXXXXXX ....XXXXXXXX....XXXXXXXXXXXXXXX ... XXXXXXXX....XXXXXXXXXXXXXXXX....XXXXXXXX.... XXXXXXXXXXXXXXX.... XXXXXXXX....XXXXXXXXXXXXXX....XXXXXXXXX.....  XXXXXXXXXXXXXXXXXXXXXXXXXXXXXXX",
"XXX.....XXXXXXXXXXXXXXXXXXXXXXX ....XXXXXXXX....XXXXXXXXXXXXXXX ... XXXXXXXX....XXXXXXXXXXXXXXXX....XXXXXXXX.... XXXXXXXXXXXXXXX.... XXXXXXXX....XXXXXXXXXXXXXX....XXXXXXXXX ........  XXXXXXXXXXXXXXXXXXXXXXXXXXX",
"XXX ....XXXXXXXXXXXXXXXXXXXXXXX ....XXXXXXXX....XXXXXXXXXXXXXXX ... XXXXXXXX....XXXXXXXXXXXXXXXX....XXXXXXXX.... XXXXXXXXXXXXXXX ... XXXXXXXX....XXXXXXXXXXXXXX....XXXXXXXXXX  ..........  XXXXXXXXXXXXXXXXXXXXXXX",
"XXX ....XXXXXXXXXXXXXXXXXXXXXXX.....XXXXXXXX....XXXXXXXXXXXXXXX ... XXXXXXXX....XXXXXXXXXXXXXXXX....XXXXXXXX.... XXXXXXXXXXXXXXX ... XXXXXXXX....XXXXXXXXXXXXXX....XXXXXXXXXXXX  .......... XXXXXXXXXXXXXXXXXXXXXX",
"XXX .... XXXXXXXXXXXXXXXXXXXXXX.... XXXXXXXX....XXXXXXXXXXXXXXX ... XXXXXXXX....XXXXXXXXXXXXXXXX....XXXXXXXX.... XXXXXXXXXXXXXXX ... XXXXXXXX....XXXXXXXXXXXXXX....XXXXXXXXXXXXXXX   ........ XXXXXXXXXXXXXXXXXXXX",
"XXXX.... XXXXXXXXXXXXXXXXXXXXX .... XXXXXXXX....XXXXXXXXXXXXXXX ... XXXXXXXX....XXXXXXXXXXXXXXXX....XXXXXXXX.... XXXXXXXXXXXXXXX.... XXXXXXXX....XXXXXXXXXXXXXX....XXXXXXXXXXXXXXXXXXX  ...... XXXXXXXXXXXXXXXXXXX",
"XXXX.....XXXXXXXXXXXXXXXXXXXXX ....XXXXXXXXX....XXXXXXXXXXXXXXX ... XXXXXXXX....XXXXXXXXXXXXXXXX....XXXXXXXX.... XXXXXXXXXXXXXXX.... XXXXXXXX....XXXXXXXXXXXXXX....XXXXXXXXXXXXXXXXXXXXXX .... XXXXXXXXXXXXXXXXXXX",
"XXXX .... XXXXXXXXXXXXXXXXXXXX.... XXXXXXXXX.... XXXXXXXXXXXXXX.... XXXXXXXX....XXXXXXXXXXXXXXXX....XXXXXXXX ... XXXXXXXXXXXXXXX....XXXXXXXXX....XXXXXXXXXXXXXX....XXXXXXXXXXXXXXXXXXXXXXX ....XXXXXXXXXXXXXXXXXXX",
"XXXXX.....XXXXXXXXXXXXXXXXXXX .... XXXXXXXXX.... XXXXXXXXXXXXXX....XXXXXXXXX....XXXXXXXXXXXXXXXX....XXXXXXXX ....XXXXXXXXXXXXXX ....XXXXXXXXX....XXXXXXXXXXXXXX....XXXXXXXXXXXXXXXXXXXXXXXX.... XXXXXXXXXXXXXXXXXX",
"XXXXX .... XXXXXXXXXXXXXXXXX .....XXXXXXXXXX.....XXXXXXXXXXXXX ....XXXXXXXXX....XXXXXXXXXXXXXXXX....XXXXXXXXX.... XXXXXXXXXXXXX ... XXXXXXXXX....XXXXXXXXXXXXXX....XXXXXXXXXXXXXXXXXXXXXXXX.... XXXXXXXXXXXXXXXXXX",
"XXXXXX..... XXXXXXXXXXXXXXXX .... XXXXXXXXXX..... XXXXXXXXXXXX.... XXXXXXXXX....XXXXXXXXXXXXXXXX....XXXXXXXXX ... XXXXXXXXXXXX .... XXXXXXXXX....XXXXXXXXXXXXXX....XXXXXXXXXXXXXXXXXXXXXXXX.... XXXXXXXXXXXXXXXXXX",
"XXXXXX ..... XXXXXXXXXXXXXX .... XXXXXXXXXXX......XXXXXXXXXXX ....XXXXXXXXXX ... XXXXXXXXXXXXXXX....XXXXXXXXX .... XXXXXXXXXXX ....XXXXXXXXXX....XXXXXXXXXXXXXX....XXXXXXXX XXXXXXXXXXXXXXX....XXXXXXXXXXXXXXXXXXX",
"XXXXXXX ..... XXXXXXXXXXX ..... XXXXXXXXXXXX...... XXXXXXXXX .... XXXXXXXXXX .... XXXXXXXXXXXXXX....XXXXXXXXXX .... XXXXXXXXX .... XXXXXXXXXX....XXXXXXXXXXXXXX....XXXXXXXX.  XXXXXXXXXXXX ... XXXXXXXXXXXXXXXXXXX",
"XXXXXXXX ...... XXXXXXX  ..... XXXXXXXXXXXXX.... ... XXXXX  .... XXXXXXXXXXXX............XXXXXXX....XXXXXXXXXXX.....  XXXXX ..... XXXXXXXXXXX....XXXXXXXXXXXXXX....XXXXXXXX....  XXXXXXX ..... XXXXXXXXXXXXXXXXXXX",
"XXXXXXXXX ................... XXXXXXXXXXXXXX....X ..............XXXXXXXXXXXXX ...........XXXXXXX....XXXXXXXXXXX ................ XXXXXXXXXXXX....XXXXXXXXXXXXXX....XXXXXXXX.................. XXXXXXXXXXXXXXXXXXXX",
"XXXXXXXXXXX ................ XXXXXXXXXXXXXXX....XX ........... XXXXXXXXXXXXXXX ..........XXXXXXX....XXXXXXXXXXXXX ............. XXXXXXXXXXXXX....XXXXXXXXXXXXXX....XXXXXXXX................. XXXXXXXXXXXXXXXXXXXXX",
"XXXXXXXXXXXX  ...........  XXXXXXXXXXXXXXXXX....XXX ......... XXXXXXXXXXXXXXXXXX     ....XXXXXXX....XXXXXXXXXXXXXX ..........  XXXXXXXXXXXXXX....XXXXXXXXXXXXXX....XXXXXXXXX  ............ XXXXXXXXXXXXXXXXXXXXXXX",
"XXXXXXXXXXXXXXX         XXXXXXXXXXXXXXXXXXXX....XXXXX       XXXXXXXXXXXXXXXXXXXXXXXXXXXXXXXXXXXXXXXXXXXXXXXXXXXXXXXXX       XXXXXXXXXXXXXXXXXXXXXXXXXXXXXXXXXXXXXXXXXXXXXXXXXXXX         XXXXXXXXXXXXXXXXXXXXXXXXX",
"XXXXXXXXXXXXXXXXXXXXXXXXXXXXXXXXXXXXXXXXXXXX....XXXXXXXXXXXXXXXXXXXXXXXXXXXXXXXXXXXXXXXXXXXXXXXXXXXXXXXXXXXXXXXXXXXXXXXXXXXXXXXXXXXXXXXXXXXXXXXXXXXXXXXXXXXXXXXXXXXXXXXXXXXXXXXXXXXXXXXXXXXXXXXXXXXXXXXXXXXXXXXXXX",
"XXXXXXXXXXXXXXXXXXXXXXXXXXXXXXXXXXXXXXXXXXXX....XXXXXXXXXXXXXXXXXXXXXXXXXXXXXXXXXXXXXXXXXXXXXXXXXXXXXXXXXXXXXXXXXXXXXXXXXXXXXXXXXXXXXXXXXXXXXXXXXXXXXXXXXXXXXXXXXXXXXXXXXXXXXXXXXXXXXXXXXXXXXXXXXXXXXXXXXXXXXXXXXX",
"XXXXXXXXXXXXXXXXXXXXXXXXXXXXXXXXXXXXXXXXXXXX....XXXXXXXXXXXXXXXXXXXXXXXXXXXXXXXXXXXXXXXXXXXXXXXXXXXXXXXXXXXXXXXXXXXXXXXXXXXXXXXXXXXXXXXXXXXXXXXXXXXXXXXXXXXXXXXXXXXXXXXXXXXXXXXXXXXXXXXXXXXXXXXXXXXXXXXXXXXXXXXXXX",
"XXXXXXXXXXXXXXXXXXXXXXXXXXXXXXXXXXXXXXXXXXXX....XXXXXXXXXXXXXXXXXXXXXXXXXXXXXXXXXXXXXXXXXXXXXXXXXXXXXXXXXXXXXXXXXXXXXXXXXXXXXXXXXXXXXXXXXXXXXXXXXXXXXXXXXXXXXXXXXXXXXXXXXXXXXXXXXXXXXXXXXXXXXXXXXXXXXXXXXXXXXXXXXX",
"XXXXXXXXXXXXXXXXXXXXXXXXXXXXXXXXXXXXXXXXXXXX....XXXXXXXXXXXXXXXXXXXXXXXXXXXXXXXXXXXXXXXXXXXXXXXXXXXXXXXXXXXXXXXXXXXXXXXXXXXXXXXXXXXXXXXXXXXXXXXXXXXXXXXXXXXXXXXXXXXXXXXXXXXXXXXXXXXXXXXXXXXXXXXXXXXXXXXXXXXXXXXXXX",
"XXXXXXXXXXXXXXXXXXXXXXXXXXXXXXXXXXXXXXXXXXXX....XXXXXXXXXXXXXXXXXXXXXXXXXXXXXXXXXXXXXXXXXXXXXXXXXXXXXXXXXXXXXXXXXXXXXXXXXXXXXXXXXXXXXXXXXXXXXXXXXXXXXXXXXXXXXXXXXXXXXXXXXXXXXXXXXXXXXXXXXXXXXXXXXXXXXXXXXXXXXXXXXX",
"XXXXXXXXXXXXXXXXXXXXXXXXXXXXXXXXXXXXXXXXXXXX....XXXXXXXXXXXXXXXXXXXXXXXXXXXXXXXXXXXXXXXXXXXXXXXXXXXXXXXXXXXXXXXXXXXXXXXXXXXXXXXXXXXXXXXXXXXXXXXXXXXXXXXXXXXXXXXXXXXXXXXXXXXXXXXXXXXXXXXXXXXXXXXXXXXXXXXXXXXXXXXXXX",
"XXXXXXXXXXXXXXXXXXXXXXXXXXXXXXXXXXXXXXXXXXXX....XXXXXXXXXXXXXXXXXXXXXXXXXXXXXXXXXXXXXXXXXXXXXXXXXXXXXXXXXXXXXXXXXXXXXXXXXXXXXXXXXXXXXXXXXXXXXXXXXXXXXXXXXXXXXXXXXXXXXXXXXXXXXXXXXXXXXXXXXXXXXXXXXXXXXXXXXXXXXXXXXX",
"XXXXXXXXXXXXXXXXXXXXXXXXXXXXXXXXXXXXXXXXXXXX....XXXXXXXXXXXXXXXXXXXXXXXXXXXXXXXXXXXXXXXXXXXXXXXXXXXXXXXXXXXXXXXXXXXXXXXXXXXXXXXXXXXXXXXXXXXXXXXXXXXXXXXXXXXXXXXXXXXXXXXXXXXXXXXXXXXXXXXXXXXXXXXXXXXXXXXXXXXXXXXXXX",
"XXXXXXXXXXXXXXXXXXXXXXXXXXXXXXXXXXXXXXXXXXXXXXXXXXXXXXXXXXXXXXXXXXXXXXXXXXXXXXXXXXXXXXXXXXXXXXXXXXXXXXXXXXXXXXXXXXXXXXXXXXXXXXXXXXXXXXXXXXXXXXXXXXXXXXXXXXXXXXXXXXXXXXXXXXXXXXXXXXXXXXXXXXXXXXXXXXXXXXXXXXXXXXXXXX",
"XXXXXXXXXXXXXXXXXXXXXXXXXXXXXXXXXXXXXXXXXXXXXXXXXXXXXXXXXXXXXXXXXXXXXXXXXXXXXXXXXXXXXXXXXXXXXXXXXXXXXXXXXXXXXXXXXXXXXXXXXXXXXXXXXXXXXXXXXXXXXXXXXXXXXXXXXXXXXXXXXXXXXXXXXXXXXXXXXXXXXXXXXXXXXXXXXXXXXXXXXXXXXXXXXX"
};
