/* XPM */
static char *menu_1[] = {
/* columns rows colors chars-per-pixel */
"119 63 3 1 ",
"  c #FEFEFE",
". c white",
"X c None",
/* pixels */
"XXXXXXXXXXXXXXXXXXXXXXXXXXXXXXXXXXXXXXXXXXXXXXXXXXXXXXXXXXXXXXXXXXXXXXXXXXXXXXXXXXXXXXXXXXXXXXXXXXXXXXXXXXXXXXXXXXXXXXX",
"XXXXXXXXXXXXXXXXXXXXXXXXXXXXXXXXXXXXXXXXXXXXXXXXXXXXXXXXXXXXXXXXXXXXXXXXXXXXXXXXXXXXXXXXXXXXXXXXXXXXXXXXXXXXXXXXXXXXXXX",
"XXXXXXXXXXXXXXXXXXXXXXXXXXXXXXXXXXXXXXXXXXXXXXXXXXXXXXXXXXXXXXXXXXXXXXXXXXXXXXXXXXXXXXXXXXXXXXXXXXXXXXXXXXXXXXXXXXXXXXX",
"XXXXXXXXXXXXXXXXXXXXXXXXXXXXXXXXXXXXXXXXXXXXXXXXXXXXXXXXXXXXXXXXXXXXXXXXXXXXXXXXXXXXXXXXXXXXXXXXXXXXXXXXXXXXXXXXXXXXXXX",
"XXXXXXXXXXXXXXXXXXXXXXXXXXXXXXXXXXXXXXXXXXXXXXXXXXXXXXXXXXXXXXXXXXXXXXXXXXXXXXXXXXXXXXXXXXXXXXXXXXXXXXXXXXXXXXXXXXXXXXX",
"XXXXXXXXXXXXXXXXXXXXXXXXXXXXXXXXXXXXXXXXXXXXXXXXXXXXXXXXXXXXXXXXXXXXXXXXXXXXXXXXXXXXXXXXXXXXXXXXXXXXXXXXXXXXXXXXXXXXXXX",
"XXXXXXXXXXXXXXXXXXXXXXXXXXXXXXXXXXXXXXXXXXXXXXXXXXXXXXXXXXXXXXXXXXXXXXXXXXXXXXXXXXXXXXXXXXXXXXXXXXXXXXXXXXXXXXXXXXXXXXX",
"XXXXXXXXXXXXXXXXXXXXXXXXXXXXXXXXXXXXXXXXXXXXXXXXXXXXXXXXXXXXXXXXXXXXXXXXXXXXXXXXXXXXXXXXXXXXXXXXXXXXXXXXXXXXXXXXXXXXXXX",
"XXXXXXXXXXXXXXXXXXXXXXXXXXXXXXXXXXXXXXXXXXXXXXXXXXXXXXXXXXXXXXXXXXXXXXXXXXXXXXXXXXXXXXXXXXXXXXXXXXXXXXXXXXXXXXXXXXXXXXX",
"XXXXXXXXXXXXXXXXXXXXXXXXXXXXXXXXXXX....XXXXXXXXXXXXXXXXXXXXXXXXXXXXXXXXXXXXXXXXXXXXXXXXXXXXXXXXXXXXXXXXXXXXXXXXXXXXXXXX",
"XXXXXXXXXXXXXXXXXXXXXXXXXXXXXXXXXXX....XXXXXXXXXXXXXXXXXXXXXXXXXXXXXXXXXXXXXXXXXXXXXXXXXXXXXXXXXXXXXXXXXXXXXXXXXXXXXXXX",
"XXXXX...........    XXXXXXXXXXXXXXX....XXXXXXXXXXXXXXXXXXXXXXXXXXXXXXXXXXXXXXXXXXXXXXXXXXXXXXXXXXXXXXXXXXXXXXXXXXXXXXXX",
"XXXXX................. XXXXXXXXXXXX....XXXXXXXXXXXXXXXXXXXXXXXXXXXXXXXXXXXXXXXXXXXXXXXXXXXXXXXXXXXXXXXXXXXXXXXXXXXXXXXX",
"XXXXX................... XXXXXXXXXX....XXXXXXXXXXXXXXXXXXXXXXXXXXXXXXXXXXXXXXXXXXXXXXXXXXXXXXXXXXXXXXXXXXXXXXXXXXXXXXXX",
"XXXXX.................... XXXXXXXXX....XXXXXXXXXXXXXXXXXXXXXXXXXXXXXXXXXXXXXXXXXXXXXXXXXXXXXXXXXXXXXXXXXXXXXXXXXXXXXXXX",
"XXXXX.... XXXXXXXXX  ..... XXXXXXXX....XXXXXXXXXXXXXXXXXXXXXXXXXXXXXXXXXXXXXXXXXXXXXXXXXXXXXXXXXXXXXXXXXXXXXXXXXXXXXXXX",
"XXXXX.... XXXXXXXXXXX .....XXXXXXXX....XXXXXXXXXXXXXXXXXXXXXXXXXXXXXXXXXXXXXXXXXXXXXXXXXXXXXXXXXXXXXXXXXXXXXXXXXXXXXXXX",
"XXXXX.... XXXXXXXXXXXX .... XXXXXXX....XXXXXXXXXXXXXXXXXXXXXXXXXXXXXXXXXXXXXXXXXXXXXXXXXXXXXXXXXXXXXXXXXXXXXXXXXXXXXXXX",
"XXXXX.... XXXXXXXXXXXXX.... XXXXXXX....XXXXXXXXXXXXXXXXXXXXXXXXXXXXXXXXXXXXXXXXXXXXXXXXXXXXXXXXXXXXXXXXXXXXXXXXXXXXXXXX",
"XXXXX.... XXXXXXXXXXXXX.....XXXXXXX....XXXXXXXXXXXXXXX        XXXXXXXXXXXXXXXXXXXXXXXXXXXXXXXXXXXXXXXXXXXXXXXXXXXXXXXXX",
"XXXXX.... XXXXXXXXXXXXX ....XXXXXXX....XXXXXXXXXXX  ............ XXXXXXXXXXXX....XXXXXXXXXXXXXXXXX ... XXXXXXXXXXXXXXXX",
"XXXXX.... XXXXXXXXXXXXX ....XXXXXXX....XXXXXXXXXX................ XXXXXXXXXXX ... XXXXXXXXXXXXXXXX....XXXXXXXXXXXXXXXXX",
"XXXXX.... XXXXXXXXXXXXX ....XXXXXXX....XXXXXXXXXX..................XXXXXXXXXXX....XXXXXXXXXXXXXXX ... XXXXXXXXXXXXXXXXX",
"XXXXX.... XXXXXXXXXXXXX ....XXXXXXX....XXXXXXXXXX..  XXXXXXXX  .... XXXXXXXXXX ... XXXXXXXXXXXXXX ... XXXXXXXXXXXXXXXXX",
"XXXXX.... XXXXXXXXXXXXX.....XXXXXXX....XXXXXXXXXX XXXXXXXXXXXXX .... XXXXXXXXX ... XXXXXXXXXXXXXX....XXXXXXXXXXXXXXXXXX",
"XXXXX.... XXXXXXXXXXXXX.... XXXXXXX....XXXXXXXXXXXXXXXXXXXXXXXXX ... XXXXXXXXXX....XXXXXXXXXXXXX ... XXXXXXXXXXXXXXXXXX",
"XXXXX.... XXXXXXXXXXXX .... XXXXXXX....XXXXXXXXXXXXXXXXXXXXXXXXXX ...XXXXXXXXXX ... XXXXXXXXXXXX....XXXXXXXXXXXXXXXXXXX",
"XXXXX.... XXXXXXXXXXX .....XXXXXXXX....XXXXXXXXXXXXXXXXXXXXXXXXXX ... XXXXXXXXXX....XXXXXXXXXXX ... XXXXXXXXXXXXXXXXXXX",
"XXXXX.... XXXXXXXXX  ..... XXXXXXXX....XXXXXXXXXXXXXXXXXXXXXXXXXXX... XXXXXXXXXX ... XXXXXXXXXX ... XXXXXXXXXXXXXXXXXXX",
"XXXXX.................... XXXXXXXXX....XXXXXXXXXXXXXXXXXXXXXXXXXXX... XXXXXXXXXX ... XXXXXXXXX ....XXXXXXXXXXXXXXXXXXXX",
"XXXXX................... XXXXXXXXXX....XXXXXXXXXXXXXXX     .......... XXXXXXXXXXX ...XXXXXXXXX ... XXXXXXXXXXXXXXXXXXXX",
"XXXXX................. XXXXXXXXXXXX....XXXXXXXXXXXXX .................XXXXXXXXXXX ... XXXXXXXX....XXXXXXXXXXXXXXXXXXXXX",
"XXXXX...........     XXXXXXXXXXXXXX....XXXXXXXXXXX ...................XXXXXXXXXXXX....XXXXXXX ... XXXXXXXXXXXXXXXXXXXXX",
"XXXXX.... XXXXXXXXXXXXXXXXXXXXXXXXX....XXXXXXXXXX ....................XXXXXXXXXXXX ... XXXXXX ... XXXXXXXXXXXXXXXXXXXXX",
"XXXXX.... XXXXXXXXXXXXXXXXXXXXXXXXX....XXXXXXXXX .....  XXXXXXXXXX....XXXXXXXXXXXXX... XXXXX ... XXXXXXXXXXXXXXXXXXXXXX",
"XXXXX.... XXXXXXXXXXXXXXXXXXXXXXXXX....XXXXXXXXX.... XXXXXXXXXXXXX....XXXXXXXXXXXXX ... XXXX ... XXXXXXXXXXXXXXXXXXXXXX",
"XXXXX.... XXXXXXXXXXXXXXXXXXXXXXXXX....XXXXXXXX ... XXXXXXXXXXXXX ....XXXXXXXXXXXXX ... XXXX....XXXXXXXXXXXXXXXXXXXXXXX",
"XXXXX.... XXXXXXXXXXXXXXXXXXXXXXXXX....XXXXXXXX ... XXXXXXXXXXXXX ....XXXXXXXXXXXXXX....XXX ... XXXXXXXXXXXXXXXXXXXXXXX",
"XXXXX.... XXXXXXXXXXXXXXXXXXXXXXXXX....XXXXXXXX ... XXXXXXXXXXXXX ....XXXXXXXXXXXXXX ... XX ...XXXXXXXXXXXXXXXXXXXXXXXX",
"XXXXX.... XXXXXXXXXXXXXXXXXXXXXXXXX....XXXXXXXX ... XXXXXXXXXXXXX.....XXXXXXXXXXXXXXX... X ... XXXXXXXXXXXXXXXXXXXXXXXX",
"XXXXX.... XXXXXXXXXXXXXXXXXXXXXXXXX....XXXXXXXX ... XXXXXXXXXXXX .....XXXXXXXXXXXXXXX ...  ... XXXXXXXXXXXXXXXXXXXXXXXX",
"XXXXX.... XXXXXXXXXXXXXXXXXXXXXXXXX....XXXXXXXX ... XXXXXXXXXXX ......XXXXXXXXXXXXXXX ... ....XXXXXXXXXXXXXXXXXXXXXXXXX",
"XXXXX.... XXXXXXXXXXXXXXXXXXXXXXXXX....XXXXXXXXX.... XXXXXXXXX .......XXXXXXXXXXXXXXXX ...... XXXXXXXXXXXXXXXXXXXXXXXXX",
"XXXXX.... XXXXXXXXXXXXXXXXXXXXXXXXX....XXXXXXXXX ....  XXXXX  ... ....XXXXXXXXXXXXXXXX ......XXXXXXXXXXXXXXXXXXXXXXXXXX",
"XXXXX.... XXXXXXXXXXXXXXXXXXXXXXXXX....XXXXXXXXXX............... X....XXXXXXXXXXXXXXXXX..... XXXXXXXXXXXXXXXXXXXXXXXXXX",
"XXXXX.... XXXXXXXXXXXXXXXXXXXXXXXXX....XXXXXXXXXX ............. XX....XXXXXXXXXXXXXXXXX .... XXXXXXXXXXXXXXXXXXXXXXXXXX",
"XXXXX.... XXXXXXXXXXXXXXXXXXXXXXXXX....XXXXXXXXXXXX ......... XXXX....XXXXXXXXXXXXXXXXX ... XXXXXXXXXXXXXXXXXXXXXXXXXXX",
"XXXXXXXXXXXXXXXXXXXXXXXXXXXXXXXXXXXXXXXXXXXXXXXXXXXXX       XXXXXXXXXXXXXXXXXXXXXXXXXXX ... XXXXXXXXXXXXXXXXXXXXXXXXXXX",
"XXXXXXXXXXXXXXXXXXXXXXXXXXXXXXXXXXXXXXXXXXXXXXXXXXXXXXXXXXXXXXXXXXXXXXXXXXXXXXXXXXXXXXX....XXXXXXXXXXXXXXXXXXXXXXXXXXXX",
"XXXXXXXXXXXXXXXXXXXXXXXXXXXXXXXXXXXXXXXXXXXXXXXXXXXXXXXXXXXXXXXXXXXXXXXXXXXXXXXXXXXXXX ... XXXXXXXXXXXXXXXXXXXXXXXXXXXX",
"XXXXXXXXXXXXXXXXXXXXXXXXXXXXXXXXXXXXXXXXXXXXXXXXXXXXXXXXXXXXXXXXXXXXXXXXXXXXXXXXXXXXXX....XXXXXXXXXXXXXXXXXXXXXXXXXXXXX",
"XXXXXXXXXXXXXXXXXXXXXXXXXXXXXXXXXXXXXXXXXXXXXXXXXXXXXXXXXXXXXXXXXXXXXXXXXXXXXXXXXXXXX ... XXXXXXXXXXXXXXXXXXXXXXXXXXXXX",
"XXXXXXXXXXXXXXXXXXXXXXXXXXXXXXXXXXXXXXXXXXXXXXXXXXXXXXXXXXXXXXXXXXXXXXXXXXXXXXXXXXXX .... XXXXXXXXXXXXXXXXXXXXXXXXXXXXX",
"XXXXXXXXXXXXXXXXXXXXXXXXXXXXXXXXXXXXXXXXXXXXXXXXXXXXXXXXXXXXXXXXXXXXXXXXXXXXXXX......... XXXXXXXXXXXXXXXXXXXXXXXXXXXXXX",
"XXXXXXXXXXXXXXXXXXXXXXXXXXXXXXXXXXXXXXXXXXXXXXXXXXXXXXXXXXXXXXXXXXXXXXXXXXXXXXX........ XXXXXXXXXXXXXXXXXXXXXXXXXXXXXXX",
"XXXXXXXXXXXXXXXXXXXXXXXXXXXXXXXXXXXXXXXXXXXXXXXXXXXXXXXXXXXXXXXXXXXXXXXXXXXXXXX....... XXXXXXXXXXXXXXXXXXXXXXXXXXXXXXXX",
"XXXXXXXXXXXXXXXXXXXXXXXXXXXXXXXXXXXXXXXXXXXXXXXXXXXXXXXXXXXXXXXXXXXXXXXXXXXXXXX...    XXXXXXXXXXXXXXXXXXXXXXXXXXXXXXXXX",
"XXXXXXXXXXXXXXXXXXXXXXXXXXXXXXXXXXXXXXXXXXXXXXXXXXXXXXXXXXXXXXXXXXXXXXXXXXXXXXXXXXXXXXXXXXXXXXXXXXXXXXXXXXXXXXXXXXXXXXX",
"XXXXXXXXXXXXXXXXXXXXXXXXXXXXXXXXXXXXXXXXXXXXXXXXXXXXXXXXXXXXXXXXXXXXXXXXXXXXXXXXXXXXXXXXXXXXXXXXXXXXXXXXXXXXXXXXXXXXXXX",
"XXXXXXXXXXXXXXXXXXXXXXXXXXXXXXXXXXXXXXXXXXXXXXXXXXXXXXXXXXXXXXXXXXXXXXXXXXXXXXXXXXXXXXXXXXXXXXXXXXXXXXXXXXXXXXXXXXXXXXX",
"XXXXXXXXXXXXXXXXXXXXXXXXXXXXXXXXXXXXXXXXXXXXXXXXXXXXXXXXXXXXXXXXXXXXXXXXXXXXXXXXXXXXXXXXXXXXXXXXXXXXXXXXXXXXXXXXXXXXXXX",
"XXXXXXXXXXXXXXXXXXXXXXXXXXXXXXXXXXXXXXXXXXXXXXXXXXXXXXXXXXXXXXXXXXXXXXXXXXXXXXXXXXXXXXXXXXXXXXXXXXXXXXXXXXXXXXXXXXXXXXX",
"XXXXXXXXXXXXXXXXXXXXXXXXXXXXXXXXXXXXXXXXXXXXXXXXXXXXXXXXXXXXXXXXXXXXXXXXXXXXXXXXXXXXXXXXXXXXXXXXXXXXXXXXXXXXXXXXXXXXXXX"
};
