/* XPM */
static char *menuplay_1[] = {
/* columns rows colors chars-per-pixel */
"119 63 6 1 ",
"  c #EF0E0E",
". c #F00E0E",
"X c #F10E0E",
"o c #F00F0F",
"O c #F10F0F",
"+ c None",
/* pixels */
"+++++++++++++++++++++++++++++++++++++++++++++++++++++++++++++++++++++++++++++++++++++++++++++++++++++++++++++++++++++++",
"+++++++++++++++++++++++++++++++++++++++++++++++++++++++++++++++++++++++++++++++++++++++++++++++++++++++++++++++++++++++",
"+++++++++++++++++++++++++++++++++++++++++++++++++++++++++++++++++++++++++++++++++++++++++++++++++++++++++++++++++++++++",
"+++++++++++++++++++++++++++++++++++++++++++++++++++++++++++++++++++++++++++++++++++++++++++++++++++++++++++++++++++++++",
"+++++++++++++++++++++++++++++++++++++++++++++++++++++++++++++++++++++++++++++++++++++++++++++++++++++++++++++++++++++++",
"+++++++++++++++++++++++++++++++++++++++++++++++++++++++++++++++++++++++++++++++++++++++++++++++++++++++++++++++++++++++",
"+++++++++++++++++++++++++++++++++++++++++++++++++++++++++++++++++++++++++++++++++++++++++++++++++++++++++++++++++++++++",
"+++++++++++++++++++++++++++++++++++++++++++++++++++++++++++++++++++++++++++++++++++++++++++++++++++++++++++++++++++++++",
"+++++++++++++++++++++++++++++++++++++++++++++++++++++++++++++++++++++++++++++++++++++++++++++++++++++++++++++++++++++++",
"+++++++++++++++++++++++++++++++++++OOOO++++++++++++++++++++++++++++++++++++++++++++++++++++++++++++++++++++++++++++++++",
"+++++++++++++++++++++++++++++++++++OOOO++++++++++++++++++++++++++++++++++++++++++++++++++++++++++++++++++++++++++++++++",
"+++++OOOOOOOOOOOoooo+++++++++++++++OOOO++++++++++++++++++++++++++++++++++++++++++++++++++++++++++++++++++++++++++++++++",
"+++++OOOOOOOOOOOOOOOOOo++++++++++++OOOO++++++++++++++++++++++++++++++++++++++++++++++++++++++++++++++++++++++++++++++++",
"+++++OOOOOOOOOOOOOOOOOOO.++++++++++OOOO++++++++++++++++++++++++++++++++++++++++++++++++++++++++++++++++++++++++++++++++",
"+++++OOOOOOOOOOOOOOOOOOOOo+++++++++OOOO++++++++++++++++++++++++++++++++++++++++++++++++++++++++++++++++++++++++++++++++",
"+++++OOOOo+++++++++ooOOOOOo++++++++OOOO++++++++++++++++++++++++++++++++++++++++++++++++++++++++++++++++++++++++++++++++",
"+++++OOOOo+++++++++++XOOOOO++++++++OOOO++++++++++++++++++++++++++++++++++++++++++++++++++++++++++++++++++++++++++++++++",
"+++++OOOOo++++++++++++XOOOOo+++++++OOOO++++++++++++++++++++++++++++++++++++++++++++++++++++++++++++++++++++++++++++++++",
"+++++OOOOo+++++++++++++OOOOX+++++++OOOO++++++++++++++++++++++++++++++++++++++++++++++++++++++++++++++++++++++++++++++++",
"+++++OOOOo+++++++++++++OOOOO+++++++OOOO+++++++++++++++ o.Xooo.+++++++++++++++++++++++++++++++++++++++++++++++++++++++++",
"+++++OOOOo+++++++++++++XOOOO+++++++OOOO+++++++++++ XOOOOOOOOOOOO.++++++++++++OOOO+++++++++++++++++oOOOX++++++++++++++++",
"+++++OOOOo+++++++++++++oOOOO+++++++OOOO++++++++++OOOOOOOOOOOOOOOOo+++++++++++XOOOo++++++++++++++++OOOO+++++++++++++++++",
"+++++OOOOo+++++++++++++oOOOO+++++++OOOO++++++++++OOOOOOOOOOOOOOOOOO+++++++++++OOOO+++++++++++++++XOOOo+++++++++++++++++",
"+++++OOOOo+++++++++++++XOOOO+++++++OOOO++++++++++OOoo++++++++oXOOOOX++++++++++oOOOX++++++++++++++oOOOo+++++++++++++++++",
"+++++OOOOo+++++++++++++OOOOO+++++++OOOO++++++++++o+++++++++++++.OOOOo+++++++++oOOOo++++++++++++++OOOO++++++++++++++++++",
"+++++OOOOo+++++++++++++OOOOX+++++++OOOO+++++++++++++++++++++++++.OOOo++++++++++OOOO+++++++++++++XOOOX++++++++++++++++++",
"+++++OOOOo++++++++++++XOOOOo+++++++OOOO++++++++++++++++++++++++++XOOO++++++++++XOOOX++++++++++++OOOO+++++++++++++++++++",
"+++++OOOOo+++++++++++XOOOOO++++++++OOOO++++++++++++++++++++++++++.OOO.++++++++++OOOO+++++++++++.OOOX+++++++++++++++++++",
"+++++OOOOo+++++++++ooOOOOOX++++++++OOOO+++++++++++++++++++++++++++OOOo++++++++++oOOO.++++++++++oOOOo+++++++++++++++++++",
"+++++OOOOOOOOOOOOOOOOOOOOo+++++++++OOOO+++++++++++++++++++++++++++OOOX++++++++++ OOOo+++++++++oOOOO++++++++++++++++++++",
"+++++OOOOOOOOOOOOOOOOOOO.++++++++++OOOO+++++++++++++++o.ooXOOOOOOOOOOo+++++++++++oOOO+++++++++XOOO.++++++++++++++++++++",
"+++++OOOOOOOOOOOOOOOOOo++++++++++++OOOO+++++++++++++.OOOOOOOOOOOOOOOOO+++++++++++oOOOX++++++++OOOO+++++++++++++++++++++",
"+++++OOOOOOOOOOOooooo++++++++++++++OOOO+++++++++++oOOOOOOOOOOOOOOOOOOO++++++++++++OOOO+++++++oOOOo+++++++++++++++++++++",
"+++++OOOOo+++++++++++++++++++++++++OOOO++++++++++oOOOOOOOOOOOOOOOOOOOO++++++++++++oOOOo++++++oOOOo+++++++++++++++++++++",
"+++++OOOOo+++++++++++++++++++++++++OOOO+++++++++.OOOOOXo++++++++++OOOO+++++++++++++OOOo+++++oOOOo++++++++++++++++++++++",
"+++++OOOOo+++++++++++++++++++++++++OOOO+++++++++OOOOo+++++++++++++OOOO+++++++++++++.OOOo++++oOOO ++++++++++++++++++++++",
"+++++OOOOo+++++++++++++++++++++++++OOOO++++++++ OOOo+++++++++++++oOOOO+++++++++++++ OOOo++++OOOO+++++++++++++++++++++++",
"+++++OOOOo+++++++++++++++++++++++++OOOO++++++++oOOO.+++++++++++++.OOOO++++++++++++++OOOO+++XOOOo+++++++++++++++++++++++",
"+++++OOOOo+++++++++++++++++++++++++OOOO++++++++XOOO.+++++++++++++oOOOO++++++++++++++oOOOX++oOOO++++++++++++++++++++++++",
"+++++OOOOo+++++++++++++++++++++++++OOOO++++++++oOOOX+++++++++++++OOOOO+++++++++++++++OOOo+ OOO.++++++++++++++++++++++++",
"+++++OOOOo+++++++++++++++++++++++++OOOO++++++++oOOO.++++++++++++oOOOOO+++++++++++++++oOOOooOOO ++++++++++++++++++++++++",
"+++++OOOOo+++++++++++++++++++++++++OOOO++++++++.OOOo+++++++++++oOOOOOO+++++++++++++++oOOOoOOOO+++++++++++++++++++++++++",
"+++++OOOOo+++++++++++++++++++++++++OOOO+++++++++OOOOX+++++++++oOOOOOOO++++++++++++++++oOOOOOOo+++++++++++++++++++++++++",
"+++++OOOOo+++++++++++++++++++++++++OOOO+++++++++.OOOOXo+++++.XOOOoOOOO++++++++++++++++.OOOOOO++++++++++++++++++++++++++",
"+++++OOOOo+++++++++++++++++++++++++OOOO++++++++++OOOOOOOOOOOOOOOo+OOOO+++++++++++++++++OOOOOo++++++++++++++++++++++++++",
"+++++OOOOo+++++++++++++++++++++++++OOOO++++++++++ OOOOOOOOOOOOO ++OOOO+++++++++++++++++oOOOO ++++++++++++++++++++++++++",
"+++++OOOOo+++++++++++++++++++++++++OOOO++++++++++++XOOOOOOOOOX++++OOOO+++++++++++++++++ OOOo+++++++++++++++++++++++++++",
"+++++++++++++++++++++++++++++++++++++++++++++++++++++.XXoXX +++++++++++++++++++++++++++XOOOo+++++++++++++++++++++++++++",
"+++++++++++++++++++++++++++++++++++++++++++++++++++++++++++++++++++++++++++++++++++++++OOOO++++++++++++++++++++++++++++",
"++++++++++++++++++++++++++++++++++++++++++++++++++++++++++++++++++++++++++++++++++++++oOOOX++++++++++++++++++++++++++++",
"++++++++++++++++++++++++++++++++++++++++++++++++++++++++++++++++++++++++++++++++++++++OOOO+++++++++++++++++++++++++++++",
"+++++++++++++++++++++++++++++++++++++++++++++++++++++++++++++++++++++++++++++++++++++oOOOX+++++++++++++++++++++++++++++",
"++++++++++++++++++++++++++++++++++++++++++++++++++++++++++++++++++++++++++++++++++++.OOOOo+++++++++++++++++++++++++++++",
"+++++++++++++++++++++++++++++++++++++++++++++++++++++++++++++++++++++++++++++++OOOOOOOOO.++++++++++++++++++++++++++++++",
"+++++++++++++++++++++++++++++++++++++++++++++++++++++++++++++++++++++++++++++++OOOOOOOOo+++++++++++++++++++++++++++++++",
"+++++++++++++++++++++++++++++++++++++++++++++++++++++++++++++++++++++++++++++++OOOOOOOX++++++++++++++++++++++++++++++++",
"+++++++++++++++++++++++++++++++++++++++++++++++++++++++++++++++++++++++++++++++OOOoXoo+++++++++++++++++++++++++++++++++",
"+++++++++++++++++++++++++++++++++++++++++++++++++++++++++++++++++++++++++++++++++++++++++++++++++++++++++++++++++++++++",
"+++++++++++++++++++++++++++++++++++++++++++++++++++++++++++++++++++++++++++++++++++++++++++++++++++++++++++++++++++++++",
"+++++++++++++++++++++++++++++++++++++++++++++++++++++++++++++++++++++++++++++++++++++++++++++++++++++++++++++++++++++++",
"+++++++++++++++++++++++++++++++++++++++++++++++++++++++++++++++++++++++++++++++++++++++++++++++++++++++++++++++++++++++",
"+++++++++++++++++++++++++++++++++++++++++++++++++++++++++++++++++++++++++++++++++++++++++++++++++++++++++++++++++++++++",
"+++++++++++++++++++++++++++++++++++++++++++++++++++++++++++++++++++++++++++++++++++++++++++++++++++++++++++++++++++++++"
};
