/* XPM */
static char *a_3[] = {
/* columns rows colors chars-per-pixel */
"50 49 250 2 ",
"   c #7A4E3F",
".  c #7B4E3F",
"X  c #7E4E3D",
"o  c #7F4E3D",
"O  c #7D4E3E",
"+  c #5F4C4C",
"@  c #6B4D46",
"#  c #664C49",
"$  c #754D41",
"%  c #764D41",
"&  c #704D44",
"*  c #7B5940",
"=  c #BA2B1E",
"-  c #ED1B04",
";  c #F51500",
":  c #F51700",
">  c #F51A00",
",  c #F61F01",
"<  c #D9270F",
"1  c #C0281B",
"2  c #F62301",
"3  c #F73E1F",
"4  c #8F4F36",
"5  c #824E3B",
"6  c #834E3B",
"7  c #874E39",
"8  c #854E3A",
"9  c #814E3C",
"0  c #934F33",
"q  c #954F33",
"w  c #974F32",
"e  c #934F34",
"r  c #AF5126",
"t  c #AE5127",
"y  c #A7502A",
"u  c #A2502C",
"i  c #A2502D",
"p  c #A0502E",
"a  c #A95029",
"s  c #AB5028",
"d  c #AA5029",
"f  c #B35124",
"g  c #BA5121",
"h  c #B85122",
"j  c #C6521B",
"k  c #C0521E",
"l  c #CA5219",
"z  c #CC5218",
"x  c #D05317",
"c  c #D65314",
"v  c #D85313",
"b  c #D95313",
"n  c #DA5312",
"m  c #DC5311",
"M  c #DE5310",
"N  c #F94702",
"B  c #F94802",
"V  c #F94902",
"C  c #F94A02",
"Z  c #F94B03",
"A  c #F94D03",
"S  c #FA4F03",
"D  c #E2540E",
"F  c #E6540C",
"G  c #E7540C",
"H  c #E8540B",
"J  c #EA540A",
"K  c #EF5408",
"L  c #EE5409",
"P  c #F15407",
"I  c #F35506",
"U  c #F25507",
"Y  c #FA5503",
"T  c #FA5603",
"R  c #FA5703",
"E  c #F45E07",
"W  c #FA5803",
"Q  c #FA5903",
"!  c #FA5A03",
"~  c #FA5B03",
"^  c #FB5C03",
"/  c #FB5D04",
"(  c #FB5E04",
")  c #FB5F04",
"_  c #F05408",
"`  c #FB6004",
"'  c #FB6104",
"]  c #FB6304",
"[  c #FB6404",
"{  c #FB6504",
"}  c #FB6604",
"|  c #FB6804",
" . c #FC6904",
".. c #FC6B04",
"X. c #FC6C04",
"o. c #FC6D05",
"O. c #FC6E05",
"+. c #FC6F05",
"@. c #FC7005",
"#. c #FC7105",
"$. c #FC7205",
"%. c #FC7305",
"&. c #FC7405",
"*. c #FC7505",
"=. c #FD7505",
"-. c #FD7605",
";. c #FD7705",
":. c #FD7805",
">. c #FD7905",
",. c #FD7A05",
"<. c #FD7B05",
"1. c #FD7C05",
"2. c #FD7D05",
"3. c #FD7E06",
"4. c #FD7F06",
"5. c #FA6215",
"6. c #FB6518",
"7. c #FB671C",
"8. c #FB6B20",
"9. c #FB7421",
"0. c #D68219",
"q. c #ED8D0F",
"w. c #FD8006",
"e. c #FD8106",
"r. c #FE8306",
"t. c #FE8406",
"y. c #FE8506",
"u. c #FE8606",
"i. c #FE8706",
"p. c #FE8806",
"a. c #FE8906",
"s. c #FE8A06",
"d. c #FE8B06",
"f. c #FE8C06",
"g. c #FE8D06",
"h. c #FE8D07",
"j. c #FE8E07",
"k. c #FF8F07",
"l. c #F7890A",
"z. c #F68D0B",
"x. c #F38F0C",
"c. c #FA8D09",
"v. c #FF9007",
"b. c #FF9107",
"n. c #FF9207",
"m. c #FF9307",
"M. c #FF9407",
"N. c #FF9507",
"B. c #F8900A",
"V. c #FF9508",
"C. c #FF9608",
"Z. c #FF970B",
"A. c #FF970C",
"S. c #FF980D",
"D. c #FF980E",
"F. c #E28313",
"G. c #E48912",
"H. c #FF9910",
"J. c #FF9A11",
"K. c #FF9B13",
"L. c #FF9B14",
"P. c #FF9B15",
"I. c #FF9C16",
"U. c #FF9C17",
"Y. c #FF9D19",
"T. c #FF9F1D",
"R. c #FF9F1E",
"E. c #FFA01F",
"W. c #FD8425",
"Q. c #FE9122",
"!. c #FD9027",
"~. c #FE9427",
"^. c #FD9129",
"/. c #FFA223",
"(. c #FFA224",
"). c #FFA327",
"_. c #FFA428",
"`. c #FFA429",
"'. c #FFA52A",
"]. c #FFA62C",
"[. c #FFA62D",
"{. c #FFA72E",
"}. c #FFA72F",
"|. c #FFA831",
" X c #FFA933",
".X c #FFAA35",
"XX c #FFAB37",
"oX c #FFAE3E",
"OX c #FFAF3F",
"+X c #FFAF40",
"@X c #FFB041",
"#X c #FFB042",
"$X c #FFB144",
"%X c #FFB248",
"&X c #FFB348",
"*X c #FFB349",
"=X c #FFB34A",
"-X c #FFB44A",
";X c #FFB44C",
":X c #FFB752",
">X c #FFB853",
",X c #FFB854",
"<X c #FFBA58",
"1X c #FFBC5E",
"2X c #FFBE60",
"3X c #FFBF64",
"4X c #FDAA75",
"5X c #FEB575",
"6X c #FFC26A",
"7X c #FFC36C",
"8X c #FFC46F",
"9X c #FFC571",
"0X c #FFC673",
"qX c #FFC674",
"wX c #FFC774",
"eX c #FFC775",
"rX c #FFC876",
"tX c #FFCB7E",
"yX c #FDBF90",
"uX c #FFCC81",
"iX c #FFCD82",
"pX c #FFCE85",
"aX c #FFD28E",
"sX c #FDC193",
"dX c #FFD390",
"fX c #FFD492",
"gX c #FFD593",
"hX c #FFD594",
"jX c #FFD695",
"kX c #FFD696",
"lX c #FFD798",
"zX c #FFD89A",
"xX c #FFD99D",
"cX c #FFD99E",
"vX c #FFDA9E",
"bX c #FFDCA2",
"nX c #FFDCA4",
"mX c #FFDDA6",
"MX c #FFDEA7",
"NX c #FFDFA9",
"BX c #FFDFAA",
"VX c #FFE1AF",
"CX c #FFE3B2",
"ZX c #FFE4B5",
"AX c #FFE4B6",
"SX c #FFE6B8",
"DX c #FFE7BC",
"FX c #FFEAC2",
"GX c #FFF3D6",
"HX c None",
/* pixels */
"HXHXHXHXHXHXHXHXHXHXHXHXHXHXHXHXHXHXN.N.N.N.N.N.N.N.N.N.HXHXHXHXHXHXHXHXHXHXHXHXHXHXHXHXHXHXHXHXHXHX",
"HXHXHXHXHXHXHXHXHXHXHXHXHXHXHXI.U.U.U.Z.N.N.N.N.N.N.C.U.U.U.U.U.I.HXHXHXHXHXHXHXHXHXHXHXHXHXHXHXHXHX",
"HXHXHXHXHXHXHXHXHXHXHXHXHXT.E.dXGXGXGX=XA.N.N.N.N.V.[.GXGXGXGXGXcXE.R.HXHXHXHXHXHXHXHXHXHXHXHXHXHXHX",
"HXHXHXHXHXHXHXHXHXHXHXHX/.pXGXGXGXGXGXGX*XA.f.M.N.{.GXGXGXGXGXGXGXGXgX(.HXHXHXHXHXHXHXHXHXHXHXHXHXHX",
"HXHXHXHXHXHXHXHXHXHXHXN.8XGXGXGXGXGXGXGXGX).^ v.N.GXGXGXGXGXGXGXGXGXGXtXf.HXHXHXHXHXHXHXHXHXHXHXHXHX",
"HXHXHXHXHXHXHXHXHXHXHXN.8XGXGXGXGXGXGXGXVXE.^ v.N.MXGXGXGXGXGXGXGXGXGXtX;.Y Y HXHXHXHXHXHXHXHXHXHXHX",
"HXHXHXHXHXHXHXHXHXHXHXN.:XDXGXGXGXGXGXBX(.u.! v.N.S.xXnXGXGXGXGXGXFXxX1X;.Y ( !.+X0XHXHXHXHXHXHXHXHX",
"HXHXHXHXHXHXHXHXHXHXN.N.N.>XjXjXjXjXjX~.e.^ Y v.N.N.N.U.jXjXjXjXjX3XN.g.-. .^.zXGXGXqXHXHXHXHXHXHXHX",
"HXHXHXHXHXHXHXHXHXN.N.N.N.N.N.i.h.N.N.=.X.X.X.n.4.N.N.N.N.N.N.N.N.N.N.r.4.].lXGXGXGXGXwX`.HXHXHXHXHX",
"HXHXHXHXHXHXHXHXHXN.N.N.N.i.1.%.p.N.N.N.N.N.N.N.R 2.N.N.K.<X<X<XOXN.N.N.N.8XGXGXGXGXGXGXXXHXHXHXHXHX",
"HXHXHXHXHXHXHXHXN.N.a.>.>.} Y 1.N.N.&X2X2X2XJ.N.R R N.N.).GXGXGXCX@Xs.y.N.8XGXGXGXGXGXGXXXHXHXHXHXHX",
"HXHXHXHXHXHXHXN.N.N.u.%.%.] } p.N.-XSXGXGXGXeXD.&.R N.N.).GXGXGXGXaX1.] y.oXNXGXGXGXGXGXiX_.HXHXHXHX",
"HXHXHXHXHXHX9.9X9X9X$XN.N.%.,.N.N.kXGXGXGXGXGXU.N.R N.N.I.uXGXGXAX=X1.Y %.N.rXGXGXGXGXGXGX}.HXHXHXHX",
"HXHXHXHXHX}.fXGXGXGXVX$XN.y.a.N.N.kXGXGXGXGXGXU.N.>.N.N.N.Y.3X3X%XN.s. .%.N.rXGXGXGXGXGXGX}.N.HXHXHX",
"HXHXHXHX'.hXGXGXGXGXGXrXN.N.N.N.N.#XZXGXGXGX6XD.N.N.N.N.N.N.N.N.N.N.N.,.%.N..XbXGXGXGXGXGX}.N.HXHXHX",
"HXHXHXHX}.GXGXGXGXGXGX5Xe.N.N.N.N.N.OX,X,X,XH.N.N.N.N.N.N.N.N.N.N.N.N.d.p.N.N. XnXGXGXGXGX}.N.N.HXHX",
"HXHXHX3 vXGXGXGXGXGXGX4X=.N.N.N.N.N.N.N.N.N.N.N.N.N.N.N.N.N.N.N.N.N.N.N.N.N.N.N.|.mXGXGX7XL.N.N.HXHX",
"HXHX2 W.GXGXGXGXGXGXGX4X( w.N.N.N.N.N.N.N.N.N.N.N.N.b.| | @.N.N.N.N.N.N.N.N.N.N.N.}.$X$XP.N.N.N.2 HX",
"HX, :.).GXGXGXGXGXGXGX4XY ( { { t.&.{ { { { k.N.N.{ [ Y Y W @.N.N.N.r.{ <.N.N.N.N.N.N.N.N.N.N.N., HX",
"HX, N.).GXGXGXGXGXGXyX7.Y Y Y &.v.d.i.' Y Y ' b.{ Y Q i.i.i.s.N.N.N.v.$.~ 1.N.N.N.N.N.N.N.N.N.N.A : ",
": S N.S.;XGXGXGXGXsX6.Y Y Y %.b.N.N.N.f.s./ Y ) Y R d.N.N.N.N.N.N.N.N.v.#.~ ` ` ` ` y.N.N.N.N.} T : ",
": ! N.N.A././.Q.8.5.Y Y Y %.b.N.N.N.N.N.N.j.~ Y Y g.N.N.N.N.N.N.N.N.N.N.;.Y Y Y ;.f.n.N...( ( T Y : ",
": ! N.N.N.N.N.m.k.k.-.Y $.n.N.N.N.N.N.N.N.N.^ Y Y N.N.N.N.N.N.N.N.N.N.2.W Y &.k.m.N.N.N.v.` Y Y Y : ",
": ! N.N.N.N.N.N.N.N.m.=.=.N.N.N.N.N.N.N.N.N.^ Y Y N.N.N.N.N.N.N.N.N.3.R Y %.m.N.N.N.N.N.N.n.( Y Y : ",
": Y / N.N.N.N.N.N.N.N.;.=.N.N.N.N.N.N.N.N.N.^ Y Y M.N.N.N.N.N.N.N.N.1.Y $.M.N.N.N.N.N.N.N.N.) Y Y : ",
"- Y ^ n.N.N.N.N.N.N.N.;.%.m.N.N.N.N.N.N.N.n.^ Y Y R b.n.N.N.N.M.b.1.Y Y %.N.N.N.N.N.N.N.N.N.) Y Y : ",
"# Y Y ( v.N.N.N.N.N.N.,.W &.n.N.N.N.N.N.v.( Y Y Y Y Y ^ k.k.k.4.Y Y Y Y %.N.N.N.N.N.N.N.N.N.) Y S : ",
"HXF Y Y ` j.N.N.N.N.N.N.=.Y *.f.f.f.f.f.` Y Y Y / Y Y Y Y Y Y Y Y Y Y Y %.N.N.N.N.N.N.N.N.j./ Y > HX",
"HX@ D Y Y ' s.h.N.N.N.v.+.Y Y Y H U Y Y Y Y Y ) m.` Y Y Y Y Y I G Y Y Y o.k.N.N.N.N.N.N.N.' Y Z > HX",
"HXHX& M Y Y Y [ i.i.i.@.Y Y Y Y q l Y Y Y Y Y v.N.m.Y Y Y Y U h 4 Y Y Y Y O.k.N.N.N.N.N.G.E Y < HXHX",
"HXHXHX% n Y Y Y Y Y Y Y Y Y Y Y q r K Y Y Y ] b.N.m.[ Y Y Y c + 4 Y Y Y Y Y +.t.t.t.F.0.* m b & HXHX",
"HXHXHXHX. z b Y J z z z z z z z 8 + x Y Y Y j.N.N.N.v.Y Y P f + 4 Y Y Y Y Y Y Y M z 9 + 5 k $ HXHXHX",
"HXHXHXHXHX+ . c c e O + + + + + + + s L Y Y j.N.N.N.v.Y Y m + + o v Y Y D j j j 7 + 6 e g   HXHXHXHX",
"HXHXHXHXHXHX+ O k k w + + + + + + + + d K Y j.N.N.N.v.Y P t + + + 9 k k 0 + + + + + u k X HXHXHXHXHX",
"HXHXHXHXHXHXHX+ + + + + + + + + + + + + a _ j.N.N.N.v.Y D + + + + + + + + + + + + + + + HXHXHXHXHXHX",
"HXHXHXHXHXHXHXHXHX+ + + + + + + + + + + + D j.N.N.N.v.U y + + + + + + + + + + + + + HXHXHXHXHXHXHXHX",
"HXHXHXHXHXHXHXHXHXHXHXHX+ + + + + + + + + i z.N.N.N.v.H + + + + + + + + + + HXHXHXHXHXHXHXHXHXHXHXHX",
"HXHXHXHXHXHXHXHXHXHXHXHXHXHXHXHXHXHXHX+ + + q.N.N.N.B.p + + HXHXHXHXHXHXHXHXHXHXHXHXHXHXHXHXHXHXHXHX",
"HXHXHXHXHXHXHXHXHXHXHXHXHXHXHXHXHXHXHXHXHX+ q.N.N.N.x.+ HXHXHXHXHXHXHXHXHXHXHXHXHXHXHXHXHXHXHXHXHXHX",
"HXHXHXHXHXHXHXHXHXHXHXHXHXHXHXHXHXHXHXHXHX= l.N.N.N.x.+ HXHXHXHXHXHXHXHXHXHXHXHXHXHXHXHXHXHXHXHXHXHX",
"HXHXHXHXHXHXHXHXHXHXHXHXHXHXHXHXHXHXHXHXHX; u.N.N.N.c.1 HXHXHXHXHXHXHXHXHXHXHXHXHXHXHXHXHXHXHXHXHXHX",
"HXHXHXHXHXHXHXHXHXHXHXHXHXHXHXHXHXHXHXHXHX; u.N.N.N.d.; HXHXHXHXHXHXHXHXHXHXHXHXHXHXHXHXHXHXHXHXHXHX",
"HXHXHXHXHXHXHXHXHXHXHXHXHXHXHXHXHXHXHXHXHX; u.N.N.N.d.; HXHXHXHXHXHXHXHXHXHXHXHXHXHXHXHXHXHXHXHXHXHX",
"HXHXHXHXHXHXHXHXHXHXHXHXHXHXHXHXHXHXHXHXHX; u.N.N.N.d.; HXHXHXHXHXHXHXHXHXHXHXHXHXHXHXHXHXHXHXHXHXHX",
"HXHXHXHXHXHXHXHXHXHXHXHXHXHXHXHXHXHXHXHXHX; u.N.N.N.d.; HXHXHXHXHXHXHXHXHXHXHXHXHXHXHXHXHXHXHXHXHXHX",
"HXHXHXHXHXHXHXHXHXHXHXHXHXHXHXHXHXHXHXHXHX; u.N.N.N.d.; HXHXHXHXHXHXHXHXHXHXHXHXHXHXHXHXHXHXHXHXHXHX",
"HXHXHXHXHXHXHXHXHXHXHXHXHXHXHXHXHXHXHXHXHX; u.N.N.N.d.; HXHXHXHXHXHXHXHXHXHXHXHXHXHXHXHXHXHXHXHXHXHX",
"HXHXHXHXHXHXHXHXHXHXHXHXHXHXHXHXHXHXHXHX; B h.N.N.N.v.C ; HXHXHXHXHXHXHXHXHXHXHXHXHXHXHXHXHXHXHXHXHX",
"HXHXHXHXHXHXHXHXHXHXHXHXHXHXHXHXHXHX; ; N a.N.N.N.N.N.d.V ; ; HXHXHXHXHXHXHXHXHXHXHXHXHXHXHXHXHXHXHX"
};
