/* XPM */
static char *a_6[] = {
/* columns rows colors chars-per-pixel */
"50 41 128 2 ",
"   c #7F493E",
".  c #7D5A3F",
"X  c #7F5B3E",
"o  c #7E5A3F",
"O  c #5F4C4C",
"+  c #6A4B47",
"@  c #614D4B",
"#  c #624D4B",
"$  c #664F49",
"%  c #644C4A",
"&  c #644E4A",
"*  c #654F4A",
"=  c #604C4C",
"-  c #614E4D",
";  c #704B45",
":  c #6B5247",
">  c #6E5345",
",  c #6F5345",
"<  c #63504F",
"1  c #685048",
"2  c #735543",
"3  c #775741",
"4  c #755642",
"5  c #745643",
"6  c #775742",
"7  c #725544",
"8  c #735544",
"9  c #785741",
"0  c #7A5840",
"q  c #7B5940",
"w  c #7C5940",
"e  c #675451",
"r  c #685552",
"t  c #6A5753",
"y  c #6F5C55",
"u  c #6F5C56",
"i  c #715E57",
"p  c #725F58",
"a  c #746158",
"s  c #746159",
"d  c #77645A",
"f  c #7C695E",
"g  c #7D6A5E",
"h  c #7F6C5F",
"j  c #83493D",
"k  c #88493A",
"l  c #8D4839",
"z  c #865E3B",
"x  c #875E3B",
"c  c #805B3E",
"v  c #815C3D",
"b  c #895F3A",
"n  c #8A5F3A",
"m  c #A7462D",
"M  c #B54527",
"N  c #B64527",
"B  c #BE4423",
"V  c #BA4525",
"C  c #BB4525",
"Z  c #B14529",
"A  c #B24529",
"S  c #8B6039",
"D  c #8D6138",
"F  c #8C6039",
"G  c #916336",
"H  c #906237",
"J  c #916337",
"K  c #956535",
"L  c #966534",
"P  c #986633",
"I  c #9D6831",
"U  c #9E6931",
"Y  c #A66C2E",
"T  c #A86D2C",
"R  c #A96E2C",
"E  c #AA6E2C",
"W  c #AF7129",
"Q  c #B47327",
"!  c #BE7723",
"~  c #BB7625",
"^  c #B87526",
"/  c #BC7724",
"(  c #BD7724",
")  c #B17129",
"_  c #CA431F",
"`  c #D4431A",
"'  c #EE400F",
"]  c #F3400D",
"[  c #F6540C",
"{  c #E94111",
"}  c #CB7D1D",
"|  c #CD7E1D",
" . c #CE7F1C",
".. c #FB7C09",
"X. c #C37A21",
"o. c #C17922",
"O. c #867364",
"+. c #887565",
"@. c #907D6A",
"#. c #927F6B",
"$. c #DA8417",
"%. c #D2811A",
"&. c #D3811A",
"*. c #D78318",
"=. c #D68219",
"-. c #D88318",
";. c #EC8C0F",
":. c #F08E0D",
">. c #F18F0D",
",. c #F28F0D",
"<. c #FF9507",
"1. c #F5900B",
"2. c #F4900C",
"3. c #E18714",
"4. c #E38813",
"5. c #E78A11",
"6. c #E48813",
"7. c #E88B11",
"8. c #97846E",
"9. c #99866F",
"0. c #9D8A71",
"q. c #A18E74",
"w. c #A89578",
"e. c #AA977A",
"r. c #B19E7E",
"t. c #B5A280",
"y. c #B8A582",
"u. c None",
/* pixels */
"u.u.u.u.u.u.u.u.u.u.u.u.u.u.u.u.u.u.u.u.u.u.u.u.u.u.$ $ $ $ $ $ $ & O u.u.u.u.u.u.u.u.u.u.u.u.u.u.u.",
"u.u.u.u.u.u.u.u.u.u.u.u.u.u.u.u.u.u.u.u.u.u.u.u.O * :.,.<.<.<.<.<.| 1 O O u.u.u.u.u.u.u.u.u.u.u.u.u.",
"u.u.u.u.u.u.u.u.u.u.u.u.u.2 4 4 u.5 4 4 4 4 # O O O O , ;.<.<.<.<.<.o.1 4 8 u.u.u.u.u.u.u.u.u.u.u.u.",
"u.u.u.u.u.u.u.u.u.u.u.3 . X.<.<.E *.<.<.<.<.F @ O O O O 2 3.7.<.<.1.~ Q <.! . 6 u.u.u.u.u.u.u.u.u.u.",
"u.u.u.u.u.u.u.u.u.u.q ( <.<.<.<.5.2.<.<.<.<.<.: O a a i O O q $.$.W I <.<.<.<.^ 0 u.u.u.u.u.u.u.u.u.",
"u.u.u.u.u.u.u.u.u.o / <.<.<.<.6.x  .<.<.<.<.-.1 d y.y.r.s O O O O O S %.5.<.<.<.I u.u.u.u.u.u.u.u.u.",
"u.u.u.u.u.u.u.u.O b 3.<.<.4.} b O E >.<.<.&.: O 9.y.y.t.#.O O O O O O O J } 5.<.( X u.u.u.u.u.u.u.u.",
"u.u.u.u.u.u.u.O O O n X.X.D O O O O T X.X.> O O O 8.8.@.O O O O O O O O O O K X.7.L O u.u.u.u.u.u.u.",
"u.u.u.u.u.u.O O O O O O O O O O O O O O O O O O O O O O O O O O O O O O O O O O P X O O u.u.u.u.u.u.",
"u.u.u.u.u.O O O O w R R R v O O O O O O O O O O O O O O O O O O O O O O O O O O O O O O O u.u.u.u.u.",
"u.u.u.O O O O O O I <.<.<.T O O O O O O O O O O O u.u.u.u.u.O O O O O O O O O O G ) 9 O O O u.u.u.u.",
"u.u.O O O O O O O I <.=.Y c O O O O O O O O O u.u.u.u.u.u.u.O O O O O O O O O O o.<.H O O O u.u.u.u.",
"u.u.O O O O O O O 3 U v O O O O O O O O O u.u.u.u.u.u.u.u.u.u.O O O O O O O O O z U 7 O O O O u.u.u.",
"u.u.O O O O O O O O O O O O O O O O O u.u.u.u.u.u.u.u.u.u.u.u.u.u.O O O O O O O O O O O O O O u.u.u.",
"u.u.O O O O O p +.O O O O O O O O O u.u.u.u.u.u.u.u.u.u.u.u.u.u.u.u.O O O O O O O O O O O O O O u.u.",
"u.O O O O O i w.9.O O O O O O O O u.u.u.u.u.u.u.u.u.u.u.u.u.u.u.u.u.u.O O O O O O O O O O O O O u.u.",
"u.O O O O u e.y.9.O O u.O O O O u.u.u.u.u.u.u.u.O O O O O O u.u.u.u.u.u.O O O O O O O O O O O O O u.",
"u.O O O O a y.q.r O u.u.u.O O u.u.u.u.u.u.u.u.u.u.u.O O O O O O u.u.u.u.u.O O O O O O O O O O O O u.",
"u.O O O O - h 0.O u.u.u.u.O u.u.u.u.u.u.u.u.u.u.u.u.u.u.O O O O O u.u.u.u.O O O O O O O O O O O O O ",
"O O O O O O - < O u.u.u.u.O u.u.u.u.u.u.u.u.u.u.u.u.u.u.u.O O O O O u.u.u.u.O O O O B {   O O O O O ",
"O O O O O O O O O u.u.u.u.u.u.u.u.u.u.O O O O u.u.u.u.u.u.u.u.O O O O u.u.u.O O O C ' k = O O O O O ",
"O O O O O O O O O O u.u.u.u.u.u.u.u.O O O O O u.u.u.u.u.u.u.u.u.O O O u.u.u.O O O O O O O O O O O O ",
"O O O O O O O % ; + O u.u.u.u.u.O O O O O O u.u.u.u.u.u.u.u.u.u.u.O O O u.u.u.O O O O O O O O O O O ",
"O O O O O O O l ] V O u.u.u.u.u.O O O O u.u.u.u.u.u.u.u.u.u.u.u.u.u.O O u.u.u.O O O O O O O O O O u.",
"O O O O O O O j ` m O u.u.u.u.O O O O u.u.u.u.u.u.u.u.u.u.u.u.u.u.u.u.u.u.u.u.O O O O O O O O O O u.",
"O O O O O O O O O O O u.u.u.O O O O u.u.u.u.u.u.u.u.u.u.u.u.u.u.u.u.u.u.u.u.u.O O O O O O O O O O u.",
"u.O O O O O O O O O O u.u.u.O O O u.u.u.u.u.u.O O O O u.u.u.u.u.O O O u.u.u.O O O O O O O O O O u.u.",
"u.O O O O O O O O O O u.u.u.u.O u.u.u.u.u.u.O O O O O O O u.u.u.u.O O O u.O O O O O O O O O O O u.u.",
"u.O O O O O O O O O O O u.u.u.u.u.u.u.u.u.u.u.O O O O O O O u.u.u.u.O O O O O O O O O O O O O u.u.u.",
"u.u.O O O O O O O O O O u.u.u.u.u.u.u.u.u.u.u.u.u.u.O O O O O u.u.u.O O O O O O O O O O O O O u.u.u.",
"u.u.O O O O O O O O O O O u.u.u.u.u.u.u.u.u.u.u.u.u.u.u.O O O u.u.O O O O O O O O O O O O O u.u.u.u.",
"u.u.u.O O O O O O O O O O O O O O u.u.u.u.u.u.u.u.u.u.u.u.u.u.u.u.O O O O O O O O O O O O u.u.u.u.u.",
"u.u.u.u.O O O O O O O O O O O O O O O O O O u.u.u.u.u.u.u.u.u.u.O O O O O O O O O O O O u.u.u.u.u.u.",
"u.u.u.u.u.O O O O O O O O O O O O O O O O O u.u.u.u.u.u.u.u.O O O O s 8.g O O O O O O u.u.u.u.u.u.u.",
"u.u.u.u.u.u.O O O O O O O O O O O.i O O O u.u.u.] u.u.u.O O O O O O t f y O O O O u.u.u.u.u.u.u.u.u.",
"u.u.u.u.u.u.u.u.O O O O O O O O u e O Z u.u.u.] ..] u.u._ M O O O O O O O O O u.u.u.u.u.u.u.u.u.u.u.",
"u.u.u.u.u.u.u.u.u.u.u.O O O O O O O A u.u.u.u.u.[ u.u.u.u.u.N O O O O u.u.u.u.u.u.u.u.u.u.u.u.u.u.u.",
"u.u.u.u.u.u.u.u.u.u.u.u.u.u.u.u.u.u.u.u.u.u.u.u.u.u.u.u.u.u.u.u.u.u.u.u.u.u.u.u.u.u.u.u.u.u.u.u.u.u.",
"u.u.u.u.u.u.u.u.u.u.u.u.u.u.u.u.u.u.u.u.u.u.u.u.u.u.u.u.u.u.u.u.u.u.u.u.u.u.u.u.u.u.u.u.u.u.u.u.u.u.",
"u.u.u.u.u.u.u.u.u.u.u.u.u.u.u.u.u.u.u.u.u.u.u.u.u.u.u.u.u.u.u.u.u.u.u.u.u.u.u.u.u.u.u.u.u.u.u.u.u.u.",
"u.u.u.u.u.u.u.u.u.u.u.u.u.u.u.u.u.u.u.u.u.u.u.u.u.u.u.u.u.u.u.u.u.u.u.u.u.u.u.u.u.u.u.u.u.u.u.u.u.u."
};
